<svg width="25" height="24" viewBox="0 0 25 24" fill="none" xmlns="http://www.w3.org/2000/svg">
<path fill-rule="evenodd" clip-rule="evenodd" d="M23.228 12C23.228 17.9371 18.4151 22.75 12.478 22.75C6.54097 22.75 1.72803 17.9371 1.72803 12C1.72803 6.06294 6.54097 1.25 12.478 1.25C18.4151 1.25 23.228 6.06294 23.228 12ZM3.22803 12C3.22803 17.1086 7.36939 21.25 12.478 21.25C17.5867 21.25 21.728 17.1086 21.728 12C21.728 6.89137 17.5867 2.75 12.478 2.75C7.36939 2.75 3.22803 6.89137 3.22803 12Z" fill="#0D3662"/>
<path d="M13.228 16V12C13.228 11.5858 12.8922 11.25 12.478 11.25C12.0638 11.25 11.728 11.5858 11.728 12V16C11.728 16.4142 12.0638 16.75 12.478 16.75C12.8922 16.75 13.228 16.4142 13.228 16Z" fill="#0D3662"/>
<path d="M12.478 8.75H12.488C12.9022 8.75 13.238 8.41421 13.238 8C13.238 7.6203 12.9559 7.30651 12.5898 7.25685L12.478 7.25C12.0638 7.25 11.728 7.58579 11.728 8C11.728 8.41421 12.0638 8.75 12.478 8.75Z" fill="#0D3662"/>
</svg>
