<svg width="25" height="24" viewBox="0 0 25 24" fill="none" xmlns="http://www.w3.org/2000/svg">
<path fill-rule="evenodd" clip-rule="evenodd" d="M17.2344 13.25C18.1791 11.688 18.9265 9.86827 18.9265 8C18.9265 4.27208 15.9045 1.25 12.1765 1.25C8.44863 1.25 5.42655 4.27208 5.42655 8C5.42655 9.86827 6.17395 11.688 7.11865 13.25H5.56255C4.41622 13.25 3.39014 13.9611 2.98764 15.0344L1.48764 19.0344C0.813461 20.8322 2.14248 22.75 4.06255 22.75H20.2905C22.2106 22.75 23.5396 20.8322 22.8655 19.0344L21.3655 15.0344C20.9629 13.9611 19.9369 13.25 18.7905 13.25H17.2344ZM11.6962 18.576L11.6954 18.5753L11.6937 18.5739L11.6881 18.5692L11.6686 18.5527C11.6519 18.5385 11.628 18.5181 11.5974 18.4916C11.5363 18.4387 11.4484 18.3616 11.3383 18.2622C11.1183 18.0635 10.8088 17.775 10.4459 17.4116C9.78467 16.7496 8.939 15.8321 8.13223 14.75H5.56255C5.04149 14.75 4.57509 15.0732 4.39214 15.5611L2.89214 19.5611C2.58569 20.3783 3.18979 21.25 4.06255 21.25H20.2905C21.1633 21.25 21.7674 20.3783 21.461 19.5611L19.961 15.5611C19.778 15.0732 19.3116 14.75 18.7905 14.75H16.2209C15.4141 15.8321 14.5684 16.7496 13.9072 17.4116C13.5443 17.775 13.2348 18.0635 13.0148 18.2622C12.9047 18.3616 12.8168 18.4387 12.7557 18.4916C12.7251 18.5181 12.7012 18.5385 12.6845 18.5527L12.665 18.5692L12.6594 18.5739L12.6577 18.5753L12.6569 18.576C12.3787 18.8078 11.9744 18.8078 11.6962 18.576ZM6.92655 8C6.92655 5.10051 9.27705 2.75 12.1765 2.75C15.076 2.75 17.4265 5.1005 17.4265 8C17.4265 9.8924 16.4492 11.8626 15.2305 13.5631C14.4189 14.6957 13.5324 15.6643 12.8459 16.3516C12.5885 16.6093 12.3604 16.8263 12.1765 16.9962C11.9927 16.8263 11.7646 16.6093 11.5072 16.3516C10.8207 15.6643 9.93419 14.6957 9.12255 13.5631C7.90393 11.8626 6.92655 9.8924 6.92655 8ZM9.42655 8C9.42655 6.48122 10.6578 5.25 12.1765 5.25C13.6953 5.25 14.9265 6.48122 14.9265 8C14.9265 9.51878 13.6953 10.75 12.1765 10.75C10.6578 10.75 9.42655 9.51878 9.42655 8ZM12.1765 6.75C11.4862 6.75 10.9265 7.30964 10.9265 8C10.9265 8.69036 11.4862 9.25 12.1765 9.25C12.8669 9.25 13.4265 8.69036 13.4265 8C13.4265 7.30964 12.8669 6.75 12.1765 6.75Z" fill="#0D3662"/>
</svg>
