<svg width="17" height="15" viewBox="0 0 17 15" fill="none" xmlns="http://www.w3.org/2000/svg">
<path fill-rule="evenodd" clip-rule="evenodd" d="M0.696289 1.19737C0.696289 0.915776 0.924565 0.6875 1.20616 0.6875H2.8901C3.73113 0.6875 4.46864 1.2491 4.6923 2.05986L5.06387 3.4068H14.6851C15.9332 3.4068 16.8308 4.60644 16.4786 5.80383L15.5322 9.02162C15.33 9.70901 14.7528 10.2204 14.046 10.3382L7.937 11.3563C6.99268 11.5137 6.08205 10.9323 5.82746 10.0094L3.70928 2.33104C3.60762 1.96251 3.27239 1.70724 2.8901 1.70724H1.20616C0.924565 1.70724 0.696289 1.47896 0.696289 1.19737ZM5.34517 4.42653L6.81048 9.73825C6.9262 10.1577 7.34012 10.422 7.76936 10.3505L13.8784 9.33232C14.1996 9.27878 14.462 9.04633 14.5539 8.73388L15.5003 5.5161C15.6604 4.97183 15.2524 4.42653 14.6851 4.42653H5.34517ZM6.81471 13.4342C6.81471 13.1526 7.04299 12.9243 7.32458 12.9243H8.0044C8.286 12.9243 8.51427 13.1526 8.51427 13.4342C8.51427 13.7158 8.286 13.9441 8.0044 13.9441H7.32458C7.04299 13.9441 6.81471 13.7158 6.81471 13.4342ZM12.2533 13.4342C12.2533 13.1526 12.4816 12.9243 12.7632 12.9243H13.443C13.7246 12.9243 13.9529 13.1526 13.9529 13.4342C13.9529 13.7158 13.7246 13.9441 13.443 13.9441H12.7632C12.4816 13.9441 12.2533 13.7158 12.2533 13.4342Z" fill="#0D3662" stroke="#0D3662" stroke-width="0.3"/>
</svg>
