<svg width="32" height="24" viewBox="0 0 32 24" fill="none" xmlns="http://www.w3.org/2000/svg">
<path fill-rule="evenodd" clip-rule="evenodd" d="M13.9805 3.38439C13.9805 2.43913 14.7468 1.67285 15.6921 1.67285C16.6373 1.67285 17.4036 2.43913 17.4036 3.38439C17.4036 3.81035 17.249 4.19828 16.9918 4.49801C16.6768 4.86522 16.2118 5.09593 15.6921 5.09593C15.1724 5.09593 14.7074 4.86522 14.3923 4.49801C14.1352 4.19828 13.9805 3.81035 13.9805 3.38439ZM15.6921 0.172852C13.9184 0.172852 12.4805 1.61071 12.4805 3.38439C12.4805 3.91092 12.6077 4.40858 12.8326 4.84753L6.79925 10.019H3.38439C1.61071 10.019 0.172852 11.4569 0.172852 13.2305V20.6152C0.172852 22.3888 1.61071 23.8267 3.38439 23.8267H28.6152C30.3888 23.8267 31.8267 22.3888 31.8267 20.6152V13.2305C31.8267 11.4569 30.3888 10.019 28.6152 10.019H24.5849L18.5515 4.84753C18.7765 4.40858 18.9036 3.91092 18.9036 3.38439C18.9036 1.61071 17.4658 0.172852 15.6921 0.172852ZM9.10414 10.019L13.8091 5.98617C14.3379 6.36934 14.9887 6.59593 15.6921 6.59593C16.3954 6.59593 17.0463 6.36934 17.575 5.98617L22.28 10.019H9.10414ZM7.08157 11.519H24.3026H24.3116H28.6152C29.5604 11.519 30.3267 12.2853 30.3267 13.2305V20.6152C30.3267 21.5604 29.5604 22.3267 28.6152 22.3267H3.38439C2.43913 22.3267 1.67285 21.5604 1.67285 20.6152V13.2305C1.67285 12.2853 2.43913 11.519 3.38439 11.519H7.07252H7.08157ZM25.3112 19.2566C25.6111 19.3418 25.9183 19.3844 26.2327 19.3844C26.6121 19.3844 26.9337 19.3149 27.1975 19.1759C27.4649 19.0324 27.6655 18.8419 27.7992 18.6042C27.9329 18.3621 27.9998 18.0931 27.9998 17.7972C27.9998 17.4564 27.9257 17.1874 27.7775 16.9901C27.633 16.7928 27.4613 16.6516 27.2626 16.5664C27.0638 16.4767 26.8199 16.3983 26.5308 16.331C26.3067 16.2772 26.1459 16.2279 26.0484 16.183C25.9508 16.1337 25.902 16.062 25.902 15.9678C25.902 15.7705 26.0664 15.6719 26.3953 15.6719C26.7277 15.6719 27.0801 15.7885 27.4523 16.0216L27.8372 14.8716C27.6456 14.7371 27.4234 14.6362 27.1704 14.5689C26.9211 14.4972 26.6663 14.4613 26.4061 14.4613C26.0267 14.4613 25.7033 14.5308 25.4358 14.6698C25.172 14.8088 24.9733 14.9994 24.8396 15.2415C24.7059 15.4836 24.639 15.7526 24.639 16.0485C24.639 16.3893 24.7113 16.6606 24.8558 16.8623C25.0004 17.0596 25.1702 17.2031 25.3654 17.2928C25.5605 17.3779 25.8044 17.4587 26.0972 17.5349C26.3248 17.5932 26.4874 17.647 26.585 17.6963C26.6862 17.7456 26.7368 17.8196 26.7368 17.9182C26.7368 18.0034 26.6988 18.0684 26.6229 18.1133C26.5471 18.1536 26.4206 18.1738 26.2435 18.1738C26.0375 18.1738 25.8225 18.1357 25.5985 18.0595C25.3744 17.9788 25.172 17.8734 24.9914 17.7434L24.5794 18.9002C24.7709 19.0481 25.0148 19.1669 25.3112 19.2566ZM6.94029 17.2659C6.81742 17.0686 6.64396 16.9184 6.41991 16.8152C6.59337 16.7076 6.72346 16.5664 6.81019 16.3915C6.90054 16.2167 6.94571 16.0194 6.94571 15.7997C6.94571 15.4275 6.81561 15.1294 6.55543 14.9052C6.29885 14.681 5.9176 14.5689 5.41168 14.5689H3.38439V19.2768H5.5201C6.04047 19.2768 6.43798 19.1647 6.71262 18.9405C6.98727 18.7118 7.12459 18.3913 7.12459 17.9788C7.12459 17.7008 7.06315 17.4631 6.94029 17.2659ZM4.64196 16.3781V15.6786H5.23823C5.51648 15.6786 5.65561 15.7952 5.65561 16.0284C5.65561 16.2615 5.51648 16.3781 5.23823 16.3781H4.64196ZM5.83449 17.7972C5.83449 18.0438 5.69355 18.1671 5.41168 18.1671H4.64196V17.4273H5.41168C5.69355 17.4273 5.83449 17.5506 5.83449 17.7972ZM8.85612 18.0931H9.20304L9.84809 19.2768H11.2039H11.2141H12.5048L12.7596 18.4563H14.2014L14.4562 19.2768H15.7788L14.1201 14.5689H12.8626L11.2079 19.2655L10.4172 17.8241C10.6485 17.6761 10.8256 17.4766 10.9485 17.2255C11.0713 16.9744 11.1328 16.6807 11.1328 16.3445C11.1328 15.9858 11.0623 15.6719 10.9214 15.4029C10.7804 15.1339 10.5799 14.9276 10.3197 14.7841C10.0595 14.6407 9.75413 14.5689 9.4036 14.5689H7.57687V19.2768H8.85612V18.0931ZM9.71257 15.9409C9.7993 16.0351 9.84267 16.1696 9.84267 16.3445C9.84267 16.5193 9.7993 16.6561 9.71257 16.7547C9.62584 16.8489 9.49575 16.896 9.32229 16.896H8.85612V15.793H9.32229C9.49575 15.793 9.62584 15.8423 9.71257 15.9409ZM13.8491 17.3129L13.4805 16.1292L13.1119 17.3129H13.8491ZM19.7232 19.2768V14.5689H18.4765V16.7076L17.0346 14.5689H15.983V19.2768H17.2297V17.1381L18.6716 19.2768H19.7232ZM20.3396 14.5689H22.2097C22.6325 14.5689 23.0047 14.6653 23.3263 14.8581C23.6515 15.0464 23.9027 15.3177 24.0798 15.6719C24.2605 16.0261 24.3508 16.4431 24.3508 16.9229C24.3508 17.4026 24.2605 17.8196 24.0798 18.1738C23.9027 18.528 23.6515 18.8015 23.3263 18.9943C23.0047 19.1826 22.6325 19.2768 22.2097 19.2768H20.3396V14.5689ZM22.1555 18.0393C22.4301 18.0393 22.6487 17.9429 22.8113 17.7501C22.9776 17.5528 23.0607 17.2771 23.0607 16.9229C23.0607 16.5686 22.9776 16.2951 22.8113 16.1023C22.6487 15.9051 22.4301 15.8064 22.1555 15.8064H21.6188V18.0393H22.1555Z" fill="#293644"/>
</svg>
