<svg width="24" height="24" viewBox="0 0 24 24" fill="none" xmlns="http://www.w3.org/2000/svg">
<path fill-rule="evenodd" clip-rule="evenodd" d="M15.728 2.51464C15.5658 2.27121 15.2926 2.125 15 2.125H9C8.70744 2.125 8.43424 2.27121 8.27196 2.51464L6.53171 5.125H3C1.41218 5.125 0.125 6.41218 0.125 8V19C0.125 20.5878 1.41218 21.875 3 21.875H21C22.5878 21.875 23.875 20.5878 23.875 19V8C23.875 6.41218 22.5878 5.125 21 5.125H17.4683L15.728 2.51464ZM9.46829 3.875H14.5317L16.272 6.48536L16.3378 6.57199C16.5028 6.76306 16.744 6.875 17 6.875H21L21.1226 6.8816C21.6862 6.94268 22.125 7.4201 22.125 8V19L22.1184 19.1226C22.0573 19.6862 21.5799 20.125 21 20.125H3L2.87742 20.1184C2.31376 20.0573 1.875 19.5799 1.875 19V8L1.8816 7.87742C1.94268 7.31376 2.4201 6.875 3 6.875H7L7.10862 6.86824C7.35913 6.83693 7.58605 6.69836 7.72804 6.48536L9.46829 3.875Z" fill="#0D3662"/>
<path fill-rule="evenodd" clip-rule="evenodd" d="M16.875 13C16.875 10.3076 14.6924 8.125 12 8.125C9.30761 8.125 7.125 10.3076 7.125 13C7.125 15.6924 9.30761 17.875 12 17.875C14.6924 17.875 16.875 15.6924 16.875 13ZM8.875 13C8.875 11.2741 10.2741 9.875 12 9.875C13.7259 9.875 15.125 11.2741 15.125 13C15.125 14.7259 13.7259 16.125 12 16.125C10.2741 16.125 8.875 14.7259 8.875 13Z" fill="#0D3662"/>
</svg>
