<svg width="24" height="24" viewBox="0 0 24 24" fill="none" xmlns="http://www.w3.org/2000/svg">
<path fill-rule="evenodd" clip-rule="evenodd" d="M5 4.25H20C21.5188 4.25 22.75 5.48122 22.75 7V17C22.75 18.5188 21.5188 19.75 20 19.75H5C3.48122 19.75 2.25 18.5188 2.25 17V7C2.25 5.48122 3.48122 4.25 5 4.25ZM20 5.75H5C4.30964 5.75 3.75 6.30964 3.75 7V17C3.75 17.6904 4.30964 18.25 5 18.25H20C20.6904 18.25 21.25 17.6904 21.25 17V7C21.25 6.30964 20.6904 5.75 20 5.75Z" fill="#0D3662"/>
<path d="M22 9.75C22.4142 9.75 22.75 10.0858 22.75 10.5C22.75 10.8797 22.4678 11.1935 22.1018 11.2432L22 11.25H3C2.58579 11.25 2.25 10.9142 2.25 10.5C2.25 10.1203 2.53215 9.80651 2.89823 9.75685L3 9.75H22Z" fill="#0D3662"/>
</svg>
