<svg width="26" height="26" viewBox="0 0 26 26" fill="none" xmlns="http://www.w3.org/2000/svg">
<path fill-rule="evenodd" clip-rule="evenodd" d="M0.270996 3.25C0.270996 2.80127 0.634765 2.4375 1.0835 2.4375H3.76693C5.10717 2.4375 6.28242 3.33244 6.63883 4.62442L7.23094 6.77083H22.5628C24.5517 6.77083 25.9821 8.68253 25.4209 10.5906L23.9128 15.7183C23.5906 16.8137 22.6707 17.6286 21.5444 17.8163L11.8094 19.4388C10.3046 19.6896 8.85346 18.7631 8.44776 17.2924L5.07234 5.05655C4.91034 4.46929 4.37613 4.0625 3.76693 4.0625H1.0835C0.634765 4.0625 0.270996 3.69873 0.270996 3.25ZM7.67922 8.39583L10.0142 16.8603C10.1987 17.5288 10.8583 17.9499 11.5423 17.8359L21.2773 16.2134C21.7892 16.1281 22.2074 15.7577 22.3538 15.2598L23.8619 10.1321C24.117 9.26479 23.4669 8.39583 22.5628 8.39583H7.67922ZM10.021 22.75C10.021 22.3013 10.3848 21.9375 10.8335 21.9375H11.9168C12.3656 21.9375 12.7293 22.3013 12.7293 22.75C12.7293 23.1987 12.3656 23.5625 11.9168 23.5625H10.8335C10.3848 23.5625 10.021 23.1987 10.021 22.75ZM18.6877 22.75C18.6877 22.3013 19.0514 21.9375 19.5002 21.9375H20.5835C21.0322 21.9375 21.396 22.3013 21.396 22.75C21.396 23.1987 21.0322 23.5625 20.5835 23.5625H19.5002C19.0514 23.5625 18.6877 23.1987 18.6877 22.75Z" fill="white" stroke="white" stroke-width="0.5"/>
</svg>
