<svg width="35" height="36" viewBox="0 0 35 36" fill="none" xmlns="http://www.w3.org/2000/svg">
<path d="M33.3542 1.31374C34.1605 2.06221 34.2657 3.28317 33.6394 4.15355L33.4676 4.36336L20.9239 17.8732L33.9055 30.8542C34.7482 31.6969 34.7482 33.0632 33.9055 33.906C33.1276 34.6838 31.9035 34.7437 31.057 34.0855L30.8537 33.906L17.9849 21.0388L5.50853 34.4803C4.6977 35.3537 3.33233 35.4044 2.45892 34.5936C1.65268 33.8451 1.54744 32.6242 2.17376 31.7538L2.3456 31.544L14.9314 17.9854L1.36885 4.42107C0.526139 3.57836 0.526139 2.21206 1.36885 1.36935C2.14674 0.59146 3.37076 0.531623 4.21728 1.18983L4.42057 1.36935L17.8705 14.8197L30.3046 1.42706C31.1155 0.553636 32.4808 0.502904 33.3542 1.31374Z" fill="#FF2D87"/>
</svg>
