<svg width="6" height="6" viewBox="0 0 6 6" fill="none" xmlns="http://www.w3.org/2000/svg">
<path d="M5.78996 0.100446C5.93308 0.230868 5.95176 0.443624 5.84058 0.59529L5.81007 0.631851L3.58344 2.98597L5.88781 5.24796C6.0374 5.3948 6.0374 5.63289 5.88781 5.77973C5.74972 5.91528 5.53245 5.92571 5.38218 5.81101L5.34609 5.77973L3.06172 3.53759L0.847034 5.87981C0.703101 6.032 0.460734 6.04084 0.305692 5.89955C0.162576 5.76913 0.143894 5.55638 0.255074 5.40471L0.285578 5.36815L2.51971 3.00552L0.112193 0.641907C-0.0373976 0.495062 -0.0373976 0.25698 0.112193 0.110135C0.250277 -0.0254138 0.467555 -0.0358406 0.617822 0.0788546L0.653908 0.110135L3.04142 2.4539L5.24862 0.120191C5.39255 -0.0320048 5.63492 -0.040845 5.78996 0.100446Z" fill="white"/>
</svg>
