<svg width="30" height="30" viewBox="0 0 30 30" fill="none" xmlns="http://www.w3.org/2000/svg">
<path d="M1.34351 21.4085L2.07895 21.5555L1.34351 21.4085ZM3.57132 10.2694L4.30675 10.4165L3.57132 10.2694ZM26.4291 10.2694L27.1645 10.1223L26.4291 10.2694ZM28.6569 21.4084L27.9214 21.5555L28.6569 21.4084ZM23.4806 24.006L22.9231 24.5078L23.4806 24.006ZM19.8671 19.9913L20.4246 19.4896L19.8671 19.9913ZM10.1327 19.9915L10.6901 20.4932L10.1327 19.9915ZM6.5198 24.006L5.96231 23.5042V23.5042L6.5198 24.006ZM12.4999 13C12.0857 13 11.7499 13.3358 11.7499 13.75C11.7499 14.1642 12.0857 14.5 12.4999 14.5V13ZM17.4999 14.5C17.9141 14.5 18.2499 14.1642 18.2499 13.75C18.2499 13.3358 17.9141 13 17.4999 13V14.5ZM2.07895 21.5555L4.30675 10.4165L2.83588 10.1223L0.608074 21.2614L2.07895 21.5555ZM8.47422 7H21.5262V5.5H8.47422V7ZM25.6936 10.4165L27.9214 21.5555L29.3923 21.2613L27.1645 10.1223L25.6936 10.4165ZM24.0381 23.5043L20.4246 19.4896L19.3097 20.493L22.9231 24.5078L24.0381 23.5043ZM17.0799 18H12.9201V19.5H17.0799V18ZM9.57517 19.4897L5.96231 23.5042L7.07728 24.5077L10.6901 20.4932L9.57517 19.4897ZM12.4999 14.5H17.4999V13H12.4999V14.5ZM5.96231 23.5042C5.53511 23.9789 4.9265 24.25 4.28788 24.25V25.75C5.35174 25.75 6.36561 25.2984 7.07728 24.5077L5.96231 23.5042ZM12.9201 18C11.6443 18 10.4286 18.5415 9.57517 19.4897L10.6901 20.4932C11.2591 19.861 12.0696 19.5 12.9201 19.5V18ZM20.4246 19.4896C19.5712 18.5414 18.3555 18 17.0799 18V19.5C17.9303 19.5 18.7408 19.8609 19.3097 20.493L20.4246 19.4896ZM25.7125 24.25C25.0739 24.25 24.4653 23.979 24.0381 23.5043L22.9231 24.5078C23.6348 25.2985 24.6486 25.75 25.7125 25.75V24.25ZM27.9214 21.5555C28.2002 22.9494 27.134 24.25 25.7125 24.25V25.75C28.0806 25.75 29.8567 23.5835 29.3923 21.2613L27.9214 21.5555ZM21.5262 7C23.5521 7 25.2963 8.42995 25.6936 10.4165L27.1645 10.1223C26.627 7.43464 24.2671 5.5 21.5262 5.5V7ZM4.30675 10.4165C4.70406 8.42995 6.44833 7 8.47422 7V5.5C5.7333 5.5 3.37342 7.43464 2.83588 10.1223L4.30675 10.4165ZM0.608074 21.2614C0.143649 23.5835 1.91976 25.75 4.28788 25.75V24.25C2.86633 24.25 1.80016 22.9495 2.07895 21.5555L0.608074 21.2614Z" fill="#293644"/>
</svg>
