<svg width="25" height="24" viewBox="0 0 25 24" fill="none" xmlns="http://www.w3.org/2000/svg">
<g clip-path="url(#clip0)">
<path fill-rule="evenodd" clip-rule="evenodd" d="M0.426758 6C0.426758 4.48122 1.65797 3.25 3.17676 3.25H21.1768C22.6955 3.25 23.9268 4.48122 23.9268 6V18C23.9268 19.5188 22.6955 20.75 21.1768 20.75H3.17676C1.65797 20.75 0.426758 19.5188 0.426758 18V6ZM3.17676 4.75C2.4864 4.75 1.92676 5.30964 1.92676 6V7.25H22.4268V6C22.4268 5.30964 21.8671 4.75 21.1768 4.75H3.17676ZM22.4268 8.75H1.92676V18C1.92676 18.6904 2.4864 19.25 3.17676 19.25H21.1768C21.8671 19.25 22.4268 18.6904 22.4268 18V8.75ZM4.42676 16C4.42676 15.5858 4.76254 15.25 5.17676 15.25H11.1768C11.591 15.25 11.9268 15.5858 11.9268 16C11.9268 16.4142 11.591 16.75 11.1768 16.75H5.17676C4.76254 16.75 4.42676 16.4142 4.42676 16Z" fill="#0D3662"/>
</g>
<defs>
<clipPath id="clip0">
<path d="M0.176758 0H24.1768V24H0.176758V0Z" fill="white"/>
</clipPath>
</defs>
</svg>
