<svg width="24" height="24" viewBox="0 0 24 24" fill="none" xmlns="http://www.w3.org/2000/svg">
<path d="M5.34855 6.31519C7.86628 3.36964 12.0216 2.43085 15.5613 4.0079C15.9396 4.17648 16.1097 4.61986 15.9411 4.99821C15.7725 5.37657 15.3291 5.54664 14.9508 5.37806C12.0179 4.07135 8.57489 4.84921 6.48878 7.28981C4.40268 9.73039 4.17043 13.2523 5.91798 15.9456C7.66554 18.639 10.9766 19.8622 14.0557 18.9519C17.0492 18.0669 19.13 15.3702 19.245 12.2711L19.25 12.0045V11.2685C19.25 10.8543 19.5858 10.5185 20 10.5185C20.3797 10.5185 20.6935 10.8007 20.7432 11.1668L20.75 11.2685V12.0049C20.7478 15.8798 18.197 19.2917 14.4809 20.3903C10.7649 21.489 6.76877 20.0127 4.65964 16.7621C2.5505 13.5114 2.8308 9.26076 5.34855 6.31519Z" fill="#965EFF"/>
<path d="M19.4594 5.48017C19.7465 5.18159 20.2213 5.17228 20.5198 5.45938C20.7913 5.72037 20.8236 6.13648 20.6116 6.43431L20.5406 6.51983L12.8483 14.5198C12.5801 14.7987 12.1501 14.8242 11.8524 14.5961L11.7673 14.5201L9.45964 12.1225C9.17239 11.8241 9.18146 11.3493 9.4799 11.062C9.7512 10.8009 10.1683 10.7847 10.4577 11.0081L10.5404 11.0823L12.308 12.918L19.4594 5.48017Z" fill="#965EFF"/>
</svg>
