<svg width="14" height="18" viewBox="0 0 14 18" fill="none" xmlns="http://www.w3.org/2000/svg">
<path fill-rule="evenodd" clip-rule="evenodd" d="M2.6665 0.375H9.6665C9.84118 0.375 10.0079 0.448097 10.1262 0.576578L13.6262 4.37658C13.7325 4.49197 13.7915 4.64312 13.7915 4.8V15.4C13.7915 16.6201 12.8494 17.625 11.6665 17.625H2.6665C1.48356 17.625 0.541504 16.6201 0.541504 15.4V2.6C0.541504 1.37986 1.48356 0.375 2.6665 0.375ZM12.5408 5.044L9.39184 1.625H2.6665C2.19259 1.625 1.7915 2.05283 1.7915 2.6V15.4C1.7915 15.9472 2.19259 16.375 2.6665 16.375H11.6665C12.1404 16.375 12.5415 15.9472 12.5415 15.4L12.5408 5.044Z" fill="white"/>
<path d="M9.1665 0.375C9.4803 0.375 9.74009 0.606258 9.78473 0.907642L9.7915 1L9.79084 4.375H13.1665C13.4803 4.375 13.7401 4.60626 13.7847 4.90764L13.7915 5C13.7915 5.3138 13.5602 5.57358 13.2589 5.61822L13.1665 5.625H9.1665C8.85271 5.625 8.59292 5.39374 8.54828 5.09236L8.5415 5V1C8.5415 0.654822 8.82133 0.375 9.1665 0.375Z" fill="white"/>
<path d="M6.1665 5.875C6.51168 5.875 6.7915 6.15482 6.7915 6.5C6.7915 6.8138 6.56025 7.07358 6.25886 7.11822L6.1665 7.125H4.1665C3.82133 7.125 3.5415 6.84518 3.5415 6.5C3.5415 6.1862 3.77276 5.92642 4.07415 5.88178L4.1665 5.875H6.1665Z" fill="white"/>
<path d="M10.1665 8.875C10.5117 8.875 10.7915 9.15482 10.7915 9.5C10.7915 9.8138 10.5602 10.0736 10.2589 10.1182L10.1665 10.125H4.1665C3.82133 10.125 3.5415 9.84518 3.5415 9.5C3.5415 9.1862 3.77276 8.92642 4.07415 8.88178L4.1665 8.875H10.1665Z" fill="white"/>
<path d="M10.1665 12.875C10.5117 12.875 10.7915 13.1548 10.7915 13.5C10.7915 13.8138 10.5602 14.0736 10.2589 14.1182L10.1665 14.125H4.1665C3.82133 14.125 3.5415 13.8452 3.5415 13.5C3.5415 13.1862 3.77276 12.9264 4.07415 12.8818L4.1665 12.875H10.1665Z" fill="white"/>
</svg>
