<svg width="20" height="20" viewBox="0 0 20 20" fill="none" xmlns="http://www.w3.org/2000/svg">
<path d="M8.33333 12.4997H9.08333C9.08333 12.3008 9.00432 12.11 8.86366 11.9693L8.33333 12.4997ZM11.6667 12.4997L11.1363 11.9693C10.9957 12.11 10.9167 12.3008 10.9167 12.4997H11.6667ZM16.7678 7.39857L16.2374 6.86824L16.7678 7.39857ZM16.75 2.91634C16.75 2.81337 16.8171 2.89139 16.4989 3.10037C16.2112 3.28931 15.7454 3.48828 15.1026 3.66684C13.8275 4.02103 12.0232 4.24967 10 4.24967V5.74967C12.1189 5.74967 14.0647 5.51195 15.504 5.11212C16.2185 4.91367 16.851 4.66372 17.3223 4.35416C17.7631 4.06466 18.25 3.5946 18.25 2.91634H16.75ZM10 4.24967C7.97681 4.24967 6.17251 4.02103 4.89743 3.66684C4.25462 3.48828 3.78878 3.28931 3.50109 3.10037C3.18288 2.89139 3.25 2.81337 3.25 2.91634H1.75C1.75 3.5946 2.23686 4.06466 2.67768 4.35416C3.14904 4.66372 3.78155 4.91367 4.49597 5.11212C5.93535 5.51195 7.88105 5.74967 10 5.74967V4.24967ZM3.25 2.91634C3.25 3.01931 3.18288 2.94129 3.50109 2.73231C3.78878 2.54338 4.25462 2.3444 4.89743 2.16584C6.17251 1.81165 7.97681 1.58301 10 1.58301V0.0830078C7.88105 0.0830078 5.93535 0.320735 4.49597 0.720564C3.78155 0.919013 3.14904 1.16896 2.67768 1.47852C2.23686 1.76803 1.75 2.23808 1.75 2.91634H3.25ZM10 1.58301C12.0232 1.58301 13.8275 1.81165 15.1026 2.16584C15.7454 2.3444 16.2112 2.54338 16.4989 2.73231C16.8171 2.94129 16.75 3.01931 16.75 2.91634H18.25C18.25 2.23808 17.7631 1.76803 17.3223 1.47852C16.851 1.16896 16.2185 0.919013 15.504 0.720564C14.0647 0.320735 12.1189 0.0830078 10 0.0830078V1.58301ZM1.75 2.91634V5.63081H3.25V2.91634H1.75ZM2.7019 7.9289L7.803 13.03L8.86366 11.9693L3.76256 6.86824L2.7019 7.9289ZM7.58333 12.4997V17.4997H9.08333V12.4997H7.58333ZM12.4167 17.4997V12.4997H10.9167V17.4997H12.4167ZM12.197 13.03L17.2981 7.9289L16.2374 6.86824L11.1363 11.9693L12.197 13.03ZM18.25 5.63081V2.91634H16.75V5.63081H18.25ZM10 19.9163C11.3347 19.9163 12.4167 18.8344 12.4167 17.4997H10.9167C10.9167 18.0059 10.5063 18.4163 10 18.4163V19.9163ZM7.58333 17.4997C7.58333 18.8344 8.66531 19.9163 10 19.9163V18.4163C9.49374 18.4163 9.08333 18.0059 9.08333 17.4997H7.58333ZM17.2981 7.9289C17.9076 7.31941 18.25 6.49276 18.25 5.63081H16.75C16.75 6.09494 16.5656 6.54005 16.2374 6.86824L17.2981 7.9289ZM1.75 5.63081C1.75 6.49276 2.09241 7.31941 2.7019 7.9289L3.76256 6.86824C3.43437 6.54005 3.25 6.09494 3.25 5.63081H1.75Z" fill="white"/>
</svg>
