<svg width="131" height="131" viewBox="0 0 131 131" fill="none" xmlns="http://www.w3.org/2000/svg">
<path fill-rule="evenodd" clip-rule="evenodd" d="M65.5 9.55176C47.1602 9.55176 30.7021 17.5866 19.4443 30.3416C17.9482 32.0367 15.3612 32.198 13.6661 30.7019C11.971 29.2058 11.8097 26.6188 13.3058 24.9237C26.0519 10.4824 44.7137 1.36426 65.5 1.36426C86.2864 1.36426 104.948 10.4824 117.694 24.9237C119.19 26.6188 119.029 29.2058 117.334 30.7019C115.639 32.198 113.052 32.0367 111.556 30.3416C100.298 17.5866 83.8399 9.55176 65.5 9.55176ZM65.5 31.3851C43.6445 31.3851 25.9271 49.1025 25.9271 70.958C25.9271 91.1957 34.2341 109.486 47.6347 122.617C49.2495 124.2 49.2758 126.792 47.6934 128.407C46.111 130.021 43.5191 130.048 41.9043 128.465C26.9969 113.857 17.7396 93.485 17.7396 70.958C17.7396 44.5807 39.1227 23.1976 65.5 23.1976C67.761 23.1976 69.5938 25.0304 69.5938 27.2913C69.5938 29.5523 67.761 31.3851 65.5 31.3851ZM83.7898 31.0833C84.9219 29.1263 87.4262 28.4575 89.3832 29.5896C103.648 37.8414 113.26 53.2748 113.26 70.958C113.26 79.248 106.54 85.9684 98.25 85.9684C89.96 85.9684 83.2396 79.248 83.2396 70.958C83.2396 61.1607 75.2973 53.2184 65.5 53.2184C60.9983 53.2184 56.8969 54.8899 53.7672 57.6522C52.0721 59.1484 49.4851 58.9871 47.989 57.292C46.4929 55.5969 46.6542 53.0099 48.3493 51.5138C52.9173 47.4819 58.9274 45.0309 65.5 45.0309C79.8192 45.0309 91.4271 56.6389 91.4271 70.958C91.4271 74.7262 94.4818 77.7809 98.25 77.7809C102.018 77.7809 105.073 74.7262 105.073 70.958C105.073 56.3156 97.1226 43.5253 85.2835 36.6767C83.3265 35.5446 82.6577 33.0404 83.7898 31.0833ZM65.5 66.8643C67.761 66.8643 69.5938 68.6971 69.5938 70.958C69.5938 86.7844 82.4236 99.6143 98.25 99.6143C99.8819 99.6143 101.479 99.4783 103.031 99.2179C105.261 98.8438 107.372 100.348 107.746 102.578C108.12 104.808 106.615 106.918 104.386 107.293C102.388 107.628 100.338 107.802 98.25 107.802C77.9018 107.802 61.4063 91.3062 61.4063 70.958C61.4063 68.6971 63.2391 66.8643 65.5 66.8643ZM43.5318 72.3426C45.7816 72.1192 47.7866 73.762 48.0099 76.0119C50.3776 99.8583 69.3498 118.83 93.1962 121.198C95.446 121.421 97.0888 123.426 96.8654 125.676C96.6421 127.926 94.6371 129.569 92.3872 129.346C64.6588 126.592 42.6156 104.549 39.8625 76.8208C39.6391 74.5709 41.2819 72.566 43.5318 72.3426Z" fill="#0D3662"/>
</svg>
