<svg width="24" height="24" viewBox="0 0 24 24" fill="none" xmlns="http://www.w3.org/2000/svg">
<path fill-rule="evenodd" clip-rule="evenodd" d="M23.875 6C23.875 4.41218 22.5878 3.125 21 3.125L2.99626 3.12506L2.82873 3.13007C1.31216 3.22115 0.125 4.47738 0.125 6V19C0.125 20.5878 1.41218 21.875 3 21.875H21C22.5878 21.875 23.875 20.5878 23.875 19V6ZM3 4.875H21L21.1226 4.8816C21.6862 4.94268 22.125 5.4201 22.125 6V19L22.1184 19.1226C22.0573 19.6862 21.5799 20.125 21 20.125H3L2.87742 20.1184C2.31376 20.0573 1.875 19.5799 1.875 19V6L1.8816 5.87742C1.94268 5.31376 2.4201 4.875 3 4.875Z" fill="#0D3662"/>
<path fill-rule="evenodd" clip-rule="evenodd" d="M8.875 9.5C8.875 8.18832 7.81168 7.125 6.5 7.125C5.18832 7.125 4.125 8.18832 4.125 9.5C4.125 10.8117 5.18832 11.875 6.5 11.875C7.81168 11.875 8.875 10.8117 8.875 9.5ZM5.875 9.5C5.875 9.15482 6.15482 8.875 6.5 8.875C6.84518 8.875 7.125 9.15482 7.125 9.5C7.125 9.84518 6.84518 10.125 6.5 10.125C6.15482 10.125 5.875 9.84518 5.875 9.5Z" fill="#0D3662"/>
<path d="M22.3813 15.6187C22.723 15.9604 23.277 15.9604 23.6187 15.6187C23.9604 15.277 23.9604 14.723 23.6187 14.3813L18.6187 9.38128C18.277 9.03957 17.723 9.03957 17.3813 9.38128L6.38128 20.3813C6.03957 20.723 6.03957 21.277 6.38128 21.6187C6.72299 21.9604 7.27701 21.9604 7.61872 21.6187L18 11.2374L22.3813 15.6187Z" fill="#0D3662"/>
</svg>
