<svg width="24" height="24" viewBox="0 0 24 24" fill="none" xmlns="http://www.w3.org/2000/svg">
<path fill-rule="evenodd" clip-rule="evenodd" d="M12.9787 10.8474L22.0924 16.051C22.635 16.323 23 16.8344 23 17.4209C23 18.2932 22.1914 19 21.1933 19H21.1392H3.86143H3.80739C2.80931 19 2 18.2932 2 17.4209C2 16.8344 2.36571 16.323 2.90828 16.051L12.0205 10.8474L12.0213 9.66655V9.50419C12.0339 9.49973 12.7618 9.28098 12.7618 9.28098C13.39 9.12961 13.9045 8.87529 14.2505 8.54546C14.5467 8.26314 14.6962 7.94284 14.6962 7.59354C14.6962 6.67821 13.9318 5.93345 12.992 5.93345C12.5042 5.93345 12.036 6.12521 11.7089 6.45981C11.5321 6.64028 11.3306 6.92977 11.2892 7.33345C11.2892 7.59118 11.0744 7.8 10.8098 7.8C10.5452 7.8 10.3304 7.59118 10.3311 7.32593C10.3311 7.30541 10.3332 7.28489 10.3367 7.26507C10.4532 5.96797 11.6339 5 12.992 5C14.4625 5 15.655 6.16108 15.655 7.59354C15.655 8.83631 14.5854 9.80292 12.992 10.1871C12.9891 10.1877 12.9864 10.1884 12.9839 10.1891C12.9821 10.1896 12.9804 10.1901 12.9787 10.1905V10.8474ZM21.1392 18.0662H21.1933C21.6531 18.0662 22.0419 17.7709 22.042 17.4209C22.042 17.2049 21.8967 17.0025 21.6447 16.8754L12.4993 11.6565L3.3561 16.8754L3.34766 16.8795C3.10409 17.0026 2.95881 17.2049 2.95881 17.4209C2.95881 17.7709 3.3477 18.0662 3.80743 18.0662H3.86147H21.1392Z" fill="#0D3662"/>
<path d="M22.0924 16.051L21.9683 16.2684L21.9804 16.2745L22.0924 16.051ZM12.9787 10.8474H12.7287V10.9926L12.8547 11.0646L12.9787 10.8474ZM2.90828 16.051L3.02049 16.2748L3.03225 16.2681L2.90828 16.051ZM12.0205 10.8474L12.1445 11.0645L12.2705 10.9926L12.2705 10.8476L12.0205 10.8474ZM12.0213 9.66655L12.2713 9.6667V9.66655H12.0213ZM12.0213 9.50419L11.9379 9.26849L11.7713 9.32742V9.50419H12.0213ZM12.7618 9.28098L12.7031 9.03756L12.6898 9.04156L12.7618 9.28098ZM14.2505 8.54546L14.078 8.36449L14.078 8.36449L14.2505 8.54546ZM11.7089 6.45981L11.8875 6.63479L11.8877 6.63456L11.7089 6.45981ZM11.2892 7.33345L11.0405 7.30796L11.0392 7.32067V7.33345H11.2892ZM10.3311 7.32593L10.5811 7.3266V7.32593H10.3311ZM10.3367 7.26507L10.5829 7.30859L10.5848 7.29807L10.5857 7.28743L10.3367 7.26507ZM12.992 10.1871L13.0424 10.4321L13.0506 10.4301L12.992 10.1871ZM12.9839 10.1891L12.9174 9.94814L12.9173 9.94815L12.9839 10.1891ZM12.9787 10.1905L12.9207 9.94732L12.7287 9.9931V10.1905H12.9787ZM22.042 17.4209L22.292 17.4209V17.4209H22.042ZM21.6447 16.8754L21.5206 17.0928L21.5321 17.0986L21.6447 16.8754ZM12.4993 11.6565L12.6232 11.4394L12.4993 11.3687L12.3754 11.4394L12.4993 11.6565ZM3.3561 16.8754L3.46462 17.1006L3.47247 17.0968L3.48003 17.0925L3.3561 16.8754ZM3.34766 16.8795L3.23912 16.6542L3.23491 16.6563L3.34766 16.8795ZM22.2164 15.8339L13.1026 10.6303L12.8547 11.0646L21.9685 16.2681L22.2164 15.8339ZM23.25 17.4209C23.25 16.724 22.8165 16.1344 22.2045 15.8275L21.9804 16.2745C22.4535 16.5117 22.75 16.9448 22.75 17.4209H23.25ZM21.1933 19.25C22.2968 19.25 23.25 18.4618 23.25 17.4209H22.75C22.75 18.1246 22.086 18.75 21.1933 18.75V19.25ZM21.1392 19.25H21.1933V18.75H21.1392V19.25ZM3.86143 19.25H21.1392V18.75H3.86143V19.25ZM3.80739 19.25H3.86143V18.75H3.80739V19.25ZM1.75 17.4209C1.75 18.4619 2.70404 19.25 3.80739 19.25V18.75C2.91458 18.75 2.25 18.1244 2.25 17.4209H1.75ZM2.79622 15.8275C2.18439 16.1343 1.75 16.7238 1.75 17.4209H2.25C2.25 16.9449 2.54703 16.5118 3.02033 16.2745L2.79622 15.8275ZM11.8966 10.6304L2.7843 15.8339L3.03225 16.2681L12.1445 11.0645L11.8966 10.6304ZM11.7713 9.6664L11.7705 10.8473L12.2705 10.8476L12.2713 9.6667L11.7713 9.6664ZM11.7713 9.50419V9.66655H12.2713V9.50419H11.7713ZM12.7618 9.28098C12.6898 9.04156 12.6898 9.04156 12.6898 9.04156C12.6898 9.04156 12.6898 9.04157 12.6898 9.04157C12.6897 9.04158 12.6897 9.04159 12.6897 9.0416C12.6896 9.04163 12.6895 9.04167 12.6893 9.04172C12.6889 9.04182 12.6884 9.04198 12.6877 9.04219C12.6863 9.0426 12.6843 9.04322 12.6816 9.04402C12.6763 9.04562 12.6685 9.04798 12.6585 9.05097C12.6386 9.05696 12.6101 9.06553 12.5758 9.07582C12.5074 9.0964 12.416 9.12389 12.3242 9.15152C12.1477 9.20464 11.9517 9.26362 11.9379 9.26849L12.1046 9.7399C12.1035 9.7403 12.2777 9.68768 12.4683 9.63031C12.56 9.60269 12.6514 9.57522 12.7198 9.55464C12.754 9.54435 12.7825 9.53579 12.8024 9.52981C12.8124 9.52681 12.8202 9.52446 12.8255 9.52286C12.8282 9.52206 12.8303 9.52144 12.8316 9.52103C12.8323 9.52082 12.8328 9.52067 12.8332 9.52056C12.8334 9.52051 12.8335 9.52047 12.8336 9.52044C12.8336 9.52043 12.8337 9.52042 12.8337 9.52041C12.8337 9.52041 12.8337 9.52041 12.8337 9.5204C12.8337 9.5204 12.8337 9.5204 12.7618 9.28098ZM14.078 8.36449C13.7731 8.65515 13.3031 8.89339 12.7032 9.03794L12.8203 9.52402C13.4769 9.36582 14.0359 9.09542 14.423 8.72642L14.078 8.36449ZM14.4462 7.59354C14.4462 7.86299 14.3337 8.1208 14.078 8.36449L14.423 8.72643C14.7597 8.40547 14.9462 8.0227 14.9462 7.59354H14.4462ZM12.992 6.18345C13.8 6.18345 14.4462 6.82241 14.4462 7.59354H14.9462C14.9462 6.53401 14.0637 5.68345 12.992 5.68345V6.18345ZM11.8877 6.63456C12.1654 6.35044 12.5681 6.18345 12.992 6.18345V5.68345C12.4403 5.68345 11.9066 5.89997 11.5302 6.28505L11.8877 6.63456ZM11.5379 7.35894C11.5718 7.02844 11.7365 6.78884 11.8875 6.63479L11.5304 6.28483C11.3276 6.49171 11.0894 6.8311 11.0405 7.30796L11.5379 7.35894ZM10.8098 8.05C11.206 8.05 11.5392 7.73568 11.5392 7.33345H11.0392C11.0392 7.44668 10.9429 7.55 10.8098 7.55V8.05ZM10.0811 7.32525C10.08 7.73308 10.4111 8.05 10.8098 8.05V7.55C10.6792 7.55 10.5808 7.44928 10.5811 7.3266L10.0811 7.32525ZM10.0906 7.22155C10.085 7.25327 10.0811 7.28851 10.0811 7.32593H10.5811C10.5811 7.3223 10.5815 7.3165 10.5829 7.30859L10.0906 7.22155ZM12.992 4.75C11.5231 4.75 10.2174 5.799 10.0877 7.24271L10.5857 7.28743C10.6891 6.13694 11.7447 5.25 12.992 5.25V4.75ZM15.905 7.59354C15.905 6.0168 14.5943 4.75 12.992 4.75V5.25C14.3307 5.25 15.405 6.30536 15.405 7.59354H15.905ZM13.0506 10.4301C14.6926 10.0342 15.905 9.00641 15.905 7.59354H15.405C15.405 8.6662 14.4781 9.57162 12.9334 9.94405L13.0506 10.4301ZM13.0503 10.4301C13.0519 10.4297 13.0512 10.4299 13.05 10.4302C13.0486 10.4306 13.0459 10.4312 13.0423 10.432L12.9417 9.9422C12.9295 9.94472 12.9191 9.94766 12.9174 9.94814L13.0503 10.4301ZM13.0367 10.4337C13.0434 10.4321 13.0494 10.4304 13.0504 10.4301L12.9173 9.94815C12.9148 9.94885 12.9174 9.94811 12.9207 9.94732L13.0367 10.4337ZM13.2287 10.8474V10.1905H12.7287V10.8474H13.2287ZM21.1933 17.8162H21.1392V18.3162H21.1933V17.8162ZM21.792 17.4209C21.7919 17.4982 21.7487 17.5922 21.6387 17.6758C21.5298 17.7586 21.3714 17.8162 21.1933 17.8162V18.3162C21.4749 18.3162 21.7409 18.2262 21.9413 18.0738C22.1408 17.9222 22.2919 17.6936 22.292 17.4209L21.792 17.4209ZM21.5321 17.0986C21.7279 17.1974 21.792 17.3271 21.792 17.4209H22.292C22.292 17.0827 22.0654 16.8076 21.7572 16.6522L21.5321 17.0986ZM12.3754 11.8737L21.5208 17.0925L21.7686 16.6583L12.6232 11.4394L12.3754 11.8737ZM3.48003 17.0925L12.6233 11.8736L12.3754 11.4394L3.23217 16.6583L3.48003 17.0925ZM3.45618 17.1047L3.46462 17.1006L3.24758 16.6502L3.23914 16.6543L3.45618 17.1047ZM3.20881 17.4209C3.20881 17.3254 3.27466 17.1965 3.4604 17.1026L3.23491 16.6563C2.93352 16.8086 2.70881 17.0843 2.70881 17.4209H3.20881ZM3.80743 17.8162C3.62932 17.8162 3.47095 17.7586 3.36201 17.6758C3.25209 17.5922 3.20881 17.4982 3.20881 17.4209H2.70881C2.70881 17.6936 2.85998 17.9222 3.05944 18.0738C3.25987 18.2262 3.52581 18.3162 3.80743 18.3162V17.8162ZM3.86147 17.8162H3.80743V18.3162H3.86147V17.8162ZM21.1392 17.8162H3.86147V18.3162H21.1392V17.8162Z" fill="#0D3662"/>
<path fill-rule="evenodd" clip-rule="evenodd" d="M12.9787 10.8474L22.0924 16.051C22.635 16.323 23 16.8344 23 17.4209C23 18.2932 22.1914 19 21.1933 19H21.1392H3.86143H3.80739C2.80931 19 2 18.2932 2 17.4209C2 16.8344 2.36571 16.323 2.90828 16.051L12.0205 10.8474L12.0213 9.66655V9.50419C12.0339 9.49973 12.7618 9.28098 12.7618 9.28098C13.39 9.12961 13.9045 8.87529 14.2505 8.54546C14.5467 8.26314 14.6962 7.94284 14.6962 7.59354C14.6962 6.67821 13.9318 5.93345 12.992 5.93345C12.5042 5.93345 12.036 6.12521 11.7089 6.45981C11.5321 6.64028 11.3306 6.92977 11.2892 7.33345C11.2892 7.59118 11.0744 7.8 10.8098 7.8C10.5452 7.8 10.3304 7.59118 10.3311 7.32593C10.3311 7.30541 10.3332 7.28489 10.3367 7.26507C10.4532 5.96797 11.6339 5 12.992 5C14.4625 5 15.655 6.16108 15.655 7.59354C15.655 8.83631 14.5854 9.80292 12.992 10.1871C12.9891 10.1877 12.9864 10.1884 12.9839 10.1891C12.9821 10.1896 12.9804 10.1901 12.9787 10.1905V10.8474ZM21.1392 18.0662H21.1933C21.6531 18.0662 22.0419 17.7709 22.042 17.4209C22.042 17.2049 21.8967 17.0025 21.6447 16.8754L12.4993 11.6565L3.3561 16.8754L3.34766 16.8795C3.10409 17.0026 2.95881 17.2049 2.95881 17.4209C2.95881 17.7709 3.3477 18.0662 3.80743 18.0662H3.86147H21.1392Z" fill="#0D3662"/>
<path d="M22.0924 16.051L21.9683 16.2684L21.9804 16.2745L22.0924 16.051ZM12.9787 10.8474H12.7287V10.9926L12.8547 11.0646L12.9787 10.8474ZM2.90828 16.051L3.02049 16.2748L3.03225 16.2681L2.90828 16.051ZM12.0205 10.8474L12.1445 11.0645L12.2705 10.9926L12.2705 10.8476L12.0205 10.8474ZM12.0213 9.66655L12.2713 9.6667V9.66655H12.0213ZM12.0213 9.50419L11.9379 9.26849L11.7713 9.32742V9.50419H12.0213ZM12.7618 9.28098L12.7031 9.03756L12.6898 9.04156L12.7618 9.28098ZM14.2505 8.54546L14.078 8.36449L14.078 8.36449L14.2505 8.54546ZM11.7089 6.45981L11.8875 6.63479L11.8877 6.63456L11.7089 6.45981ZM11.2892 7.33345L11.0405 7.30796L11.0392 7.32067V7.33345H11.2892ZM10.3311 7.32593L10.5811 7.3266V7.32593H10.3311ZM10.3367 7.26507L10.5829 7.30859L10.5848 7.29807L10.5857 7.28743L10.3367 7.26507ZM12.992 10.1871L13.0424 10.4321L13.0506 10.4301L12.992 10.1871ZM12.9839 10.1891L12.9174 9.94814L12.9173 9.94815L12.9839 10.1891ZM12.9787 10.1905L12.9207 9.94732L12.7287 9.9931V10.1905H12.9787ZM22.042 17.4209L22.292 17.4209V17.4209H22.042ZM21.6447 16.8754L21.5206 17.0928L21.5321 17.0986L21.6447 16.8754ZM12.4993 11.6565L12.6232 11.4394L12.4993 11.3687L12.3754 11.4394L12.4993 11.6565ZM3.3561 16.8754L3.46462 17.1006L3.47247 17.0968L3.48003 17.0925L3.3561 16.8754ZM3.34766 16.8795L3.23912 16.6542L3.23491 16.6563L3.34766 16.8795ZM22.2164 15.8339L13.1026 10.6303L12.8547 11.0646L21.9685 16.2681L22.2164 15.8339ZM23.25 17.4209C23.25 16.724 22.8165 16.1344 22.2045 15.8275L21.9804 16.2745C22.4535 16.5117 22.75 16.9448 22.75 17.4209H23.25ZM21.1933 19.25C22.2968 19.25 23.25 18.4618 23.25 17.4209H22.75C22.75 18.1246 22.086 18.75 21.1933 18.75V19.25ZM21.1392 19.25H21.1933V18.75H21.1392V19.25ZM3.86143 19.25H21.1392V18.75H3.86143V19.25ZM3.80739 19.25H3.86143V18.75H3.80739V19.25ZM1.75 17.4209C1.75 18.4619 2.70404 19.25 3.80739 19.25V18.75C2.91458 18.75 2.25 18.1244 2.25 17.4209H1.75ZM2.79622 15.8275C2.18439 16.1343 1.75 16.7238 1.75 17.4209H2.25C2.25 16.9449 2.54703 16.5118 3.02033 16.2745L2.79622 15.8275ZM11.8966 10.6304L2.7843 15.8339L3.03225 16.2681L12.1445 11.0645L11.8966 10.6304ZM11.7713 9.6664L11.7705 10.8473L12.2705 10.8476L12.2713 9.6667L11.7713 9.6664ZM11.7713 9.50419V9.66655H12.2713V9.50419H11.7713ZM12.7618 9.28098C12.6898 9.04156 12.6898 9.04156 12.6898 9.04156C12.6898 9.04156 12.6898 9.04157 12.6898 9.04157C12.6897 9.04158 12.6897 9.04159 12.6897 9.0416C12.6896 9.04163 12.6895 9.04167 12.6893 9.04172C12.6889 9.04182 12.6884 9.04198 12.6877 9.04219C12.6863 9.0426 12.6843 9.04322 12.6816 9.04402C12.6763 9.04562 12.6685 9.04798 12.6585 9.05097C12.6386 9.05696 12.6101 9.06553 12.5758 9.07582C12.5074 9.0964 12.416 9.12389 12.3242 9.15152C12.1477 9.20464 11.9517 9.26362 11.9379 9.26849L12.1046 9.7399C12.1035 9.7403 12.2777 9.68768 12.4683 9.63031C12.56 9.60269 12.6514 9.57522 12.7198 9.55464C12.754 9.54435 12.7825 9.53579 12.8024 9.52981C12.8124 9.52681 12.8202 9.52446 12.8255 9.52286C12.8282 9.52206 12.8303 9.52144 12.8316 9.52103C12.8323 9.52082 12.8328 9.52067 12.8332 9.52056C12.8334 9.52051 12.8335 9.52047 12.8336 9.52044C12.8336 9.52043 12.8337 9.52042 12.8337 9.52041C12.8337 9.52041 12.8337 9.52041 12.8337 9.5204C12.8337 9.5204 12.8337 9.5204 12.7618 9.28098ZM14.078 8.36449C13.7731 8.65515 13.3031 8.89339 12.7032 9.03794L12.8203 9.52402C13.4769 9.36582 14.0359 9.09542 14.423 8.72642L14.078 8.36449ZM14.4462 7.59354C14.4462 7.86299 14.3337 8.1208 14.078 8.36449L14.423 8.72643C14.7597 8.40547 14.9462 8.0227 14.9462 7.59354H14.4462ZM12.992 6.18345C13.8 6.18345 14.4462 6.82241 14.4462 7.59354H14.9462C14.9462 6.53401 14.0637 5.68345 12.992 5.68345V6.18345ZM11.8877 6.63456C12.1654 6.35044 12.5681 6.18345 12.992 6.18345V5.68345C12.4403 5.68345 11.9066 5.89997 11.5302 6.28505L11.8877 6.63456ZM11.5379 7.35894C11.5718 7.02844 11.7365 6.78884 11.8875 6.63479L11.5304 6.28483C11.3276 6.49171 11.0894 6.8311 11.0405 7.30796L11.5379 7.35894ZM10.8098 8.05C11.206 8.05 11.5392 7.73568 11.5392 7.33345H11.0392C11.0392 7.44668 10.9429 7.55 10.8098 7.55V8.05ZM10.0811 7.32525C10.08 7.73308 10.4111 8.05 10.8098 8.05V7.55C10.6792 7.55 10.5808 7.44928 10.5811 7.3266L10.0811 7.32525ZM10.0906 7.22155C10.085 7.25327 10.0811 7.28851 10.0811 7.32593H10.5811C10.5811 7.3223 10.5815 7.3165 10.5829 7.30859L10.0906 7.22155ZM12.992 4.75C11.5231 4.75 10.2174 5.799 10.0877 7.24271L10.5857 7.28743C10.6891 6.13694 11.7447 5.25 12.992 5.25V4.75ZM15.905 7.59354C15.905 6.0168 14.5943 4.75 12.992 4.75V5.25C14.3307 5.25 15.405 6.30536 15.405 7.59354H15.905ZM13.0506 10.4301C14.6926 10.0342 15.905 9.00641 15.905 7.59354H15.405C15.405 8.6662 14.4781 9.57162 12.9334 9.94405L13.0506 10.4301ZM13.0503 10.4301C13.0519 10.4297 13.0512 10.4299 13.05 10.4302C13.0486 10.4306 13.0459 10.4312 13.0423 10.432L12.9417 9.9422C12.9295 9.94472 12.9191 9.94766 12.9174 9.94814L13.0503 10.4301ZM13.0367 10.4337C13.0434 10.4321 13.0494 10.4304 13.0504 10.4301L12.9173 9.94815C12.9148 9.94885 12.9174 9.94811 12.9207 9.94732L13.0367 10.4337ZM13.2287 10.8474V10.1905H12.7287V10.8474H13.2287ZM21.1933 17.8162H21.1392V18.3162H21.1933V17.8162ZM21.792 17.4209C21.7919 17.4982 21.7487 17.5922 21.6387 17.6758C21.5298 17.7586 21.3714 17.8162 21.1933 17.8162V18.3162C21.4749 18.3162 21.7409 18.2262 21.9413 18.0738C22.1408 17.9222 22.2919 17.6936 22.292 17.4209L21.792 17.4209ZM21.5321 17.0986C21.7279 17.1974 21.792 17.3271 21.792 17.4209H22.292C22.292 17.0827 22.0654 16.8076 21.7572 16.6522L21.5321 17.0986ZM12.3754 11.8737L21.5208 17.0925L21.7686 16.6583L12.6232 11.4394L12.3754 11.8737ZM3.48003 17.0925L12.6233 11.8736L12.3754 11.4394L3.23217 16.6583L3.48003 17.0925ZM3.45618 17.1047L3.46462 17.1006L3.24758 16.6502L3.23914 16.6543L3.45618 17.1047ZM3.20881 17.4209C3.20881 17.3254 3.27466 17.1965 3.4604 17.1026L3.23491 16.6563C2.93352 16.8086 2.70881 17.0843 2.70881 17.4209H3.20881ZM3.80743 17.8162C3.62932 17.8162 3.47095 17.7586 3.36201 17.6758C3.25209 17.5922 3.20881 17.4982 3.20881 17.4209H2.70881C2.70881 17.6936 2.85998 17.9222 3.05944 18.0738C3.25987 18.2262 3.52581 18.3162 3.80743 18.3162V17.8162ZM3.86147 17.8162H3.80743V18.3162H3.86147V17.8162ZM21.1392 17.8162H3.86147V18.3162H21.1392V17.8162Z" fill="#0D3662"/>
</svg>
