<svg width="15" height="14" viewBox="0 0 15 14" fill="none" xmlns="http://www.w3.org/2000/svg">
<path fill-rule="evenodd" clip-rule="evenodd" d="M7.72647 2.19317C8.43476 1.47631 9.37962 1.05225 10.3764 0.998895L10.5908 0.993164C11.6657 0.993164 12.6962 1.4251 13.4548 2.19296C14.2127 2.9593 14.6381 3.99793 14.6381 5.0805C14.6381 6.16308 14.2127 7.2017 13.4549 7.96794L7.93494 13.5522C7.69544 13.7944 7.30417 13.7944 7.06467 13.5522L1.54467 7.96794C-0.0324688 6.37245 -0.0324686 3.78855 1.54467 2.19307C3.1257 0.593647 5.69201 0.593647 7.27304 2.19307L7.49916 2.42161L7.72647 2.19317ZM12.4092 3.23677C11.8981 2.71407 11.2057 2.4208 10.4842 2.4208C9.76263 2.4208 9.07022 2.71407 8.55902 3.23687L7.91994 3.89014C7.6887 4.12651 7.31092 4.12651 7.07968 3.89014L6.44061 3.23687C5.37658 2.14921 3.65431 2.14921 2.59028 3.23687C1.5225 4.32836 1.5225 6.10085 2.59028 7.19234L7.49997 12.2103L12.4094 7.19224C12.9221 6.66845 13.2105 5.95695 13.2105 5.21461C13.2105 4.47226 12.9221 3.76076 12.4092 3.23677Z" fill="#0D3662"/>
</svg>
