<svg width="26" height="26" viewBox="0 0 26 26" fill="none" xmlns="http://www.w3.org/2000/svg">
<path fill-rule="evenodd" clip-rule="evenodd" d="M19.7707 3.49529C19.7707 2.92931 19.0864 2.64586 18.6862 3.04607C16.0146 5.71759 13.4051 7.31251 9.4694 7.31251H4.33317C3.58529 7.31251 2.979 7.91879 2.979 8.66668V13C2.979 13.7479 3.58529 14.3542 4.33317 14.3542H9.4694C9.56925 14.3542 9.66837 14.3552 9.76676 14.3573C13.5417 14.4359 16.0865 16.021 18.6862 18.6206C19.0864 19.0208 19.7707 18.7374 19.7707 18.1714V3.49529ZM17.5371 1.89702C18.961 0.473119 21.3957 1.48159 21.3957 3.49529V7.85418H21.6665C23.3119 7.85418 24.6457 9.188 24.6457 10.8333C24.6457 12.4787 23.3119 13.8125 21.6665 13.8125H21.3957V18.1714C21.3957 20.1851 18.961 21.1936 17.5371 19.7697C15.3924 17.625 13.4486 16.3641 10.8087 16.0545L12.0516 21.0244C12.5116 22.8638 11.1204 24.6458 9.22426 24.6458C7.88695 24.6458 6.72125 23.7357 6.39691 22.4383L4.78212 15.9792H4.33317C2.68782 15.9792 1.354 14.6454 1.354 13V8.66668C1.354 7.02133 2.68782 5.68751 4.33317 5.68751H9.4694C12.8293 5.68751 15.0499 4.38427 17.5371 1.89702ZM6.45714 15.9792L7.97339 22.0442C8.11688 22.6182 8.63261 23.0208 9.22426 23.0208C10.0631 23.0208 10.6786 22.2324 10.4751 21.4186L9.11478 15.9792H6.45714ZM21.3957 12.1875H21.6665C22.4144 12.1875 23.0207 11.5812 23.0207 10.8333C23.0207 10.0855 22.4144 9.47918 21.6665 9.47918H21.3957V12.1875Z" fill="white"/>
</svg>
