<svg width="27" height="24" viewBox="0 0 27 24" fill="none" xmlns="http://www.w3.org/2000/svg">
<path d="M11.1091 4.25C11.5673 4.25 11.9387 4.58579 11.9387 5C11.9387 5.3797 11.6266 5.69349 11.2217 5.74315L11.1091 5.75H7.66758C7.2133 5.75 6.83841 6.05731 6.78342 6.45451L6.77648 6.55556V17.4444C6.77648 17.8551 7.11642 18.194 7.5558 18.2437L7.66758 18.25H11.1091C11.5673 18.25 11.9387 18.5858 11.9387 19C11.9387 19.3797 11.6266 19.6935 11.2217 19.7432L11.1091 19.75H7.66758C6.31773 19.75 5.2128 18.802 5.12307 17.6023L5.11719 17.4444V6.55556C5.11719 5.33529 6.16587 4.33644 7.49297 4.25532L7.66758 4.25H11.1091Z" fill="#0D3662"/>
<path d="M16.5452 7.581C16.8398 7.31473 17.3007 7.29053 17.6255 7.50838L17.7185 7.581L22.0204 11.4699C22.315 11.7362 22.3417 12.1528 22.1007 12.4464L22.0204 12.5305L17.7185 16.4194C17.3945 16.7123 16.8692 16.7123 16.5452 16.4194C16.2507 16.1532 16.2239 15.7365 16.4649 15.4429L16.5452 15.3588L20.2601 12.0002L16.5452 8.64166C16.2507 8.37539 16.2239 7.95873 16.4649 7.66512L16.5452 7.581Z" fill="#0D3662"/>
<path d="M21.4334 11.25C21.8916 11.25 22.2631 11.5858 22.2631 12C22.2631 12.3797 21.951 12.6935 21.546 12.7432L21.4334 12.75H11.1089C10.6507 12.75 10.2793 12.4142 10.2793 12C10.2793 11.6203 10.5914 11.3065 10.9964 11.2568L11.1089 11.25H21.4334Z" fill="#0D3662"/>
</svg>
