<svg width="46" height="23" viewBox="0 0 46 23" fill="none" xmlns="http://www.w3.org/2000/svg">
<path fill-rule="evenodd" clip-rule="evenodd" d="M20.4948 2.04539C19.3152 0.682654 16.6772 0 12.5794 0C12.19 0 11.8175 0.00653921 11.4516 0.0168434C11.1245 0.00653921 10.7911 0 10.4421 0C5.83665 0 2.94571 0.690581 1.76612 2.07075C1.02 2.94384 0.509804 4.62382 0.236116 7.10496H6.67887C6.7995 5.91581 6.97471 5.14081 7.20826 4.7869C7.62868 4.14527 8.95243 3.78066 11.1765 3.69604C13.3085 3.77729 14.5945 4.11614 15.0278 4.7116C15.5289 5.40199 15.7792 7.63998 15.7792 11.4274C15.7792 15.2021 15.5158 17.4619 14.9864 18.2072C14.5296 18.8522 13.2747 19.2176 11.2286 19.3046C9.11854 19.2227 7.81812 18.8989 7.33165 18.332C6.7645 17.6688 6.48172 15.7157 6.48172 12.4703C6.48172 11.8966 6.48686 10.3454 6.49457 9.83438H0.0142381C0.00514155 10.279 0 11.746 0 12.2218C0 16.7483 0.599584 19.6751 1.79974 21.0053C3.00148 22.3356 5.65116 23 9.74917 23C10.1358 23 10.507 22.9935 10.8688 22.9843C11.1985 22.9948 11.5345 23 11.8863 23C16.436 23 19.3024 22.3265 20.4871 20.9792C21.6704 19.6349 22.2635 16.371 22.2635 11.1945C22.2623 6.45797 21.673 3.40871 20.4948 2.04539ZM32.1359 3.30466L30.0492 0.222907H21.307L27.6863 9.65364L32.1359 3.30466ZM45.534 0.222985L37.7975 11.6757L45.2783 22.7335H36.5335L33.4296 18.1436L30.3296 22.7335H21.5914L28.2184 12.9202L34.0656 4.26442L36.7945 0.222985H45.534Z" fill="#0D3662"/>
</svg>
