<svg width="17" height="11" viewBox="0 0 17 11" fill="none" xmlns="http://www.w3.org/2000/svg">
<path fill-rule="evenodd" clip-rule="evenodd" d="M16.5736 1.5C16.5736 1.08579 16.2379 0.75 15.8236 0.75H1L0.898229 0.756847C0.532154 0.806509 0.25 1.1203 0.25 1.5C0.25 1.91421 0.585786 2.25 1 2.25H15.8236L15.9254 2.24315C16.2915 2.19349 16.5736 1.8797 16.5736 1.5ZM11.8236 4.75C12.2379 4.75 12.5736 5.08579 12.5736 5.5C12.5736 5.8797 12.2915 6.19349 11.9254 6.24315L11.8236 6.25H1C0.585786 6.25 0.25 5.91421 0.25 5.5C0.25 5.1203 0.532154 4.80651 0.898229 4.75685L1 4.75H11.8236ZM7.82365 8.75C8.23786 8.75 8.57364 9.08579 8.57364 9.5C8.57364 9.8797 8.29149 10.1935 7.92542 10.2432L7.82365 10.25H1C0.585786 10.25 0.25 9.91421 0.25 9.5C0.25 9.1203 0.532154 8.80651 0.898229 8.75685L1 8.75H7.82365Z" fill="#0D3662"/>
</svg>
