<svg width="24" height="24" viewBox="0 0 24 24" fill="none" xmlns="http://www.w3.org/2000/svg">
<path fill-rule="evenodd" clip-rule="evenodd" d="M21 9.5C21 8.94772 20.5523 8.5 20 8.5H4L3.88338 8.50673C3.38604 8.56449 3 8.98716 3 9.5C3 10.0523 3.44772 10.5 4 10.5H20L20.1166 10.4933C20.614 10.4355 21 10.0128 21 9.5ZM21 16.5C21 15.9477 20.5523 15.5 20 15.5H4L3.88338 15.5067C3.38604 15.5645 3 15.9872 3 16.5C3 17.0523 3.44772 17.5 4 17.5H20L20.1166 17.4933C20.614 17.4355 21 17.0128 21 16.5Z" fill="#0D3662"/>
</svg>
