<svg width="58" height="58" viewBox="0 0 58 58" fill="none" xmlns="http://www.w3.org/2000/svg">
<path opacity="0.3" fill-rule="evenodd" clip-rule="evenodd" d="M7.24484 9.81419C6.73684 10.3146 6.64587 10.6719 6.64587 10.8747C6.64587 11.0775 6.73684 11.4347 7.24484 11.9352C7.75923 12.4419 8.59654 12.9817 9.77744 13.4737C12.1313 14.4545 15.5088 15.1038 19.3334 15.1038C23.1579 15.1038 26.5354 14.4545 28.8893 13.4737C30.0702 12.9817 30.9075 12.4419 31.4219 11.9352C31.9299 11.4347 32.0209 11.0775 32.0209 10.8747C32.0209 10.6719 31.9299 10.3146 31.4219 9.81419C30.9075 9.30746 30.0702 8.76769 28.8893 8.27565C26.5354 7.29486 23.1579 6.64551 19.3334 6.64551C15.5088 6.64551 12.1313 7.29486 9.77744 8.27565C8.59654 8.76769 7.75923 9.30746 7.24484 9.81419ZM32.0209 15.9672C31.4789 16.2811 30.8953 16.5649 30.2835 16.8199C27.3895 18.0257 23.5169 18.7288 19.3334 18.7288C15.1498 18.7288 11.2773 18.0257 8.38321 16.8199C7.77142 16.5649 7.18783 16.2811 6.64587 15.9672V20.5413C6.64587 20.7441 6.73684 21.1014 7.24484 21.6018C7.75923 22.1086 8.59654 22.6483 9.77744 23.1404C12.1313 24.1212 15.5088 24.7705 19.3334 24.7705C23.1579 24.7705 26.5354 24.1212 28.8893 23.1404C30.0702 22.6483 30.9075 22.1086 31.4219 21.6018C31.9299 21.1014 32.0209 20.7441 32.0209 20.5413V15.9672ZM32.0209 25.6339C31.4789 25.9478 30.8953 26.2316 30.2835 26.4865C27.3895 27.6924 23.5169 28.3955 19.3334 28.3955C15.1498 28.3955 11.2773 27.6924 8.38321 26.4865C7.77142 26.2316 7.18783 25.9478 6.64587 25.6339V30.208C6.64587 30.4108 6.73684 30.7681 7.24484 31.2685C7.75923 31.7752 8.59654 32.315 9.77744 32.807C12.1313 33.7878 15.5088 34.4372 19.3334 34.4372C20.8768 34.4372 22.3545 34.3313 23.7259 34.1382C24.6442 33.1122 25.9355 32.2986 27.3554 31.6682C28.7119 31.0658 30.2936 30.5826 32.0209 30.2356V25.6339ZM35.6459 29.7285V10.8747C35.6459 9.4091 34.9254 8.17697 33.9659 7.23178C33.0128 6.29288 31.7266 5.53078 30.2835 4.92949C27.3895 3.72362 23.5169 3.02051 19.3334 3.02051C15.1498 3.02051 11.2773 3.72362 8.38321 4.92949C6.94013 5.53078 5.65397 6.29288 4.70087 7.23178C3.7414 8.17697 3.02087 9.4091 3.02087 10.8747V39.8747C3.02087 41.3402 3.7414 42.5724 4.70087 43.5176C5.65397 44.4565 6.94013 45.2186 8.38321 45.8199C11.2773 47.0257 15.1498 47.7288 19.3334 47.7288C20.3743 47.7288 21.393 47.6854 22.38 47.6021C22.5164 48.8591 23.1808 49.9269 24.0342 50.7676C24.9873 51.7065 26.2735 52.4686 27.7165 53.0699C30.6106 54.2757 34.4832 54.9788 38.6667 54.9788C42.8503 54.9788 46.7228 54.2757 49.6169 53.0699C51.06 52.4686 52.3461 51.7065 53.2992 50.7676C54.2587 49.8224 54.9792 48.5902 54.9792 47.1247V37.458C54.9792 35.9924 54.2587 34.7603 53.2992 33.8151C52.3461 32.8762 51.06 32.1141 49.6169 31.5128C46.7228 30.307 42.8503 29.6038 38.6667 29.6038C37.6348 29.6038 36.6248 29.6466 35.6459 29.7285ZM51.3542 42.5505V47.1247C51.3542 47.3275 51.2632 47.6847 50.7552 48.1852C50.2409 48.6919 49.4035 49.2317 48.2226 49.7237C45.8688 50.7045 42.4913 51.3538 38.6667 51.3538C34.8421 51.3538 31.4647 50.7045 29.1108 49.7237C27.9299 49.2317 27.0926 48.6919 26.5782 48.1852C26.0702 47.6847 25.9792 47.3275 25.9792 47.1247V42.5505C26.5212 42.8645 27.1048 43.1483 27.7165 43.4032C30.6106 44.6091 34.4832 45.3122 38.6667 45.3122C42.8503 45.3122 46.7228 44.6091 49.6169 43.4032C50.2287 43.1483 50.8123 42.8645 51.3542 42.5505ZM22.3542 37.9376V43.9651C21.3853 44.0557 20.3742 44.1038 19.3334 44.1038C15.5088 44.1038 12.1313 43.4545 9.77744 42.4737C8.59654 41.9817 7.75923 41.4419 7.24484 40.9352C6.73684 40.4347 6.64587 40.0775 6.64587 39.8747V35.3005C7.18783 35.6145 7.77142 35.8983 8.38321 36.1532C11.2773 37.3591 15.1498 38.0622 19.3334 38.0622C20.3651 38.0622 21.3752 38.0195 22.3542 37.9376ZM25.9792 37.458C25.9792 37.6608 26.0702 38.0181 26.5782 38.5185C27.0926 39.0252 27.9299 39.565 29.1108 40.057C31.4647 41.0378 34.8421 41.6872 38.6667 41.6872C42.4913 41.6872 45.8688 41.0378 48.2226 40.057C49.4035 39.565 50.2409 39.0252 50.7552 38.5185C51.2632 38.0181 51.3542 37.6608 51.3542 37.458C51.3542 37.2552 51.2632 36.898 50.7552 36.3975C50.2409 35.8908 49.4035 35.351 48.2226 34.859C45.8688 33.8782 42.4913 33.2288 38.6667 33.2288C37.0573 33.2288 35.5188 33.344 34.0975 33.5533C32.0126 33.8603 30.2147 34.3648 28.8265 34.9812C27.4019 35.6138 26.575 36.2897 26.2081 36.8343C26.0235 37.1082 25.9792 37.3104 25.9792 37.458Z" fill="white"/>
</svg>
