<svg width="58" height="58" viewBox="0 0 58 58" fill="none" xmlns="http://www.w3.org/2000/svg">
<path opacity="0.3" fill-rule="evenodd" clip-rule="evenodd" d="M0.604126 16.9163C0.604126 13.2459 3.57957 10.2705 7.24996 10.2705H50.75C54.4203 10.2705 57.3958 13.2459 57.3958 16.9163V41.083C57.3958 44.7534 54.4203 47.7288 50.75 47.7288H7.24996C3.57956 47.7288 0.604126 44.7534 0.604126 41.083V16.9163ZM7.24996 13.8955C5.5816 13.8955 4.22913 15.248 4.22913 16.9163V41.083C4.22913 42.7514 5.5816 44.1038 7.24996 44.1038H50.75C52.4183 44.1038 53.7708 42.7514 53.7708 41.083V16.9163C53.7708 15.248 52.4183 13.8955 50.75 13.8955H7.24996ZM29 23.5622C25.9969 23.5622 23.5625 25.9966 23.5625 28.9997C23.5625 32.0027 25.9969 34.4372 29 34.4372C32.003 34.4372 34.4375 32.0027 34.4375 28.9997C34.4375 25.9966 32.003 23.5622 29 23.5622ZM19.9375 28.9997C19.9375 23.9946 23.9949 19.9372 29 19.9372C34.005 19.9372 38.0625 23.9946 38.0625 28.9997C38.0625 34.0048 34.005 38.0622 29 38.0622C23.9949 38.0622 19.9375 34.0048 19.9375 28.9997ZM12.0833 24.7705C13.0843 24.7705 13.8958 25.582 13.8958 26.583V31.4163C13.8958 32.4174 13.0843 33.2288 12.0833 33.2288C11.0823 33.2288 10.2708 32.4174 10.2708 31.4163V26.583C10.2708 25.582 11.0823 24.7705 12.0833 24.7705ZM45.9166 24.7705C46.9176 24.7705 47.7291 25.582 47.7291 26.583V31.4163C47.7291 32.4174 46.9176 33.2288 45.9166 33.2288C44.9156 33.2288 44.1041 32.4174 44.1041 31.4163V26.583C44.1041 25.582 44.9156 24.7705 45.9166 24.7705Z" fill="white"/>
</svg>
