<svg width="24" height="24" viewBox="0 0 24 24" fill="none" xmlns="http://www.w3.org/2000/svg">
<path fill-rule="evenodd" clip-rule="evenodd" d="M0.25 7C0.25 5.48122 1.48122 4.25 3 4.25H21C22.5188 4.25 23.75 5.48122 23.75 7V17C23.75 18.5188 22.5188 19.75 21 19.75H3C1.48122 19.75 0.25 18.5188 0.25 17V7ZM3 5.75C2.30964 5.75 1.75 6.30964 1.75 7V17C1.75 17.6904 2.30964 18.25 3 18.25H21C21.6904 18.25 22.25 17.6904 22.25 17V7C22.25 6.30964 21.6904 5.75 21 5.75H3ZM12 9.75C10.7574 9.75 9.75 10.7574 9.75 12C9.75 13.2426 10.7574 14.25 12 14.25C13.2426 14.25 14.25 13.2426 14.25 12C14.25 10.7574 13.2426 9.75 12 9.75ZM8.25 12C8.25 9.92893 9.92893 8.25 12 8.25C14.0711 8.25 15.75 9.92893 15.75 12C15.75 14.0711 14.0711 15.75 12 15.75C9.92893 15.75 8.25 14.0711 8.25 12ZM5 10.25C5.41421 10.25 5.75 10.5858 5.75 11V13C5.75 13.4142 5.41421 13.75 5 13.75C4.58579 13.75 4.25 13.4142 4.25 13V11C4.25 10.5858 4.58579 10.25 5 10.25ZM19 10.25C19.4142 10.25 19.75 10.5858 19.75 11V13C19.75 13.4142 19.4142 13.75 19 13.75C18.5858 13.75 18.25 13.4142 18.25 13V11C18.25 10.5858 18.5858 10.25 19 10.25Z" fill="white"/>
</svg>
