<svg width="26" height="26" viewBox="0 0 26 26" fill="none" xmlns="http://www.w3.org/2000/svg">
<path fill-rule="evenodd" clip-rule="evenodd" d="M3.25 12.459C3.25 13.3564 3.97754 14.084 4.875 14.084C5.77246 14.084 6.5 13.3564 6.5 12.459C6.5 11.5615 5.77246 10.834 4.875 10.834C3.97754 10.834 3.25 11.5615 3.25 12.459ZM18.4167 12.459C18.4167 13.3564 19.1442 14.084 20.0417 14.084C20.9391 14.084 21.6667 13.3564 21.6667 12.459C21.6667 11.5615 20.9391 10.834 20.0417 10.834C19.1442 10.834 18.4167 11.5615 18.4167 12.459ZM12.4583 14.084C11.5609 14.084 10.8333 13.3564 10.8333 12.459C10.8333 11.5615 11.5609 10.834 12.4583 10.834C13.3558 10.834 14.0833 11.5615 14.0833 12.459C14.0833 13.3564 13.3558 14.084 12.4583 14.084Z" fill="white"/>
</svg>
