<svg width="25" height="24" viewBox="0 0 25 24" fill="none" xmlns="http://www.w3.org/2000/svg">
<path fill-rule="evenodd" clip-rule="evenodd" d="M2.05615 2C2.05615 1.58579 2.39194 1.25 2.80615 1.25H22.8062C23.2204 1.25 23.5562 1.58579 23.5562 2C23.5562 2.41421 23.2204 2.75 22.8062 2.75H21.5562V20.382C21.5562 21.6829 20.1871 22.529 19.0235 21.9472L16.918 20.8944C16.8476 20.8592 16.7647 20.8592 16.6943 20.8944L14.036 22.2236C13.2618 22.6107 12.3505 22.6107 11.5763 22.2236L8.91796 20.8944C8.84758 20.8592 8.76473 20.8592 8.69435 20.8944L6.58878 21.9472C5.4252 22.529 4.05615 21.6829 4.05615 20.382V2.75H2.80615C2.39194 2.75 2.05615 2.41421 2.05615 2ZM5.55615 2.75V20.382C5.55615 20.5678 5.75173 20.6887 5.91795 20.6056L8.02353 19.5528C8.5162 19.3065 9.0961 19.3065 9.58877 19.5528L12.2471 20.882C12.599 21.0579 13.0133 21.0579 13.3652 20.882L16.0235 19.5528C16.5162 19.3065 17.0961 19.3065 17.5888 19.5528L19.6944 20.6056C19.8606 20.6887 20.0562 20.5678 20.0562 20.382V2.75H5.55615ZM9.05615 7C9.05615 6.58579 9.39194 6.25 9.80615 6.25H15.8062C16.2204 6.25 16.5562 6.58579 16.5562 7C16.5562 7.41421 16.2204 7.75 15.8062 7.75H9.80615C9.39194 7.75 9.05615 7.41421 9.05615 7ZM9.05615 11C9.05615 10.5858 9.39194 10.25 9.80615 10.25H12.8062C13.2204 10.25 13.5562 10.5858 13.5562 11C13.5562 11.4142 13.2204 11.75 12.8062 11.75H9.80615C9.39194 11.75 9.05615 11.4142 9.05615 11ZM9.05615 15C9.05615 14.5858 9.39194 14.25 9.80615 14.25H15.8062C16.2204 14.25 16.5562 14.5858 16.5562 15C16.5562 15.4142 16.2204 15.75 15.8062 15.75H9.80615C9.39194 15.75 9.05615 15.4142 9.05615 15Z" fill="#0D3662"/>
</svg>
