<svg width="23" height="26" viewBox="0 0 23 26" fill="none" xmlns="http://www.w3.org/2000/svg">
<path fill-rule="evenodd" clip-rule="evenodd" d="M13.9951 26.0002H16.6319L23 18.0741V17.3662L21.7513 15.8643L13.9951 26.0002Z" fill="#0E3763"/>
<path fill-rule="evenodd" clip-rule="evenodd" d="M11.4021 5.72852L10.0396 7.93187H16.5381L23.0001 16.0119V12.2496L17.6869 5.72852H11.4021Z" fill="#0E3763"/>
<path fill-rule="evenodd" clip-rule="evenodd" d="M6.02133 4.89125L7.92932 3.69548L8.70235 4.71521L0.395996 15.1152L5.84577 21.6815L7.6916 19.786L7.64757 23.3556L11.8668 26L9.25139 22.7693L9.57758 19.3632L7.94427 17.6067L5.81628 19.251L2.7505 15.4444L11.6155 4.1027L8.63134 0.806383L5.54834 2.67754L0.395996 0L6.02133 4.89125Z" fill="#0E3763"/>
<path fill-rule="evenodd" clip-rule="evenodd" d="M2.5052 7.84412H5.36187L6.81229 5.81696L3.0765 5.77289L0 4.27441L2.5052 7.84412Z" fill="#0E3763"/>
<path fill-rule="evenodd" clip-rule="evenodd" d="M7.60544 12.4713L9.53934 11.546L8.92393 10.0918L7.29785 12.1187L7.60544 12.4713Z" fill="#0E3763"/>
</svg>
