<svg width="16" height="16" viewBox="0 0 16 16" fill="none" xmlns="http://www.w3.org/2000/svg">
<path d="M10.6667 1.33301C12.8758 1.33301 14.6667 3.12387 14.6667 5.33301M10.6667 3.99967C11.4031 3.99967 12 4.59663 12 5.33301M13.3352 14.6007C7.0345 13.976 2.02369 8.9652 1.399 2.66447C1.32635 1.93169 1.93031 1.33301 2.66669 1.33301H5.03901C5.61292 1.33301 6.12244 1.70025 6.30392 2.2447L7.07277 4.55125C7.23247 5.03036 7.10778 5.55859 6.75067 5.9157L6.37349 6.29287C6.15468 6.51168 6.11376 6.85369 6.28496 7.11145C7.01642 8.21277 7.68756 8.88247 8.88407 9.70095C9.14372 9.87856 9.49235 9.84068 9.7148 9.61823L10.084 9.24903C10.4411 8.89192 10.9693 8.76722 11.4484 8.92693L13.755 9.69578C14.2994 9.87726 14.6667 10.3868 14.6667 10.9607V13.333C14.6667 14.0694 14.068 14.6733 13.3352 14.6007Z" stroke="white" stroke-width="1.3" stroke-linecap="round"/>
</svg>
