<svg width="45" height="45" viewBox="0 0 45 45" fill="none" xmlns="http://www.w3.org/2000/svg">
<path fill-rule="evenodd" clip-rule="evenodd" d="M22.5 45C34.9264 45 45 34.9264 45 22.5C45 10.0736 34.9264 0 22.5 0C10.0736 0 0 10.0736 0 22.5C0 34.9264 10.0736 45 22.5 45Z" fill="#FECE2F"/>
<path d="M30.6562 32.9062H14.3438V22.5C14.3438 22.034 13.966 21.6562 13.5 21.6562C13.034 21.6562 12.6562 22.034 12.6562 22.5V33.75C12.6562 34.216 13.034 34.5938 13.5 34.5938H31.5C31.966 34.5938 32.3438 34.216 32.3438 33.75V22.5C32.3438 22.034 31.966 21.6562 31.5 21.6562C31.034 21.6562 30.6562 22.034 30.6562 22.5V32.9062Z" fill="white"/>
<path fill-rule="evenodd" clip-rule="evenodd" d="M11.25 16.0312C10.784 16.0312 10.4062 16.409 10.4062 16.875V22.5C10.4062 22.966 10.784 23.3438 11.25 23.3438H33.75C34.216 23.3438 34.5938 22.966 34.5938 22.5V16.875C34.5938 16.409 34.216 16.0312 33.75 16.0312H11.25ZM12.0938 21.6562V17.7187H32.9063V21.6562H12.0938Z" fill="white"/>
<path d="M23.5312 33.75V16.875C23.5312 16.409 23.1115 16.0312 22.5938 16.0312C22.076 16.0312 21.6562 16.409 21.6562 16.875V33.75C21.6562 34.216 22.076 34.5938 22.5938 34.5938C23.1115 34.5938 23.5312 34.216 23.5312 33.75Z" fill="white"/>
<path fill-rule="evenodd" clip-rule="evenodd" d="M22.5 17.7188C23.0324 17.7188 23.4318 17.2316 23.3274 16.7095L23.2718 16.4626C23.2482 16.3666 23.2196 16.2575 23.1856 16.1367L23.0671 15.7414C22.8428 15.033 22.552 14.3239 22.1846 13.6559C21.0846 11.6558 19.5226 10.4062 17.4375 10.4062C15.4182 10.4062 13.7812 12.0432 13.7812 14.0625C13.7812 16.0818 15.4182 17.7188 17.4375 17.7188H22.5ZM20.706 14.4691C20.9102 14.8403 21.0884 15.2319 21.2415 15.6306L21.3863 16.0312H17.4375C16.3502 16.0312 15.4688 15.1498 15.4688 14.0625C15.4688 12.9752 16.3502 12.0937 17.4375 12.0937C18.7977 12.0937 19.8725 12.9536 20.706 14.4691Z" fill="white"/>
<path fill-rule="evenodd" clip-rule="evenodd" d="M27.5623 17.7188H22.4998C21.9674 17.7188 21.568 17.2316 21.6724 16.7095C21.6861 16.6414 21.7045 16.5586 21.728 16.4626L21.8142 16.1367L21.9327 15.7414C22.157 15.033 22.4478 14.3239 22.8152 13.6559C23.9152 11.6558 25.4772 10.4062 27.5623 10.4062C29.5816 10.4062 31.2185 12.0432 31.2185 14.0625C31.2185 16.0818 29.5816 17.7188 27.5623 17.7188ZM27.5623 12.0937C26.2021 12.0937 25.1273 12.9536 24.2938 14.4691C24.0216 14.964 23.7955 15.4952 23.6135 16.0312H27.5623C28.6496 16.0312 29.531 15.1498 29.531 14.0625C29.531 12.9752 28.6496 12.0937 27.5623 12.0937Z" fill="white"/>
</svg>
