<svg width="21" height="21" viewBox="0 0 21 21" fill="none" xmlns="http://www.w3.org/2000/svg">
<g clip-path="url(#clip0)">
<path d="M0.695275 3.86859C1.0323 3.86859 1.30553 3.59536 1.30553 3.25833V1.30548H3.25818C3.5952 1.30548 3.86843 1.03225 3.86843 0.69523C3.86843 0.358207 3.5952 0.0849762 3.25818 0.0849762H0.695275C0.358253 0.0849762 0.085022 0.358207 0.085022 0.69523V3.25833C0.085022 3.59536 0.358253 3.86859 0.695275 3.86859Z" fill="#0D3662"/>
<path d="M17.7418 1.30548H19.6945V3.25833C19.6945 3.59536 19.9677 3.86859 20.3047 3.86859C20.6418 3.86859 20.915 3.59536 20.915 3.25833V0.69523C20.915 0.358207 20.6418 0.0849762 20.3047 0.0849762H17.7418C17.4048 0.0849762 17.1316 0.358207 17.1316 0.69523C17.1316 1.03225 17.4048 1.30548 17.7418 1.30548Z" fill="#0D3662"/>
<path d="M3.25818 19.6945H1.30553V17.7416C1.30553 17.4046 1.0323 17.1314 0.695275 17.1314C0.358253 17.1314 0.085022 17.4046 0.085022 17.7416V20.3048C0.085022 20.6418 0.358253 20.915 0.695275 20.915H3.25818C3.5952 20.915 3.86843 20.6418 3.86843 20.3048C3.86843 19.9677 3.5952 19.6945 3.25818 19.6945Z" fill="#0D3662"/>
<path d="M20.3047 17.1314C19.9677 17.1314 19.6945 17.4046 19.6945 17.7416V19.6945H17.7418C17.4048 19.6945 17.1316 19.9677 17.1316 20.3048C17.1316 20.6418 17.4048 20.915 17.7418 20.915H20.3047C20.6418 20.915 20.915 20.6418 20.915 20.3048V17.7416C20.915 17.4046 20.6418 17.1314 20.3047 17.1314Z" fill="#0D3662"/>
<path d="M5.33316 15.4227H3.9906V16.7653H5.33316V15.4227Z" fill="#0D3662"/>
<path d="M19.0233 9.48284V2.61558C19.0233 2.26428 18.7358 1.97681 18.3845 1.97681H2.61106C2.25972 1.97681 1.97229 2.26424 1.97229 2.61558V9.48284H10.7441V8.3031C10.7441 7.96608 11.0173 7.69285 11.3543 7.69285C11.6913 7.69285 11.9646 7.96608 11.9646 8.3031V9.48284H19.0233ZM2.77009 3.62445C2.77009 3.28743 3.04333 3.0142 3.38035 3.0142H5.94341C6.28043 3.0142 6.55367 3.28743 6.55367 3.62445V6.18751C6.55367 6.52454 6.28043 6.79777 5.94341 6.79777H3.38035C3.04333 6.79777 2.77009 6.52454 2.77009 6.18751V3.62445ZM7.89622 8.66925H3.38027C3.04324 8.66925 2.77001 8.39602 2.77001 8.059C2.77001 7.72198 3.04324 7.44874 3.38027 7.44874H7.89622C8.23325 7.44874 8.50648 7.72198 8.50648 8.059C8.50648 8.39602 8.23325 8.66925 7.89622 8.66925ZM10.1745 8.54716C10.1745 8.88418 9.90127 9.15741 9.56425 9.15741C9.22723 9.15741 8.954 8.88418 8.954 8.54716V7.69281C8.954 7.35578 9.22723 7.08255 9.56425 7.08255C9.90127 7.08255 10.1745 7.35578 10.1745 7.69281V8.54716ZM10.8661 5.65867C10.8661 5.99569 10.5929 6.26892 10.2559 6.26892C9.91885 6.26892 9.64562 5.99569 9.64562 5.65867V5.08906H8.26237V5.37384C8.26237 5.71087 7.98914 5.9841 7.65212 5.9841C7.3151 5.9841 7.04187 5.71087 7.04187 5.37384V3.62445C7.04187 3.28743 7.3151 3.0142 7.65212 3.0142C7.98914 3.0142 8.26237 3.28743 8.26237 3.62445V3.86855H9.64562V3.62445C9.64562 3.28743 9.91885 3.0142 10.2559 3.0142C10.5929 3.0142 10.8661 3.28743 10.8661 3.62445V5.65867ZM14.4463 3.62445C14.4463 3.28743 14.7195 3.0142 15.0565 3.0142H17.6196C17.9566 3.0142 18.2298 3.28743 18.2298 3.62445V6.18751C18.2298 6.52454 17.9566 6.79777 17.6196 6.79777H15.0565C14.7195 6.79777 14.4463 6.52454 14.4463 6.18751V3.62445ZM14.4463 7.48943H17.4976C17.8346 7.48943 18.1078 7.76266 18.1078 8.09968C18.1078 8.4367 17.8346 8.70994 17.4976 8.70994H14.4463C14.1093 8.70994 13.836 8.4367 13.836 8.09968C13.836 7.76266 14.1093 7.48943 14.4463 7.48943ZM11.8832 6.83849V3.62445C11.8832 3.28743 12.1564 3.0142 12.4935 3.0142C12.8305 3.0142 13.1037 3.28743 13.1037 3.62445V6.83849C13.1037 7.17551 12.8305 7.44874 12.4935 7.44874C12.1564 7.44874 11.8832 7.17551 11.8832 6.83849Z" fill="#0D3662"/>
<path d="M17.0094 4.23471H15.6668V5.57726H17.0094V4.23471Z" fill="#0D3662"/>
<path d="M5.33316 4.23471H3.9906V5.57726H5.33316V4.23471Z" fill="#0D3662"/>
<path d="M0.610253 11.9239H1.9723V18.3844C1.9723 18.7357 2.25973 19.0232 2.61107 19.0232H18.3845C18.7358 19.0232 19.0233 18.7357 19.0233 18.3844V11.9239H20.3897C20.7268 11.9239 21 11.6507 21 11.3136C21 10.9766 20.7268 10.7034 20.3897 10.7034H0.610253C0.273231 10.7034 0 10.9766 0 11.3136C0 11.6507 0.273231 11.9239 0.610253 11.9239ZM5.37385 11.9239V13.063C5.37385 13.4001 5.10062 13.6733 4.7636 13.6733C4.42657 13.6733 4.15334 13.4001 4.15334 13.063V11.9239H5.37385ZM6.55367 17.3755C6.55367 17.7126 6.28044 17.9858 5.94342 17.9858H3.38036C3.04333 17.9858 2.7701 17.7126 2.7701 17.3755V14.8125C2.7701 14.4754 3.04333 14.2022 3.38036 14.2022H5.94342C6.28044 14.2022 6.55367 14.4754 6.55367 14.8125V17.3755ZM8.30307 16.0736C8.30307 16.4106 8.02984 16.6839 7.69281 16.6839C7.35579 16.6839 7.08256 16.4106 7.08256 16.0736V14.2836C7.08256 13.9466 7.35579 13.6733 7.69281 13.6733C8.02984 13.6733 8.30307 13.9466 8.30307 14.2836V16.0736ZM9.11674 15.7481C9.11674 15.4111 9.38997 15.1379 9.72699 15.1379H10.2559C10.5929 15.1379 10.8662 15.4111 10.8662 15.7481C10.8662 16.0852 10.5929 16.3584 10.2559 16.3584H9.72699C9.38997 16.3584 9.11674 16.0852 9.11674 15.7481ZM12.9003 17.3755C12.9003 17.7126 12.6271 17.9858 12.2901 17.9858H10.4593C10.1223 17.9858 9.84904 17.7126 9.84904 17.3755C9.84904 17.0385 10.1223 16.7653 10.4593 16.7653H11.6798V14.2429C11.6798 13.9058 11.953 13.6326 12.2901 13.6326C12.6271 13.6326 12.9003 13.9058 12.9003 14.2429V17.3755ZM13.3071 14.4463C13.3071 14.1093 13.5804 13.8361 13.9174 13.8361H14.4463C14.7833 13.8361 15.0566 14.1093 15.0566 14.4463C15.0566 14.7833 14.7833 15.0566 14.4463 15.0566H13.9174C13.5804 15.0566 13.3071 14.7833 13.3071 14.4463ZM17.9044 17.3755C17.9044 17.7126 17.6312 17.9858 17.2941 17.9858C16.9571 17.9858 16.6839 17.7126 16.6839 17.3755V16.7653H14.6497C14.3127 16.7653 14.0394 16.492 14.0394 16.155C14.0394 15.818 14.3127 15.5448 14.6497 15.5448H16.6839V13.714C16.6839 13.377 16.9571 13.1038 17.2941 13.1038C17.6312 13.1038 17.9044 13.377 17.9044 13.714V17.3755ZM15.4634 12.9003C15.4634 13.2373 15.1901 13.5106 14.8531 13.5106C14.5161 13.5106 14.2429 13.2373 14.2429 12.9003V11.9239H15.4634V12.9003ZM11.9646 12.4121C11.9646 12.7491 11.6914 13.0223 11.3543 13.0223H7.53008C7.19306 13.0223 6.91983 12.7491 6.91983 12.4121C6.91983 12.2121 7.01645 12.0352 7.16503 11.9239H11.9646V12.4121Z" fill="#0D3662"/>
</g>
<defs>
<clipPath id="clip0">
<path d="M0 0H21V21H0V0Z" fill="white"/>
</clipPath>
</defs>
</svg>
