<svg width="29" height="29" viewBox="0 0 29 29" fill="none" xmlns="http://www.w3.org/2000/svg">
<mask id="mask0" mask-type="alpha" maskUnits="userSpaceOnUse" x="0" y="0" width="29" height="29">
<path fill-rule="evenodd" clip-rule="evenodd" d="M14.5 29C22.5081 29 29 22.5081 29 14.5C29 6.49187 22.5081 0 14.5 0C6.49187 0 0 6.49187 0 14.5C0 22.5081 6.49187 29 14.5 29Z" fill="white"/>
</mask>
<g mask="url(#mask0)">
<path d="M-17.9341 -25.1836H57.6186V50.369H-17.9341V-25.1836Z" fill="#FF9EC0"/>
<rect x="-17.9341" y="-25.1836" width="75.5526" height="75.5526" fill="#627285"/>
</g>
<path fill-rule="evenodd" clip-rule="evenodd" d="M15.1847 11.7492L21.5603 15.5549C21.9398 15.7539 22.1952 16.1278 22.1952 16.5568C22.1952 17.1947 21.6295 17.7117 20.9313 17.7117H20.8935H8.80658H8.76877C8.07056 17.7117 7.50439 17.1947 7.50439 16.5568C7.50439 16.1278 7.76023 15.7539 8.13979 15.5549L14.5144 11.7492L14.5149 10.8856V10.7668C14.5237 10.7636 15.0329 10.6036 15.0329 10.6036C15.4724 10.4929 15.8323 10.3069 16.0744 10.0657C16.2816 9.85918 16.3862 9.62493 16.3862 9.36947C16.3862 8.70003 15.8514 8.15534 15.194 8.15534C14.8527 8.15534 14.5252 8.29559 14.2964 8.5403C14.1727 8.67229 14.0317 8.88401 14.0028 9.17925C14.0028 9.36774 13.8525 9.52046 13.6674 9.52046C13.4823 9.52046 13.332 9.36774 13.3325 9.17374C13.3325 9.15874 13.334 9.14373 13.3365 9.12924C13.4179 8.18059 14.2439 7.47266 15.194 7.47266C16.2227 7.47266 17.0569 8.32182 17.0569 9.36947C17.0569 10.2784 16.3086 10.9853 15.194 11.2663C15.192 11.2667 15.1901 11.2673 15.1883 11.2678C15.187 11.2681 15.1859 11.2685 15.1847 11.2688V11.7492ZM20.8935 17.0287H20.9313C21.2529 17.0287 21.5249 16.8128 21.525 16.5568C21.525 16.3988 21.4233 16.2508 21.247 16.1579L14.8493 12.341L8.45307 16.1579L8.44717 16.1608C8.27678 16.2508 8.17514 16.3988 8.17514 16.5568C8.17514 16.8128 8.4472 17.0287 8.76881 17.0287H8.80661H20.8935Z" fill="white"/>
<path d="M21.5603 15.5549L21.432 15.7699L21.4442 15.7763L21.5603 15.5549ZM15.1847 11.7492H14.9347V11.8912L15.0565 11.9639L15.1847 11.7492ZM8.13979 15.5549L8.25603 15.7767L8.26794 15.7696L8.13979 15.5549ZM14.5144 11.7492L14.6425 11.9639L14.7643 11.8912L14.7644 11.7494L14.5144 11.7492ZM14.5149 10.8856L14.7649 10.8857V10.8856H14.5149ZM14.5149 10.7668L14.4282 10.5323L14.2649 10.5927V10.7668H14.5149ZM15.0329 10.6036L14.9718 10.3612L14.9648 10.3629L14.958 10.3651L15.0329 10.6036ZM16.0744 10.0657L15.8979 9.88857L15.8979 9.88857L16.0744 10.0657ZM14.2964 8.5403L14.4788 8.71127L14.479 8.71104L14.2964 8.5403ZM14.0028 9.17925L13.754 9.15486L13.7528 9.16702V9.17925H14.0028ZM13.3325 9.17374L13.5825 9.17439V9.17374H13.3325ZM13.3365 9.12924L13.583 9.17092L13.5847 9.16083L13.5855 9.15063L13.3365 9.12924ZM15.194 11.2663L15.2465 11.5109L15.2551 11.5087L15.194 11.2663ZM15.1883 11.2678L15.119 11.0276L15.119 11.0276L15.1883 11.2678ZM15.1847 11.2688L15.1242 11.0262L14.9347 11.0734V11.2688H15.1847ZM21.525 16.5568L21.775 16.5568V16.5568H21.525ZM21.247 16.1579L21.1188 16.3728L21.1304 16.379L21.247 16.1579ZM14.8493 12.341L14.9774 12.1263L14.8493 12.0498L14.7212 12.1263L14.8493 12.341ZM8.45307 16.1579L8.56552 16.3811L8.57351 16.3771L8.58118 16.3725L8.45307 16.1579ZM8.44717 16.1608L8.33469 15.9375L8.33039 15.9398L8.44717 16.1608ZM21.6884 15.3402L15.3128 11.5346L15.0565 11.9639L21.4322 15.7696L21.6884 15.3402ZM22.4452 16.5568C22.4452 16.0234 22.1275 15.57 21.6764 15.3335L21.4442 15.7763C21.7521 15.9377 21.9452 16.2323 21.9452 16.5568H22.4452ZM20.9313 17.9617C21.7459 17.9617 22.4452 17.3536 22.4452 16.5568H21.9452C21.9452 17.0359 21.5131 17.4617 20.9313 17.4617V17.9617ZM20.8935 17.9617H20.9313V17.4617H20.8935V17.9617ZM8.80658 17.9617H20.8935V17.4617H8.80658V17.9617ZM8.76877 17.9617H8.80658V17.4617H8.76877V17.9617ZM7.25439 16.5568C7.25439 17.3537 7.95431 17.9617 8.76877 17.9617V17.4617C8.18681 17.4617 7.75439 17.0358 7.75439 16.5568H7.25439ZM8.02372 15.3335C7.57272 15.5699 7.25439 16.0232 7.25439 16.5568H7.75439C7.75439 16.2325 7.94774 15.9378 8.25586 15.7763L8.02372 15.3335ZM14.3862 11.5346L8.01164 15.3402L8.26794 15.7696L14.6425 11.9639L14.3862 11.5346ZM14.2649 10.8854L14.2644 11.7491L14.7644 11.7494L14.7649 10.8857L14.2649 10.8854ZM14.2649 10.7668V10.8856H14.7649V10.7668H14.2649ZM15.0329 10.6036C14.958 10.3651 14.958 10.3651 14.958 10.3651C14.958 10.3651 14.958 10.3651 14.9579 10.3651C14.9579 10.3651 14.9579 10.3651 14.9579 10.3651C14.9578 10.3651 14.9577 10.3652 14.9576 10.3652C14.9574 10.3653 14.957 10.3654 14.9565 10.3655C14.9555 10.3659 14.9541 10.3663 14.9522 10.3669C14.9485 10.3681 14.943 10.3698 14.9361 10.372C14.9221 10.3764 14.9022 10.3826 14.8782 10.3901C14.8303 10.4052 14.7664 10.4253 14.7022 10.4455C14.581 10.4836 14.4403 10.5279 14.4282 10.5323L14.6016 11.0013C14.5983 11.0025 14.7166 10.9652 14.8522 10.9225C14.9164 10.9023 14.9803 10.8822 15.0282 10.8671C15.0521 10.8596 15.072 10.8534 15.086 10.849C15.0929 10.8468 15.0984 10.8451 15.1021 10.8439C15.104 10.8433 15.1054 10.8429 15.1064 10.8426C15.1069 10.8424 15.1072 10.8423 15.1075 10.8422C15.1076 10.8422 15.1077 10.8421 15.1077 10.8421C15.1078 10.8421 15.1078 10.8421 15.1078 10.8421C15.1078 10.8421 15.1078 10.8421 15.1078 10.8421C15.1078 10.8421 15.1078 10.8421 15.0329 10.6036ZM15.8979 9.88857C15.6965 10.0893 15.3814 10.258 14.9718 10.3612L15.094 10.846C15.5633 10.7278 15.9682 10.5245 16.2508 10.2427L15.8979 9.88857ZM16.1362 9.36947C16.1362 9.54898 16.0652 9.72185 15.8979 9.88857L16.2508 10.2428C16.498 9.99652 16.6362 9.70088 16.6362 9.36947H16.1362ZM15.194 8.40534C15.7091 8.40534 16.1362 8.83377 16.1362 9.36947H16.6362C16.6362 8.56628 15.9938 7.90534 15.194 7.90534V8.40534ZM14.479 8.71104C14.6594 8.51807 14.9203 8.40534 15.194 8.40534V7.90534C14.7851 7.90534 14.391 8.0731 14.1138 8.36956L14.479 8.71104ZM14.2516 9.20364C14.2736 8.97853 14.3807 8.81592 14.4788 8.71127L14.114 8.36933C13.9646 8.52865 13.7898 8.78949 13.754 9.15486L14.2516 9.20364ZM13.6674 9.77046C13.9946 9.77046 14.2528 9.50179 14.2528 9.17925H13.7528C13.7528 9.23369 13.7105 9.27046 13.6674 9.27046V9.77046ZM13.0825 9.1731C13.0817 9.49912 13.3377 9.77046 13.6674 9.77046V9.27046C13.6268 9.27046 13.5824 9.23636 13.5825 9.17439L13.0825 9.1731ZM13.09 9.08755C13.0856 9.11348 13.0825 9.14258 13.0825 9.17374H13.5825C13.5825 9.17489 13.5824 9.17398 13.583 9.17092L13.09 9.08755ZM15.194 7.22266C14.1234 7.22266 13.1807 8.02086 13.0874 9.10784L13.5855 9.15063C13.6551 8.34032 14.3644 7.72266 15.194 7.72266V7.22266ZM17.3069 9.36947C17.3069 8.188 16.365 7.22266 15.194 7.22266V7.72266C16.0804 7.72266 16.8069 8.45565 16.8069 9.36947H17.3069ZM15.2551 11.5087C16.4257 11.2136 17.3069 10.4413 17.3069 9.36947H16.8069C16.8069 10.1154 16.1916 10.757 15.1329 11.0239L15.2551 11.5087ZM15.2576 11.508C15.2588 11.5076 15.2575 11.508 15.2559 11.5084C15.254 11.5089 15.2507 11.5098 15.2465 11.5107L15.1415 11.0219C15.1297 11.0244 15.1199 11.0273 15.119 11.0276L15.2576 11.508ZM15.2451 11.5114C15.2515 11.5098 15.2571 11.5081 15.2576 11.508L15.119 11.0276C15.1182 11.0278 15.1187 11.0277 15.1193 11.0275C15.1201 11.0273 15.1219 11.0268 15.1242 11.0262L15.2451 11.5114ZM15.4347 11.7492V11.2688H14.9347V11.7492H15.4347ZM20.9313 16.7787H20.8935V17.2787H20.9313V16.7787ZM21.275 16.5568C21.275 16.5918 21.2562 16.643 21.1932 16.693C21.1307 16.7427 21.0376 16.7787 20.9313 16.7787V17.2787C21.1466 17.2787 21.3503 17.2068 21.5043 17.0845C21.6577 16.9626 21.7749 16.7778 21.775 16.5568L21.275 16.5568ZM21.1304 16.379C21.2478 16.4409 21.275 16.5151 21.275 16.5568H21.775C21.775 16.2825 21.5989 16.0607 21.3636 15.9367L21.1304 16.379ZM14.7212 12.5557L21.119 16.3726L21.3751 15.9432L14.9774 12.1263L14.7212 12.5557ZM8.58118 16.3725L14.9774 12.5557L14.7212 12.1263L8.32496 15.9432L8.58118 16.3725ZM8.55962 16.3841L8.56552 16.3811L8.34062 15.9346L8.33471 15.9375L8.55962 16.3841ZM8.42514 16.5568C8.42514 16.5135 8.45402 16.4399 8.56394 16.3819L8.33039 15.9398C8.09953 16.0617 7.92514 16.2841 7.92514 16.5568H8.42514ZM8.76881 16.7787C8.66254 16.7787 8.56939 16.7427 8.50691 16.693C8.44389 16.643 8.42514 16.5918 8.42514 16.5568H7.92514C7.92514 16.7778 8.04242 16.9626 8.19584 17.0845C8.34978 17.2068 8.55346 17.2787 8.76881 17.2787V16.7787ZM8.80661 16.7787H8.76881V17.2787H8.80661V16.7787ZM20.8935 16.7787H8.80661V17.2787H20.8935V16.7787Z" fill="white"/>
</svg>
