<svg width="26" height="26" viewBox="0 0 26 26" fill="none" xmlns="http://www.w3.org/2000/svg">
<g clip-path="url(#clip0)">
<path fill-rule="evenodd" clip-rule="evenodd" d="M4.54537 2.93542H1.18173C0.717548 2.93542 0.34082 3.31117 0.34082 3.77413V7.12897C0.34082 7.59194 0.717548 7.96768 1.18173 7.96768C1.64591 7.96768 2.02264 7.59194 2.02264 7.12897V4.61284H4.54537C5.00955 4.61284 5.38628 4.2371 5.38628 3.77413C5.38628 3.31117 5.00955 2.93542 4.54537 2.93542ZM24.7272 18.0322C24.263 18.0322 23.8862 18.408 23.8862 18.8709V21.3871H21.3635C20.8993 21.3871 20.5226 21.7628 20.5226 22.2258C20.5226 22.6887 20.8993 23.0645 21.3635 23.0645H24.7272C25.1913 23.0645 25.5681 22.6887 25.5681 22.2258V18.8709C25.5681 18.408 25.1913 18.0322 24.7272 18.0322ZM21.3635 2.93542H24.7272C25.1913 2.93542 25.5681 3.31117 25.5681 3.77413V7.12897C25.5681 7.59194 25.1913 7.96768 24.7272 7.96768C24.263 7.96768 23.8862 7.59194 23.8862 7.12897V4.61284H21.3635C20.8993 4.61284 20.5226 4.2371 20.5226 3.77413C20.5226 3.31117 20.8993 2.93542 21.3635 2.93542ZM4.54537 21.3871H2.02264V18.8709C2.02264 18.408 1.64591 18.0322 1.18173 18.0322C0.717548 18.0322 0.34082 18.408 0.34082 18.8709V22.2258C0.34082 22.6887 0.717548 23.0645 1.18173 23.0645H4.54537C5.00955 23.0645 5.38628 22.6887 5.38628 22.2258C5.38628 21.7628 5.00955 21.3871 4.54537 21.3871ZM3.70441 6.29027H5.38622V19.7096H3.70441V6.29027ZM8.74995 6.29027H7.06813V16.3548H8.74995V6.29027ZM10.4317 6.29027H12.1135V16.3548H10.4317V6.29027ZM15.4772 6.29027H13.7954V19.7096H15.4772V6.29027ZM17.159 6.29027H18.8408V16.3548H17.159V6.29027ZM20.5226 6.29027V19.7096H22.2044V6.29027H20.5226ZM7.06813 18.0322H8.74995V19.7096H7.06813V18.0322ZM12.1135 18.0322H10.4317V19.7096H12.1135V18.0322ZM17.159 18.0322H18.8408V19.7096H17.159V18.0322Z" fill="white"/>
</g>
<defs>
<clipPath id="clip0">
<rect width="25.2273" height="25.1613" fill="white" transform="translate(0.34082 0.419312)"/>
</clipPath>
</defs>
</svg>
