<svg width="25" height="24" viewBox="0 0 25 24" fill="none" xmlns="http://www.w3.org/2000/svg">
<path fill-rule="evenodd" clip-rule="evenodd" d="M13.3137 2.04621C12.9905 1.90256 12.6215 1.90256 12.2983 2.04621L5.39325 5.11514C4.91214 5.32896 4.61659 5.82131 4.6541 6.34646L5.22932 14.3996C5.41177 16.9538 6.92816 19.2224 9.21859 20.3676L12.247 21.8818C12.5989 22.0578 13.0131 22.0578 13.365 21.8818L16.3934 20.3676C18.6838 19.2224 20.2002 16.9538 20.3827 14.3996L20.9579 6.34646C20.9954 5.82131 20.6999 5.32896 20.2188 5.11514L13.3137 2.04621ZM11.6891 0.675495C12.4002 0.35947 13.2118 0.359471 13.9229 0.675495L20.828 3.74442C21.8864 4.21483 22.5366 5.29801 22.4541 6.45333L21.8789 14.5064C21.6587 17.5892 19.8285 20.3271 17.0642 21.7093L14.0358 23.2234C13.2616 23.6105 12.3504 23.6105 11.5762 23.2234L8.54777 21.7093C5.78346 20.3271 3.95333 17.5892 3.73313 14.5064L3.15791 6.45333C3.07539 5.29801 3.72561 4.21483 4.78404 3.74442L11.6891 0.675495ZM16.3363 9.46951C16.6292 9.7624 16.6292 10.2373 16.3363 10.5302L13.3363 13.5302C13.0434 13.8231 12.5686 13.8231 12.2757 13.5302L10.2757 11.5302C9.98278 11.2373 9.98278 10.7624 10.2757 10.4695C10.5686 10.1766 11.0434 10.1766 11.3363 10.4695L12.806 11.9392L15.2757 9.46951C15.5686 9.17662 16.0434 9.17662 16.3363 9.46951Z" fill="#0D3662"/>
</svg>
