<svg width="25" height="24" viewBox="0 0 25 24" fill="none" xmlns="http://www.w3.org/2000/svg">
<path fill-rule="evenodd" clip-rule="evenodd" d="M16.248 12C16.248 14.0711 14.5691 15.75 12.498 15.75C10.427 15.75 8.74805 14.0711 8.74805 12C8.74805 9.92893 10.427 8.25 12.498 8.25C14.5691 8.25 16.248 9.92893 16.248 12ZM10.248 12C10.248 13.2426 11.2554 14.25 12.498 14.25C13.7407 14.25 14.748 13.2426 14.748 12C14.748 10.7574 13.7407 9.75 12.498 9.75C11.2554 9.75 10.248 10.7574 10.248 12Z" fill="#0D3662"/>
<path fill-rule="evenodd" clip-rule="evenodd" d="M21.328 9.25C21.0505 9.24889 20.7925 9.11819 20.6254 8.90421L20.5596 8.80754L20.5382 8.71064L20.4628 8.50314C20.3738 8.19483 20.4555 7.85824 20.6842 7.62445L20.7384 7.57033C21.2545 7.05481 21.5446 6.35488 21.5446 5.625C21.5446 4.89512 21.2545 4.19519 20.7381 3.67937C20.2229 3.16358 19.5229 2.87343 18.793 2.87343C18.0632 2.87343 17.3632 3.16358 16.8474 3.67997L16.7877 3.73967C16.5306 3.99113 16.1375 4.06241 15.8009 3.91385C15.4638 3.76934 15.2495 3.44572 15.248 3.08701L15.248 3C15.248 1.48122 14.0168 0.25 12.498 0.25C10.9793 0.25 9.74805 1.48122 9.74805 3V3.17C9.74678 3.48718 9.57625 3.77883 9.30559 3.93848L9.20869 3.95981L9.00119 4.03527C8.69287 4.12427 8.35628 4.04254 8.1225 3.81385L8.06838 3.75967C7.55286 3.24358 6.85292 2.95343 6.12305 2.95343C5.39317 2.95343 4.69323 3.24358 4.17742 3.75996C3.66162 4.27519 3.37147 4.97512 3.37147 5.705C3.37147 6.43488 3.66162 7.13481 4.17801 7.65063L4.23772 7.71033C4.48917 7.96746 4.56045 8.36058 4.4119 8.69718C4.26658 9.08795 3.93996 9.32156 3.57051 9.3302L3.49805 9.33C1.97926 9.33 0.748047 10.5612 0.748047 12.08C0.748047 13.5988 1.97926 14.83 3.49805 14.83H3.66805C4.02377 14.8314 4.34738 15.0457 4.48869 15.3754C4.64045 15.7194 4.56917 16.1125 4.3119 16.3756L4.25772 16.4297C3.74163 16.9452 3.45147 17.6451 3.45147 18.375C3.45147 19.1049 3.74162 19.8048 4.25801 20.3206C4.77323 20.8364 5.47317 21.1266 6.20305 21.1266C6.93292 21.1266 7.63286 20.8364 8.14867 20.32L8.20838 20.2603C8.46551 20.0089 8.85863 19.9376 9.19522 20.0861C9.586 20.2315 9.81961 20.5581 9.82825 20.9275L9.82805 21C9.82805 22.5188 11.0593 23.75 12.578 23.75C14.0968 23.75 15.328 22.5188 15.328 21V20.83C15.3295 20.4743 15.5438 20.1507 15.8735 20.0094C16.2175 19.8576 16.6106 19.9289 16.8736 20.1861L16.9277 20.2403C17.4432 20.7564 18.1432 21.0466 18.873 21.0466C19.6029 21.0466 20.3029 20.7564 20.8187 20.24C21.3345 19.7248 21.6246 19.0249 21.6246 18.295C21.6246 17.5651 21.3345 16.8652 20.8181 16.3494L20.7584 16.2897C20.5349 16.0611 20.4537 15.7251 20.5428 15.4169L20.5874 15.2954C20.7287 14.9657 21.0523 14.7514 21.411 14.75L21.498 14.75C23.0168 14.75 24.248 13.5188 24.248 12C24.248 10.4812 23.0168 9.25 21.498 9.25H21.328ZM21.408 13.25C20.5097 13.2536 19.6961 13.7547 19.2867 14.5401L19.2103 14.7009L19.1432 14.8706C18.842 15.7271 19.0496 16.6878 19.6919 17.3444L19.7577 17.4103C19.9927 17.6451 20.1246 17.9632 20.1246 18.295C20.1246 18.6268 19.9927 18.9449 19.758 19.1794C19.523 19.4147 19.2048 19.5466 18.873 19.5466C18.5413 19.5466 18.2231 19.4147 17.9887 19.18L17.9284 19.1197C17.2211 18.4278 16.1728 18.2377 15.2752 18.6339C14.4034 19.0075 13.8319 19.8704 13.8281 20.827L13.828 21C13.828 21.6904 13.2684 22.25 12.578 22.25C11.8877 22.25 11.328 21.6904 11.328 21V20.91C11.3062 19.9662 10.7531 19.1392 9.91696 18.7616L9.59472 18.6318C8.7736 18.3434 7.81113 18.5507 7.1536 19.1939L7.08772 19.2597C6.85296 19.4947 6.53481 19.6266 6.20305 19.6266C5.87129 19.6266 5.55313 19.4947 5.31867 19.26C5.08336 19.0249 4.95147 18.7068 4.95147 18.375C4.95147 18.0432 5.08336 17.7251 5.31808 17.4906L5.37838 17.4303C6.07025 16.7231 6.26033 15.6748 5.86419 14.7772C5.49058 13.9053 4.62761 13.3338 3.67104 13.33L3.49805 13.33C2.80769 13.33 2.24805 12.7704 2.24805 12.08C2.24805 11.3896 2.80769 10.83 3.49805 10.83H3.58805C4.53181 10.8081 5.35886 10.255 5.73649 9.41891L5.86625 9.09668C6.15464 8.27555 5.94737 7.31308 5.30419 6.65555L5.23838 6.58967C5.00336 6.35491 4.87147 6.03676 4.87147 5.705C4.87147 5.37324 5.00336 5.05509 5.23808 4.82063C5.47313 4.58531 5.79129 4.45343 6.12305 4.45343C6.45481 4.45343 6.77296 4.58531 7.00742 4.82003L7.06772 4.88033C7.73588 5.53397 8.70846 5.73975 9.57076 5.42647C9.64736 5.41901 9.7225 5.39979 9.7935 5.36936C10.6727 4.99253 11.2442 4.12956 11.248 3.17299L11.248 3C11.248 2.30964 11.8077 1.75 12.498 1.75C13.1884 1.75 13.748 2.30964 13.748 3V3.09C13.7519 4.04956 14.3234 4.91253 15.2026 5.28935C16.0928 5.68229 17.1411 5.49221 17.8425 4.80615L17.9084 4.74033C18.1431 4.50531 18.4613 4.37343 18.793 4.37343C19.1248 4.37343 19.443 4.50531 19.6774 4.74004C19.9127 4.97509 20.0446 5.29324 20.0446 5.625C20.0446 5.95676 19.9127 6.27491 19.678 6.50938L19.6177 6.56967C18.9641 7.23783 18.7583 8.21041 19.0716 9.07271C19.079 9.14931 19.0983 9.22445 19.1287 9.29545C19.5055 10.1747 20.3685 10.7462 21.3251 10.75L21.498 10.75C22.1884 10.75 22.748 11.3096 22.748 12C22.748 12.6904 22.1884 13.25 21.498 13.25H21.408Z" fill="#0D3662"/>
</svg>
