<svg width="38" height="38" viewBox="0 0 38 38" fill="none" xmlns="http://www.w3.org/2000/svg">
<path d="M14.2629 17.4935C13.8935 16.7562 13.1309 16.25 12.25 16.25C11.0074 16.25 10 17.2574 10 18.5C10 19.7426 11.0074 20.75 12.25 20.75C13.1309 20.75 13.8935 20.2438 14.2629 19.5065M14.2629 17.4935C14.4146 17.7964 14.5 18.1382 14.5 18.5C14.5 18.8618 14.4146 19.2036 14.2629 19.5065M14.2629 17.4935L20.7371 14.2565M14.2629 19.5065L20.7371 22.7435M20.7371 14.2565C21.1065 14.9938 21.8691 15.5 22.75 15.5C23.9926 15.5 25 14.4926 25 13.25C25 12.0074 23.9926 11 22.75 11C21.5074 11 20.5 12.0074 20.5 13.25C20.5 13.6118 20.5854 13.9536 20.7371 14.2565ZM20.7371 22.7435C20.5854 23.0464 20.5 23.3882 20.5 23.75C20.5 24.9926 21.5074 26 22.75 26C23.9926 26 25 24.9926 25 23.75C25 22.5074 23.9926 21.5 22.75 21.5C21.8691 21.5 21.1065 22.0062 20.7371 22.7435Z" stroke="white" stroke-width="1.5" stroke-linecap="round"/>
</svg>
