<svg width="17" height="17" viewBox="0 0 17 17" fill="none" xmlns="http://www.w3.org/2000/svg">
<path d="M5.2629 7.49355C4.8935 6.75619 4.13086 6.25 3.25 6.25C2.00736 6.25 1 7.25736 1 8.5C1 9.74264 2.00736 10.75 3.25 10.75C4.13086 10.75 4.8935 10.2438 5.2629 9.50645M5.2629 7.49355C5.41462 7.79639 5.5 8.13822 5.5 8.5C5.5 8.86178 5.41462 9.20361 5.2629 9.50645M5.2629 7.49355L11.7371 4.25645M5.2629 9.50645L11.7371 12.7435M11.7371 4.25645C12.1065 4.99381 12.8691 5.5 13.75 5.5C14.9926 5.5 16 4.49264 16 3.25C16 2.00736 14.9926 1 13.75 1C12.5074 1 11.5 2.00736 11.5 3.25C11.5 3.61178 11.5854 3.95361 11.7371 4.25645ZM11.7371 12.7435C11.5854 13.0464 11.5 13.3882 11.5 13.75C11.5 14.9926 12.5074 16 13.75 16C14.9926 16 16 14.9926 16 13.75C16 12.5074 14.9926 11.5 13.75 11.5C12.8691 11.5 12.1065 12.0062 11.7371 12.7435Z" stroke="#293644" stroke-width="1.5" stroke-linecap="round"/>
</svg>
