<svg width="25" height="24" viewBox="0 0 25 24" fill="none" xmlns="http://www.w3.org/2000/svg">
<path fill-rule="evenodd" clip-rule="evenodd" d="M12.1768 24C18.8042 24 24.1768 18.6274 24.1768 12C24.1768 5.37258 18.8042 0 12.1768 0C5.54934 0 0.176758 5.37258 0.176758 12C0.176758 18.6274 5.54934 24 12.1768 24Z" fill="#FECE2F"/>
<path d="M16.5268 17.5498H7.82676V11.9998C7.82676 11.7513 7.62529 11.5498 7.37676 11.5498C7.12823 11.5498 6.92676 11.7513 6.92676 11.9998V17.9998C6.92676 18.2483 7.12823 18.4498 7.37676 18.4498H16.9768C17.2253 18.4498 17.4268 18.2483 17.4268 17.9998V11.9998C17.4268 11.7513 17.2253 11.5498 16.9768 11.5498C16.7282 11.5498 16.5268 11.7513 16.5268 11.9998V17.5498Z" fill="white"/>
<path fill-rule="evenodd" clip-rule="evenodd" d="M6.17656 8.5498C5.92803 8.5498 5.72656 8.75128 5.72656 8.9998V11.9998C5.72656 12.2483 5.92803 12.4498 6.17656 12.4498H18.1766C18.4251 12.4498 18.6266 12.2483 18.6266 11.9998V8.9998C18.6266 8.75128 18.4251 8.5498 18.1766 8.5498H6.17656ZM6.62656 11.5498V9.4498H17.7266V11.5498H6.62656Z" fill="white"/>
<path d="M12.7266 17.9998V8.9998C12.7266 8.75128 12.5027 8.5498 12.2266 8.5498C11.9504 8.5498 11.7266 8.75128 11.7266 8.9998V17.9998C11.7266 18.2483 11.9504 18.4498 12.2266 18.4498C12.5027 18.4498 12.7266 18.2483 12.7266 17.9998Z" fill="white"/>
<path fill-rule="evenodd" clip-rule="evenodd" d="M12.1764 9.4498C12.4603 9.4498 12.6733 9.19001 12.6176 8.91155L12.588 8.77986C12.5754 8.72867 12.5601 8.67045 12.542 8.60606L12.4788 8.3952C12.3592 8.01739 12.2041 7.63922 12.0082 7.28294C11.4215 6.21623 10.5884 5.5498 9.47637 5.5498C8.39941 5.5498 7.52637 6.42285 7.52637 7.4998C7.52637 8.57676 8.39941 9.4498 9.47637 9.4498H12.1764ZM11.2196 7.71667C11.3285 7.91464 11.4235 8.12349 11.5052 8.33614L11.5824 8.5498H9.47637C8.89647 8.5498 8.42637 8.0797 8.42637 7.4998C8.42637 6.91991 8.89647 6.4498 9.47637 6.4498C10.2018 6.4498 10.775 6.90838 11.2196 7.71667Z" fill="white"/>
<path fill-rule="evenodd" clip-rule="evenodd" d="M14.8767 9.4498H12.1767C11.8927 9.4498 11.6798 9.19001 11.7355 8.91155C11.7427 8.87524 11.7526 8.83106 11.7651 8.77986L11.8111 8.60606L11.8743 8.3952C11.9939 8.01739 12.149 7.63922 12.3449 7.28294C12.9316 6.21623 13.7646 5.5498 14.8767 5.5498C15.9537 5.5498 16.8267 6.42285 16.8267 7.4998C16.8267 8.57676 15.9537 9.4498 14.8767 9.4498ZM14.8767 6.4498C14.1513 6.4498 13.5781 6.90838 13.1335 7.71667C12.9883 7.98063 12.8677 8.26393 12.7707 8.5498H14.8767C15.4566 8.5498 15.9267 8.0797 15.9267 7.4998C15.9267 6.91991 15.4566 6.4498 14.8767 6.4498Z" fill="white"/>
</svg>
