<svg width="15" height="15" viewBox="0 0 15 15" fill="none" xmlns="http://www.w3.org/2000/svg">
<g clip-path="url(#clip0)">
<path d="M6.875 3.625C6.46079 3.625 6.125 3.96079 6.125 4.375C6.125 4.78921 6.46079 5.125 6.875 5.125V3.625ZM14.375 5.125C14.7892 5.125 15.125 4.78921 15.125 4.375C15.125 3.96079 14.7892 3.625 14.375 3.625V5.125ZM6.875 6.75C6.46079 6.75 6.125 7.08579 6.125 7.5C6.125 7.91421 6.46079 8.25 6.875 8.25V6.75ZM11.875 8.25C12.2892 8.25 12.625 7.91421 12.625 7.5C12.625 7.08579 12.2892 6.75 11.875 6.75V8.25ZM6.875 9.875C6.46079 9.875 6.125 10.2108 6.125 10.625C6.125 11.0392 6.46079 11.375 6.875 11.375V9.875ZM11.875 11.375C12.2892 11.375 12.625 11.0392 12.625 10.625C12.625 10.2108 12.2892 9.875 11.875 9.875V11.375ZM1.75 10.625C1.75 11.0392 2.08579 11.375 2.5 11.375C2.91421 11.375 3.25 11.0392 3.25 10.625H1.75ZM2.5 4.375L3.03033 3.84467C2.73744 3.55178 2.26256 3.55178 1.96967 3.84467L2.5 4.375ZM3.84467 6.78033C4.13756 7.07322 4.61244 7.07322 4.90533 6.78033C5.19822 6.48744 5.19822 6.01256 4.90533 5.71967L3.84467 6.78033ZM0.0946699 5.71967C-0.198223 6.01256 -0.198223 6.48744 0.0946699 6.78033C0.387563 7.07322 0.862437 7.07322 1.15533 6.78033L0.0946699 5.71967ZM6.875 5.125H14.375V3.625H6.875V5.125ZM6.875 8.25H11.875V6.75H6.875V8.25ZM6.875 11.375H11.875V9.875H6.875V11.375ZM3.25 10.625V4.375H1.75V10.625H3.25ZM1.96967 4.90533L3.84467 6.78033L4.90533 5.71967L3.03033 3.84467L1.96967 4.90533ZM1.96967 3.84467L0.0946699 5.71967L1.15533 6.78033L3.03033 4.90533L1.96967 3.84467Z" fill="#0D3662"/>
</g>
<defs>
<clipPath id="clip0">
<path d="M0 0H15V15H0V0Z" fill="white"/>
</clipPath>
</defs>
</svg>
