<svg width="26" height="26" viewBox="0 0 26 26" fill="none" xmlns="http://www.w3.org/2000/svg">
<path fill-rule="evenodd" clip-rule="evenodd" d="M6.49984 2.97852C6.0736 2.97852 5.67224 3.1792 5.4165 3.52018L3.24984 6.40907C3.07404 6.64347 2.979 6.92857 2.979 7.22157V10.291C2.979 11.2073 3.6298 11.9733 4.4948 12.1489C4.61692 12.1737 4.74392 12.1868 4.87484 12.1868C5.92188 12.1868 6.77067 11.3381 6.77067 10.291V9.74935C6.77067 9.30062 7.13444 8.93685 7.58317 8.93685C8.0319 8.93685 8.39567 9.30062 8.39567 9.74935V10.291C8.39567 11.3381 9.24446 12.1868 10.2915 12.1868C11.3385 12.1868 12.1873 11.3381 12.1873 10.291V9.74935C12.1873 9.30062 12.5511 8.93685 12.9998 8.93685C13.4486 8.93685 13.8123 9.30062 13.8123 9.74935V10.291C13.8123 11.3381 14.6611 12.1868 15.7082 12.1868C16.7552 12.1868 17.604 11.3381 17.604 10.291V9.74935C17.604 9.30062 17.9678 8.93685 18.4165 8.93685C18.8652 8.93685 19.229 9.30062 19.229 9.74935V10.291C19.229 11.3381 20.0778 12.1868 21.1248 12.1868C21.2558 12.1868 21.3828 12.1737 21.5049 12.1489C22.3699 11.9733 23.0207 11.2073 23.0207 10.291V7.22157C23.0207 6.92857 22.9256 6.64347 22.7498 6.40907L20.5832 3.52018C20.3274 3.1792 19.9261 2.97852 19.4998 2.97852H6.49984ZM18.4165 12.5409C17.7707 13.3175 16.7972 13.8118 15.7082 13.8118C14.6192 13.8118 13.6457 13.3175 12.9998 12.5409C12.354 13.3175 11.3805 13.8118 10.2915 13.8118C9.20252 13.8118 8.229 13.3175 7.58317 12.5409C6.99138 13.2525 6.12446 13.7271 5.14567 13.8016V21.666C5.14567 22.4139 5.75195 23.0202 6.49984 23.0202H8.93734V19.4993C8.93734 17.854 10.2712 16.5202 11.9165 16.5202H14.0832C15.7285 16.5202 17.0623 17.854 17.0623 19.4993V23.0202H19.4998C20.2477 23.0202 20.854 22.4139 20.854 21.666V13.8016C19.8752 13.7271 19.0083 13.2525 18.4165 12.5409ZM22.479 13.5418C23.7513 13.0111 24.6457 11.7562 24.6457 10.291V7.22157C24.6457 6.57697 24.4366 5.94975 24.0498 5.43407L21.8832 2.54518C21.3205 1.79501 20.4376 1.35352 19.4998 1.35352H6.49984C5.56212 1.35352 4.67913 1.79501 4.1165 2.54518L1.94984 5.43407C1.56308 5.94975 1.354 6.57697 1.354 7.22157V10.291C1.354 11.7562 2.24838 13.0111 3.52067 13.5418V21.666C3.52067 23.3114 4.85449 24.6452 6.49984 24.6452H19.4998C21.1452 24.6452 22.479 23.3114 22.479 21.666V13.5418ZM15.4373 23.0202V19.4993C15.4373 18.7515 14.8311 18.1452 14.0832 18.1452H11.9165C11.1686 18.1452 10.5623 18.7515 10.5623 19.4993V23.0202H15.4373Z" fill="white"/>
</svg>
