<svg width="17" height="14" viewBox="0 0 17 14" fill="none" xmlns="http://www.w3.org/2000/svg">
<path fill-rule="evenodd" clip-rule="evenodd" d="M10.3471 0.232735C9.84582 0.0895205 9.3159 0.339023 9.10695 0.816624L7.69514 4.04361C7.46845 4.56177 7.09773 5.08744 6.65753 5.52066C6.37645 5.79728 6.05087 6.05199 5.6969 6.24224C5.73576 6.4054 5.75633 6.57549 5.75633 6.75006V12.2466C7.39841 12.668 8.6445 12.905 9.81892 12.9692C11.0988 13.0391 12.3204 12.9052 13.8989 12.5499C14.5565 12.4019 15.0679 11.8669 15.204 11.1863L16.1183 6.61495C16.2413 6.00013 15.771 5.42651 15.144 5.42651H12.06C11.2004 5.42651 10.5466 4.65468 10.6879 3.80681L11.0882 1.40521C11.1752 0.882792 10.8563 0.378234 10.3471 0.232735ZM1.18584 5.75648C0.637103 5.75648 0.192261 6.20132 0.192261 6.75006V12.3141C0.192261 12.8629 0.637104 13.3077 1.18584 13.3077H3.57045C4.03635 13.3077 4.4287 12.9865 4.53536 12.5526C4.554 12.4768 4.56403 12.3971 4.56403 12.3141V6.75006C4.56403 6.55837 4.51033 6.38105 4.41745 6.23023C4.24161 5.94469 3.92775 5.75648 3.57045 5.75648H1.18584Z" fill="#FF2D87"/>
</svg>
