<svg width="19" height="16" viewBox="0 0 19 16" fill="none" xmlns="http://www.w3.org/2000/svg">
<path fill-rule="evenodd" clip-rule="evenodd" d="M11.3471 1.23272C10.8459 1.0895 10.3159 1.33901 10.107 1.81661L8.69518 5.04359C8.46849 5.56175 8.09777 6.08742 7.65757 6.52064C7.37649 6.79726 7.0509 7.05197 6.69694 7.24222C6.7358 7.40538 6.75637 7.57547 6.75637 7.75005V13.2466C8.39845 13.668 9.64454 13.905 10.819 13.9691C12.0989 14.0391 13.3204 13.9052 14.899 13.5498C15.5565 13.4018 16.068 12.8669 16.2041 12.1863L17.1183 7.61493C17.2413 7.00011 16.7711 6.42649 16.1441 6.42649H13.06C12.2005 6.42649 11.5466 5.65466 11.6879 4.80679L12.0882 2.40519C12.1753 1.88277 11.8564 1.37822 11.3471 1.23272ZM6.46608 14.403C8.13701 14.8317 9.46891 15.0894 10.7539 15.1597C12.174 15.2373 13.5096 15.0847 15.1608 14.713C16.2972 14.4573 17.1487 13.5427 17.3732 12.4201L18.2875 7.84876C18.558 6.49615 17.5235 5.23419 16.1441 5.23419H13.06C12.9372 5.23419 12.8438 5.12392 12.864 5.0028L13.2643 2.60121C13.451 1.48064 12.767 0.398382 11.6747 0.0862919C10.5995 -0.220897 9.46284 0.314276 9.01465 1.33871L7.60285 4.5657C7.44332 4.93033 7.165 5.33256 6.82126 5.67083C6.59088 5.89756 6.34843 6.07868 6.11363 6.20199C5.7187 5.80838 5.17326 5.56416 4.57049 5.56416H2.18588C0.978654 5.56416 0 6.54282 0 7.75005V13.3141C0 14.5213 0.978654 15.5 2.18588 15.5H4.57049C5.38168 15.5 6.08883 15.0585 6.46608 14.403ZM2.18588 6.75646C1.63714 6.75646 1.1923 7.2013 1.1923 7.75005V13.3141C1.1923 13.8629 1.63714 14.3077 2.18588 14.3077H4.57049C5.03639 14.3077 5.42874 13.9865 5.5354 13.5526C5.55404 13.4768 5.56407 13.397 5.56407 13.3141V7.75005C5.56407 7.55836 5.51037 7.38103 5.41749 7.23021C5.24165 6.94467 4.92779 6.75646 4.57049 6.75646H2.18588Z" fill="#0D3662"/>
</svg>
