<svg width="20" height="20" viewBox="0 0 20 20" fill="none" xmlns="http://www.w3.org/2000/svg">
<path fill-rule="evenodd" clip-rule="evenodd" d="M0.208496 4.99967C0.208496 3.73402 1.23451 2.70801 2.50016 2.70801H10.0002C11.2658 2.70801 12.2918 3.73402 12.2918 4.99967V5.20801H15.0325C15.7286 5.20801 16.3871 5.52446 16.8219 6.06808L19.2897 9.15272C19.6147 9.55906 19.7918 10.0639 19.7918 10.5843V13.333C19.7918 14.5987 18.7658 15.6247 17.5002 15.6247H17.2056C16.9335 16.5866 16.0491 17.2913 15.0002 17.2913C13.9512 17.2913 13.0668 16.5866 12.7948 15.6247H7.20557C6.93351 16.5866 6.04914 17.2913 5.00016 17.2913C3.95118 17.2913 3.06681 16.5866 2.79476 15.6247H2.50016C1.23451 15.6247 0.208496 14.5987 0.208496 13.333V4.99967ZM2.79476 14.3747C3.06681 13.4128 3.95118 12.708 5.00016 12.708C6.04914 12.708 6.93351 13.4128 7.20557 14.3747H11.0418V4.99967C11.0418 4.42438 10.5755 3.95801 10.0002 3.95801H2.50016C1.92487 3.95801 1.4585 4.42438 1.4585 4.99967V13.333C1.4585 13.9083 1.92487 14.3747 2.50016 14.3747H2.79476ZM12.2918 14.3747H12.7948C13.0668 13.4128 13.9512 12.708 15.0002 12.708C16.0491 12.708 16.9335 13.4128 17.2056 14.3747H17.5002C18.0755 14.3747 18.5418 13.9083 18.5418 13.333V10.5843C18.5418 10.3478 18.4613 10.1183 18.3136 9.93358L15.8459 6.84895C15.6482 6.60185 15.3489 6.45801 15.0325 6.45801H12.2918V14.3747ZM5.00016 13.958C4.42487 13.958 3.9585 14.4244 3.9585 14.9997C3.9585 15.575 4.42487 16.0413 5.00016 16.0413C5.57546 16.0413 6.04183 15.575 6.04183 14.9997C6.04183 14.4244 5.57546 13.958 5.00016 13.958ZM15.0002 13.958C14.4249 13.958 13.9585 14.4244 13.9585 14.9997C13.9585 15.575 14.4249 16.0413 15.0002 16.0413C15.5755 16.0413 16.0418 15.575 16.0418 14.9997C16.0418 14.4244 15.5755 13.958 15.0002 13.958Z" fill="#293644"/>
</svg>
