<svg width="18" height="16" viewBox="0 0 18 16" fill="none" xmlns="http://www.w3.org/2000/svg">
<path fill-rule="evenodd" clip-rule="evenodd" d="M2.6665 2H15.3332C15.6093 2 15.8332 2.22386 15.8332 2.5V5.16667C15.8332 5.44281 15.6093 5.66667 15.3332 5.66667H2.6665C2.39036 5.66667 2.1665 5.44281 2.1665 5.16667V2.5C2.1665 2.22386 2.39036 2 2.6665 2ZM0.666504 2.5C0.666504 1.39543 1.56193 0.5 2.6665 0.5H15.3332C16.4377 0.5 17.3332 1.39543 17.3332 2.5V5.16667C17.3332 6.27124 16.4377 7.16667 15.3332 7.16667H2.6665C1.56193 7.16667 0.666504 6.27124 0.666504 5.16667V2.5ZM2.6665 10.3333H15.3332C15.6093 10.3333 15.8332 10.5572 15.8332 10.8333V13.5C15.8332 13.7761 15.6093 14 15.3332 14H2.6665C2.39036 14 2.1665 13.7761 2.1665 13.5V10.8333C2.1665 10.5572 2.39036 10.3333 2.6665 10.3333ZM0.666504 10.8333C0.666504 9.72876 1.56193 8.83333 2.6665 8.83333H15.3332C16.4377 8.83333 17.3332 9.72876 17.3332 10.8333V13.5C17.3332 14.6046 16.4377 15.5 15.3332 15.5H2.6665C1.56193 15.5 0.666504 14.6046 0.666504 13.5V10.8333Z" fill="#0D3662"/>
</svg>
