<svg width="17" height="14" viewBox="0 0 17 14" fill="none" xmlns="http://www.w3.org/2000/svg">
<g clip-path="url(#clip0)">
<path fill-rule="evenodd" clip-rule="evenodd" d="M13.9775 1.4209L11.333 1.4209L11.793 6.41595L11.333 13.4068H13.9905C14.7243 13.4068 15.3192 12.7864 15.3192 12.0212V2.60272H15.2997V2.40606C15.2997 1.86197 14.7077 1.4209 13.9775 1.4209Z" fill="#805333"/>
<path d="M13.248 5.86328H15.5733V8.63444H13.248V5.86328Z" fill="#CB8252"/>
<path d="M13.0527 1.01367H1.75842C1.02458 1.01367 0.429688 1.63402 0.429688 2.39925V12.4447C0.429688 13.2099 1.02458 13.8303 1.75842 13.8303H13.0527C13.7865 13.8303 14.3814 13.2099 14.3814 12.4447V2.39925C14.3814 1.63402 13.7865 1.01367 13.0527 1.01367Z" fill="#A56A43"/>
<path d="M2.75485 2.74553H2.09048C1.90702 2.74553 1.7583 2.59044 1.7583 2.39913C1.7583 2.20782 1.90702 2.05273 2.09048 2.05273H2.75485C2.93831 2.05273 3.08703 2.20782 3.08703 2.39913C3.08703 2.59044 2.93831 2.74553 2.75485 2.74553Z" fill="#805333"/>
<path d="M4.74802 2.74553H4.08365C3.90019 2.74553 3.75146 2.59044 3.75146 2.39913C3.75146 2.20782 3.90019 2.05273 4.08365 2.05273H4.74802C4.93148 2.05273 5.0802 2.20782 5.0802 2.39913C5.0802 2.59044 4.93148 2.74553 4.74802 2.74553Z" fill="#805333"/>
<path d="M6.74118 2.74553H6.07681C5.89335 2.74553 5.74463 2.59044 5.74463 2.39913C5.74463 2.20782 5.89335 2.05273 6.07681 2.05273H6.74118C6.92464 2.05273 7.07336 2.20782 7.07336 2.39913C7.07336 2.59044 6.92464 2.74553 6.74118 2.74553Z" fill="#805333"/>
<path d="M8.73434 2.74553H8.06998C7.88652 2.74553 7.73779 2.59044 7.73779 2.39913C7.73779 2.20782 7.88652 2.05273 8.06998 2.05273H8.73434C8.9178 2.05273 9.06652 2.20782 9.06652 2.39913C9.06652 2.59044 8.9178 2.74553 8.73434 2.74553Z" fill="#805333"/>
<path d="M10.7275 2.74553H10.0631C9.87968 2.74553 9.73096 2.59044 9.73096 2.39913C9.73096 2.20782 9.87968 2.05273 10.0631 2.05273H10.7275C10.911 2.05273 11.0597 2.20782 11.0597 2.39913C11.0597 2.59044 10.911 2.74553 10.7275 2.74553Z" fill="#805333"/>
<path d="M12.7202 2.74553H12.0558C11.8724 2.74553 11.7236 2.59044 11.7236 2.39913C11.7236 2.20782 11.8724 2.05273 12.0558 2.05273H12.7202C12.9036 2.05273 13.0524 2.20782 13.0524 2.39913C13.0524 2.59044 12.9036 2.74553 12.7202 2.74553Z" fill="#805333"/>
<path d="M2.75485 12.7914H2.09048C1.90702 12.7914 1.7583 12.6363 1.7583 12.445C1.7583 12.2537 1.90702 12.0986 2.09048 12.0986H2.75485C2.93831 12.0986 3.08703 12.2537 3.08703 12.445C3.08703 12.6363 2.93831 12.7914 2.75485 12.7914Z" fill="#805333"/>
<path d="M4.74802 12.7914H4.08365C3.90019 12.7914 3.75146 12.6363 3.75146 12.445C3.75146 12.2537 3.90019 12.0986 4.08365 12.0986H4.74802C4.93148 12.0986 5.0802 12.2537 5.0802 12.445C5.0802 12.6363 4.93148 12.7914 4.74802 12.7914Z" fill="#805333"/>
<path d="M6.74118 12.7914H6.07681C5.89335 12.7914 5.74463 12.6363 5.74463 12.445C5.74463 12.2537 5.89335 12.0986 6.07681 12.0986H6.74118C6.92464 12.0986 7.07336 12.2537 7.07336 12.445C7.07336 12.6363 6.92464 12.7914 6.74118 12.7914Z" fill="#805333"/>
<path d="M8.73434 12.7914H8.06998C7.88652 12.7914 7.73779 12.6363 7.73779 12.445C7.73779 12.2537 7.88652 12.0986 8.06998 12.0986H8.73434C8.9178 12.0986 9.06652 12.2537 9.06652 12.445C9.06652 12.6363 8.9178 12.7914 8.73434 12.7914Z" fill="#805333"/>
<path d="M10.7275 12.7914H10.0631C9.87968 12.7914 9.73096 12.6363 9.73096 12.445C9.73096 12.2537 9.87968 12.0986 10.0631 12.0986H10.7275C10.911 12.0986 11.0597 12.2537 11.0597 12.445C11.0597 12.6363 10.911 12.7914 10.7275 12.7914Z" fill="#805333"/>
<path d="M12.7202 12.7914H12.0558C11.8724 12.7914 11.7236 12.6363 11.7236 12.445C11.7236 12.2537 11.8724 12.0986 12.0558 12.0986H12.7202C12.9036 12.0986 13.0524 12.2537 13.0524 12.445C13.0524 12.6363 12.9036 12.7914 12.7202 12.7914Z" fill="#805333"/>
<path d="M11.0597 5.86328H14.3815V8.63444H11.0597C10.3259 8.63444 9.73096 8.01409 9.73096 7.24886C9.73096 6.48363 10.3259 5.86328 11.0597 5.86328Z" fill="#CF976A"/>
<path d="M11.0597 7.59513C11.2432 7.59513 11.3919 7.44004 11.3919 7.24874C11.3919 7.05743 11.2432 6.90234 11.0597 6.90234C10.8763 6.90234 10.7275 7.05743 10.7275 7.24874C10.7275 7.44004 10.8763 7.59513 11.0597 7.59513Z" fill="#D1D4D1"/>
</g>
<defs>
<clipPath id="clip0">
<rect width="17" height="13" fill="white" transform="translate(0 0.830078)"/>
</clipPath>
</defs>
</svg>
