<svg width="24" height="20" viewBox="0 0 24 20" fill="none" xmlns="http://www.w3.org/2000/svg">
<path d="M10.285 1.8587L9.6419 1.47283L10.285 1.8587ZM1.8174 15.9714L1.17428 15.5855H1.17428L1.8174 15.9714ZM22.1826 15.9714L22.8257 15.5855L22.1826 15.9714ZM13.715 1.8587L13.0719 2.24458V2.24458L13.715 1.8587ZM12.75 7.00039C12.75 6.58618 12.4142 6.25039 12 6.25039C11.5858 6.25039 11.25 6.58618 11.25 7.00039H12.75ZM11.25 11.0004C11.25 11.4146 11.5858 11.7504 12 11.7504C12.4142 11.7504 12.75 11.4146 12.75 11.0004H11.25ZM12.75 14.0004C12.75 13.5862 12.4142 13.2504 12 13.2504C11.5858 13.2504 11.25 13.5862 11.25 14.0004H12.75ZM11.25 15.0004C11.25 15.4146 11.5858 15.7504 12 15.7504C12.4142 15.7504 12.75 15.4146 12.75 15.0004H11.25ZM9.6419 1.47283L1.17428 15.5855L2.46052 16.3573L10.9281 2.24457L9.6419 1.47283ZM3.53239 19.7504H20.4676V18.2504H3.53239V19.7504ZM22.8257 15.5855L14.3581 1.47283L13.0719 2.24458L21.5395 16.3573L22.8257 15.5855ZM11.25 7.00039V11.0004H12.75V7.00039H11.25ZM11.25 14.0004V15.0004H12.75V14.0004H11.25ZM20.4676 19.7504C22.6052 19.7504 23.9255 17.4185 22.8257 15.5855L21.5395 16.3573C22.0394 17.1904 21.4392 18.2504 20.4676 18.2504V19.7504ZM1.17428 15.5855C0.0745158 17.4185 1.39482 19.7504 3.53239 19.7504V18.2504C2.56077 18.2504 1.96063 17.1904 2.46052 16.3573L1.17428 15.5855ZM10.9281 2.24457C11.4136 1.4354 12.5864 1.4354 13.0719 2.24458L14.3581 1.47283C13.29 -0.307348 10.71 -0.307353 9.6419 1.47283L10.9281 2.24457Z" fill="#FF2D87"/>
</svg>
