<svg width="20" height="24" viewBox="0 0 20 24" fill="none" xmlns="http://www.w3.org/2000/svg">
<path fill-rule="evenodd" clip-rule="evenodd" d="M10 0.25C10.4142 0.25 10.75 0.585786 10.75 1V2.2912C14.125 2.66428 16.75 5.52558 16.75 9V10.1036C16.75 11.7996 17.3446 13.442 18.4304 14.7449L18.8425 15.2395C20.3352 17.0306 19.0615 19.75 16.7299 19.75H13.75V20C13.75 22.0711 12.0711 23.75 10 23.75C7.92894 23.75 6.25001 22.0711 6.25001 20V19.75H3.27009C0.938539 19.75 -0.335148 17.0306 1.15748 15.2395L1.56961 14.7449C2.65539 13.442 3.25001 11.7996 3.25001 10.1036V9C3.25001 5.52558 5.87504 2.66428 9.25001 2.2912V1C9.25001 0.585786 9.58579 0.25 10 0.25ZM7.75001 19.75V20C7.75001 21.2426 8.75737 22.25 10 22.25C11.2426 22.25 12.25 21.2426 12.25 20V19.75H7.75001ZM3.27009 18.25C2.21029 18.25 1.63135 17.0139 2.30981 16.1998L2.72194 15.7052C4.03236 14.1327 4.75001 12.1505 4.75001 10.1036V9C4.75001 6.10051 7.10051 3.75 10 3.75C12.8995 3.75 15.25 6.10051 15.25 9V10.1036C15.25 12.1505 15.9676 14.1327 17.2781 15.7052L17.6902 16.1998C18.3687 17.0139 17.7897 18.25 16.7299 18.25H3.27009Z" fill="#0D3662"/>
</svg>
