<svg width="264" height="271" viewBox="0 0 264 271" fill="none" xmlns="http://www.w3.org/2000/svg">
<path fill-rule="evenodd" clip-rule="evenodd" d="M147.404 109.493C147.404 109.493 152.601 117.995 160.712 130.998C170.007 145.889 173.921 153.162 173.921 153.162C177.735 158.593 184.719 161.994 190.704 158.711C196.928 155.307 195.46 148.192 192.131 143.538C188.058 137.842 177.959 128.305 172.268 122.897C166.794 117.692 154.847 107.196 152.687 105.234C150.85 103.559 148.619 101.916 146.701 103.928C144.785 105.939 147.404 109.493 147.404 109.493Z" fill="#F8C1D9"/>
<path fill-rule="evenodd" clip-rule="evenodd" d="M201.149 121.78L199.726 121.865C197.481 122.29 195.168 121.701 193.367 120.246C191.565 118.79 190.445 116.605 190.287 114.238L189.736 108.366V108.168L188.009 89.6735C188.009 89.5833 188.009 89.4912 188.009 89.401C187.919 87.6839 188.535 86.0077 189.699 84.7862C190.477 83.974 191.466 83.4087 192.546 83.1619C192.601 83.1408 192.658 83.1257 192.716 83.1178L192.934 83.077C193.733 82.9427 194.551 82.9842 195.331 83.2001C197.093 83.6759 198.539 84.979 199.247 86.725L206.933 105.937L208.571 109.993C210.398 114.875 206.097 120.842 201.149 121.78Z" fill="#F8C1D9"/>
<path fill-rule="evenodd" clip-rule="evenodd" d="M189.514 94.4227C188.821 96.1304 187.885 97.6772 186.745 99L186 89.9197C187.506 87.1544 189.267 85.5235 190.274 86.124C191.491 86.8567 191.138 90.571 189.514 94.4227Z" fill="black"/>
<path fill-rule="evenodd" clip-rule="evenodd" d="M179.919 97.966C187.339 97.2662 194.045 89.2286 194.045 89.2286L199 72.7608C197.998 65.5696 194.238 61.4913 186.916 61.0169C182.404 60.7169 173.883 64.4291 173.142 71.1346C173.142 71.1346 172.732 79.3712 173.307 85.3333C173.883 91.2961 174.857 94.2537 174.857 94.2537C175.664 97.0752 177.233 98.2184 179.919 97.966Z" fill="#F8C1D9"/>
<path d="M180 78L176 77" stroke="black" stroke-width="0.75" stroke-linecap="round"/>
<path fill-rule="evenodd" clip-rule="evenodd" d="M177 83.5008C177 83.7769 176.775 84 176.499 84C176.223 84 176 83.7769 176 83.5008C176 83.2251 176.223 83 176.499 83C176.775 83 177 83.2251 177 83.5008Z" fill="black"/>
<path fill-rule="evenodd" clip-rule="evenodd" d="M181.68 84.5C181.68 84.602 181.598 84.68 181.5 84.68C181.399 84.68 181.32 84.602 181.32 84.5C181.32 84.402 181.399 84.32 181.5 84.32C181.598 84.32 181.68 84.402 181.68 84.5Z" fill="black"/>
<path fill-rule="evenodd" clip-rule="evenodd" d="M177.679 84.5005C177.679 84.5975 177.598 84.6795 177.5 84.6795C177.398 84.6795 177.32 84.5975 177.32 84.5005C177.32 84.4025 177.398 84.3205 177.5 84.3205C177.598 84.3205 177.679 84.4025 177.679 84.5005Z" fill="black"/>
<path fill-rule="evenodd" clip-rule="evenodd" d="M180.679 85.5005C180.679 85.5975 180.602 85.6795 180.501 85.6795C180.403 85.6795 180.32 85.5975 180.32 85.5005C180.32 85.4025 180.403 85.3205 180.501 85.3205C180.602 85.3205 180.679 85.4025 180.679 85.5005Z" fill="black"/>
<path fill-rule="evenodd" clip-rule="evenodd" d="M180.68 84.5005C180.68 84.5975 180.602 84.6795 180.5 84.6795C180.402 84.6795 180.32 84.5975 180.32 84.5005C180.32 84.4025 180.402 84.3205 180.5 84.3205C180.602 84.3205 180.68 84.4025 180.68 84.5005Z" fill="black"/>
<path d="M179 87C178.977 88.6793 177.633 90.0229 176 89.9997" stroke="black" stroke-width="0.75" stroke-linecap="round"/>
<path fill-rule="evenodd" clip-rule="evenodd" d="M90 214.159L111.319 207L118 227.843L96.6785 235L90 214.159Z" fill="#F8C1D9"/>
<path fill-rule="evenodd" clip-rule="evenodd" d="M126 252.117L78.9695 266L77.3015 260.727C76.6682 257.295 76.888 255.608 79.3746 253.205L96.71 235.596L95.5081 231.183L116.98 224L126 252.117Z" fill="#F7F8FB"/>
<path d="M116.955 224L126 252.12L78.9695 266L77.3015 260.729C76.6682 257.297 76.888 255.61 79.3746 253.208L96.71 235.603L95.5081 231.192" stroke="black" stroke-width="0.75"/>
<path d="M76.8973 258.444C76.6981 258.501 76.5826 258.708 76.6393 258.908C76.6961 259.107 76.9035 259.222 77.1027 259.166L76.8973 258.444ZM124.103 245.779C124.302 245.723 124.417 245.515 124.361 245.316C124.304 245.117 124.096 245.001 123.897 245.058L124.103 245.779ZM87.4828 246.768C87.4877 246.975 87.6595 247.139 87.8666 247.134C88.0736 247.129 88.2375 246.958 88.2326 246.751L87.4828 246.768ZM87.6618 238.529L87.9311 238.268L87.2641 237.58L87.2869 238.538L87.6618 238.529ZM94.1482 245.222L93.8789 245.483L94.5641 246.19L94.5228 245.206L94.1482 245.222ZM94.1363 235.984C94.1276 235.777 93.9529 235.617 93.7459 235.625C93.539 235.634 93.3783 235.809 93.387 236.016L94.1363 235.984ZM118.601 246.887C118.541 246.688 118.333 246.575 118.134 246.634C117.936 246.693 117.823 246.902 117.882 247.101L118.601 246.887ZM119.878 253.809C119.937 254.007 120.146 254.12 120.344 254.061C120.543 254.002 120.656 253.793 120.597 253.595L119.878 253.809ZM111.367 248.948C111.308 248.749 111.099 248.636 110.9 248.695C110.702 248.754 110.589 248.963 110.648 249.162L111.367 248.948ZM112.647 255.869C112.707 256.068 112.916 256.181 113.114 256.122C113.312 256.062 113.425 255.854 113.366 255.655L112.647 255.869ZM104.139 251.005C104.08 250.807 103.871 250.694 103.672 250.753C103.474 250.812 103.361 251.021 103.42 251.22L104.139 251.005ZM105.419 257.928C105.478 258.126 105.687 258.239 105.885 258.18C106.084 258.121 106.197 257.912 106.138 257.714L105.419 257.928ZM96.9051 253.066C96.846 252.868 96.6371 252.755 96.4386 252.814C96.2401 252.873 96.1272 253.082 96.1863 253.281L96.9051 253.066ZM98.1851 259.988C98.2443 260.187 98.4531 260.3 98.6516 260.24C98.8501 260.181 98.9631 259.972 98.9039 259.774L98.1851 259.988ZM89.6765 255.124C89.6174 254.926 89.4085 254.813 89.21 254.872C89.0116 254.931 88.8986 255.14 88.9577 255.339L89.6765 255.124ZM90.9565 262.047C91.0157 262.245 91.2245 262.358 91.423 262.299C91.6215 262.24 91.7345 262.031 91.6753 261.832L90.9565 262.047ZM82.4434 257.188C82.3842 256.989 82.1754 256.876 81.9769 256.936C81.7784 256.995 81.6655 257.204 81.7247 257.402L82.4434 257.188ZM83.7235 264.107C83.7826 264.306 83.9915 264.419 84.19 264.359C84.3884 264.3 84.5014 264.091 84.4422 263.893L83.7235 264.107ZM77.1027 259.166L124.103 245.779L123.897 245.058L76.8973 258.444L77.1027 259.166ZM88.2326 246.751L88.0367 238.52L87.2869 238.538L87.4828 246.768L88.2326 246.751ZM87.3925 238.79L93.8789 245.483L94.4175 244.961L87.9311 238.268L87.3925 238.79ZM94.5228 245.206L94.1363 235.984L93.387 236.016L93.7735 245.238L94.5228 245.206ZM117.882 247.101L119.878 253.809L120.597 253.595L118.601 246.887L117.882 247.101ZM110.648 249.162L112.647 255.869L113.366 255.655L111.367 248.948L110.648 249.162ZM103.42 251.22L105.419 257.928L106.138 257.714L104.139 251.005L103.42 251.22ZM96.1863 253.281L98.1851 259.988L98.9039 259.774L96.9051 253.066L96.1863 253.281ZM88.9577 255.339L90.9565 262.047L91.6753 261.832L89.6765 255.124L88.9577 255.339ZM81.7247 257.402L83.7235 264.107L84.4422 263.893L82.4434 257.188L81.7247 257.402Z" fill="black"/>
<path fill-rule="evenodd" clip-rule="evenodd" d="M173.693 80L173.849 84.0372C172.573 84.0372 171.989 84.4708 172 85.0103C172.014 85.5497 172.623 85.9776 173.361 85.9713L174 86" fill="#F8C1D9"/>
<path d="M173.693 80L173.849 84.0372C172.573 84.0372 171.989 84.4708 172 85.0103C172.014 85.5497 172.623 85.9776 173.361 85.9713L174 86" stroke="black" stroke-width="0.75" stroke-linecap="round"/>
<path fill-rule="evenodd" clip-rule="evenodd" d="M198 81.5C198 83.4342 196.432 85 194.499 85C192.567 85 191 83.4342 191 81.5C191 79.5675 192.567 78 194.499 78C196.432 78 198 79.5675 198 81.5Z" fill="black"/>
<path d="M164 70C164 70 169.402 75.8381 177 71.226" stroke="black" stroke-width="0.75" stroke-linecap="round"/>
<path fill-rule="evenodd" clip-rule="evenodd" d="M173 72.4361C173.045 70.5025 173.414 68.5889 174.087 66.7642C175.011 64.4129 177.636 61.7102 181.617 60.3675C187.573 58.2531 194.188 58.6026 199.865 61.333C202.906 62.7812 207.468 66.6432 206.961 75.3326C206.454 84.0219 199.54 89 199.54 89C199.54 89 196.705 82.6413 194.796 80.6427C191.688 77.389 189.727 77.2635 186.179 74.3671C183.171 71.9154 181.617 68.0914 181.617 68.0914C180.513 69.1425 179.328 70.1106 178.069 70.9879C176.279 72.122 173 72.4361 173 72.4361Z" fill="black"/>
<path fill-rule="evenodd" clip-rule="evenodd" d="M75 167.326L106.841 157L125 215.671L93.1585 226L75 167.326Z" fill="#9757FF"/>
<path fill-rule="evenodd" clip-rule="evenodd" d="M196 80.5005C196 82.4325 194.432 84 192.499 84C190.567 84 189 82.4325 189 80.5005C189 78.568 190.567 77 192.499 77C194.432 77 196 78.568 196 80.5005Z" fill="#F8C1D9"/>
<path d="M193.92 81.4325C194.123 81.4766 194.322 81.3482 194.366 81.1459C194.41 80.9435 194.282 80.7437 194.08 80.6997L193.92 81.4325ZM190.626 82.977C190.613 83.1837 190.77 83.3616 190.977 83.3743C191.184 83.387 191.362 83.2297 191.374 83.023L190.626 82.977ZM192.687 82.4584C192.772 82.647 192.995 82.7303 193.183 82.6446C193.372 82.5589 193.455 82.3366 193.369 82.148L192.687 82.4584ZM191.662 81.0903C191.454 81.0867 191.284 81.2517 191.28 81.4588C191.277 81.6659 191.442 81.8366 191.649 81.8401L191.662 81.0903ZM194 81.0661C194.08 80.6997 194.08 80.6996 194.079 80.6996C194.079 80.6996 194.079 80.6995 194.079 80.6995C194.079 80.6994 194.078 80.6994 194.078 80.6993C194.077 80.6991 194.076 80.6989 194.075 80.6987C194.073 80.6982 194.07 80.6976 194.066 80.6969C194.059 80.6954 194.049 80.6935 194.037 80.6912C194.012 80.6865 193.978 80.6804 193.934 80.6738C193.847 80.6605 193.725 80.645 193.579 80.6351C193.288 80.6154 192.889 80.617 192.477 80.7097C192.064 80.8026 191.619 80.9915 191.264 81.3612C190.905 81.7357 190.669 82.2642 190.626 82.977L191.374 83.023C191.409 82.4592 191.588 82.1076 191.806 81.8802C192.028 81.6479 192.323 81.5129 192.641 81.4414C192.959 81.3699 193.281 81.3667 193.528 81.3834C193.65 81.3916 193.751 81.4045 193.821 81.4151C193.855 81.4204 193.882 81.4251 193.899 81.4283C193.907 81.4299 193.914 81.4311 193.917 81.4319C193.919 81.4322 193.92 81.4325 193.921 81.4326C193.921 81.4326 193.921 81.4327 193.921 81.4326C193.921 81.4326 193.921 81.4326 193.921 81.4326C193.921 81.4326 193.921 81.4325 193.92 81.4325C193.92 81.4325 193.92 81.4325 194 81.0661ZM193.369 82.148C193.075 81.501 192.39 81.1027 191.662 81.0903L191.649 81.8401C192.128 81.8483 192.528 82.1097 192.687 82.4584L193.369 82.148Z" fill="black"/>
<path fill-rule="evenodd" clip-rule="evenodd" d="M155.323 0C152.736 3.76267 151.246 8.20468 151.025 12.8116C150.637 22.3513 154.743 35.1241 164.873 40.8986C183.018 51.2464 199.628 48.7826 200.685 55.6812C202.118 65.0435 191.988 65.418 191.988 65.418L199.73 68C199.73 68 213.853 61.6277 213.998 50.9895C214.05 47.0475 213.117 41.9865 207.848 36.9565C203.801 33.0992 199.792 27.5351 198.298 24.1449C195.91 18.7246 196.865 11.8261 201.163 5.91304L155.323 0Z" fill="black"/>
<path fill-rule="evenodd" clip-rule="evenodd" d="M136.386 120L147 117.455L130.614 100L120 102.545L136.386 120Z" fill="black"/>
<path fill-rule="evenodd" clip-rule="evenodd" d="M191.738 195.372C174.671 217.82 148.299 197.733 148.299 197.733L111.386 169.888L90.3302 155.211C90.3302 155.211 76.6092 145.329 86.7121 132.04C92.7007 124.169 100.479 125.738 105.319 127.175C115.239 130.111 169.809 156.673 169.809 156.673L205.983 149.335C205.983 149.335 207.068 175.217 191.738 195.372Z" fill="black"/>
<path fill-rule="evenodd" clip-rule="evenodd" d="M208.736 108.931V104L186.895 104.986V108.797C182.918 113.581 169.396 129.88 166.51 134.076C163.113 139.007 166.51 157.25 166.51 157.25L201.941 175C201.941 175 206.309 159.222 209.706 144.431C213.104 129.639 208.736 108.931 208.736 108.931Z" fill="#F7F8FB"/>
<path d="M178.692 119.275C178.823 119.114 178.798 118.878 178.638 118.747C178.477 118.617 178.241 118.641 178.11 118.801L178.692 119.275ZM166.51 134.076L166.819 134.289L166.819 134.289L166.51 134.076ZM166.51 157.25L166.141 157.319L166.175 157.502L166.342 157.585L166.51 157.25ZM201.941 175L201.773 175.335L202.18 175.54L202.302 175.1L201.941 175ZM208.736 108.931H208.361V108.97L208.369 109.008L208.736 108.931ZM208.736 104H209.111V103.608L208.719 103.625L208.736 104ZM205.043 103.792C204.836 103.802 204.676 103.977 204.685 104.184C204.695 104.391 204.87 104.551 205.077 104.542L205.043 103.792ZM187.27 104.986C187.27 104.779 187.102 104.611 186.895 104.611C186.688 104.611 186.52 104.779 186.52 104.986H187.27ZM186.895 108.797L187.184 109.036L187.27 108.932V108.797H186.895ZM180.54 115.84C180.407 115.999 180.429 116.235 180.588 116.368C180.747 116.501 180.983 116.479 181.116 116.32L180.54 115.84ZM178.11 118.801C173.748 124.159 167.7 131.683 166.201 133.864L166.819 134.289C168.296 132.14 174.318 124.647 178.692 119.275L178.11 118.801ZM166.201 133.864C165.289 135.187 164.862 137.342 164.702 139.753C164.542 142.182 164.649 144.946 164.862 147.543C165.075 150.142 165.395 152.585 165.661 154.378C165.794 155.274 165.914 156.009 166.001 156.519C166.044 156.775 166.079 156.974 166.103 157.11C166.116 157.178 166.125 157.23 166.131 157.265C166.135 157.282 166.137 157.296 166.139 157.305C166.14 157.309 166.14 157.313 166.141 157.315C166.141 157.316 166.141 157.317 166.141 157.318C166.141 157.318 166.141 157.318 166.141 157.318C166.141 157.319 166.141 157.319 166.51 157.25C166.879 157.181 166.879 157.181 166.879 157.181C166.879 157.181 166.879 157.181 166.879 157.181C166.878 157.18 166.878 157.179 166.878 157.178C166.878 157.176 166.877 157.173 166.876 157.169C166.875 157.16 166.872 157.147 166.869 157.13C166.863 157.096 166.854 157.045 166.842 156.978C166.818 156.844 166.783 156.647 166.74 156.394C166.654 155.887 166.535 155.158 166.403 154.267C166.138 152.485 165.821 150.059 165.61 147.481C165.398 144.902 165.293 142.18 165.451 139.802C165.61 137.405 166.032 135.431 166.819 134.289L166.201 133.864ZM166.342 157.585L201.773 175.335L202.109 174.665L166.678 156.915L166.342 157.585ZM201.941 175C202.302 175.1 202.302 175.1 202.302 175.1C202.302 175.1 202.302 175.1 202.302 175.099C202.302 175.099 202.303 175.098 202.303 175.097C202.303 175.095 202.304 175.092 202.305 175.088C202.307 175.081 202.311 175.069 202.315 175.054C202.323 175.024 202.336 174.978 202.352 174.919C202.385 174.799 202.434 174.623 202.497 174.392C202.623 173.932 202.807 173.257 203.038 172.402C203.501 170.69 204.154 168.255 204.912 165.357C206.429 159.562 208.372 151.915 210.072 144.515L209.341 144.347C207.643 151.737 205.703 159.376 204.187 165.167C203.429 168.063 202.777 170.496 202.314 172.206C202.083 173.06 201.899 173.734 201.773 174.194C201.71 174.424 201.662 174.601 201.629 174.72C201.613 174.779 201.6 174.824 201.592 174.854C201.588 174.87 201.584 174.881 201.582 174.889C201.581 174.892 201.581 174.895 201.58 174.897C201.58 174.898 201.58 174.899 201.579 174.899C201.579 174.899 201.579 174.9 201.579 174.9C201.579 174.9 201.579 174.9 201.941 175ZM210.072 144.515C211.784 137.059 211.537 128.136 210.868 121.098C210.534 117.575 210.093 114.516 209.735 112.337C209.556 111.247 209.398 110.377 209.285 109.779C209.228 109.48 209.183 109.249 209.151 109.093C209.136 109.015 209.124 108.955 209.115 108.915C209.111 108.895 209.108 108.879 209.106 108.869C209.105 108.864 209.104 108.86 209.103 108.857C209.103 108.856 209.103 108.855 209.103 108.854C209.103 108.854 209.103 108.854 209.103 108.854C209.103 108.853 209.102 108.853 208.736 108.931C208.369 109.008 208.369 109.008 208.369 109.008C208.369 109.008 208.369 109.008 208.369 109.009C208.369 109.009 208.369 109.01 208.369 109.011C208.37 109.014 208.371 109.017 208.372 109.022C208.374 109.032 208.377 109.047 208.381 109.066C208.389 109.105 208.401 109.164 208.416 109.241C208.447 109.395 208.492 109.623 208.548 109.919C208.66 110.511 208.817 111.375 208.995 112.458C209.35 114.624 209.789 117.666 210.122 121.169C210.788 128.183 211.026 137.01 209.341 144.347L210.072 144.515ZM209.111 108.931V104H208.361V108.931H209.111ZM208.719 103.625L205.043 103.792L205.077 104.542L208.753 104.375L208.719 103.625ZM186.52 104.986V108.797H187.27V104.986H186.52ZM186.606 108.558C185.577 109.801 182.499 113.487 180.54 115.84L181.116 116.32C183.074 113.969 186.154 110.28 187.184 109.036L186.606 108.558Z" fill="black"/>
<path fill-rule="evenodd" clip-rule="evenodd" d="M152 107.172C151.221 109.034 149.587 110.502 147.516 111.198C146.519 111.557 141.56 109.817 141.56 109.817C140.351 110.712 139.907 111.126 139.046 111.646C137.551 112.54 136.664 111.543 137.12 110.828C137.579 110.11 138.804 109.039 139.957 108.17C140.79 107.532 141.596 106.954 142.09 106.59C143.649 105.451 145.751 103.71 147.516 104.041C148.665 104.26 149.509 104.936 152 107.172Z" fill="#F8C1D9"/>
<path d="M144.511 108.281C144.667 108.144 144.682 107.907 144.545 107.752C144.408 107.597 144.171 107.582 144.015 107.719L144.511 108.281ZM138.752 112.359C138.597 112.496 138.582 112.733 138.719 112.889C138.856 113.044 139.093 113.059 139.248 112.922L138.752 112.359ZM147.531 112.54C147.727 112.474 147.832 112.261 147.766 112.065C147.699 111.868 147.487 111.763 147.29 111.83L147.531 112.54ZM141.588 110.164C141.401 110.074 141.177 110.153 141.087 110.339C140.998 110.526 141.076 110.75 141.263 110.84L141.588 110.164ZM193.503 165.334C193.313 165.418 193.228 165.639 193.312 165.828C193.396 166.018 193.618 166.103 193.807 166.019L193.503 165.334ZM195.116 165.725L194.941 166.057L194.95 166.061L195.116 165.725ZM196.699 167.874L196.532 168.21L196.549 168.219L196.567 168.225L196.699 167.874ZM198.116 168.259C198.313 168.195 198.421 167.983 198.357 167.786C198.292 167.589 198.081 167.482 197.884 167.546L198.116 168.259ZM144.015 107.719L138.752 112.359L139.248 112.922L144.511 108.281L144.015 107.719ZM147.29 111.83C147.031 111.918 146.564 111.898 145.937 111.764C145.332 111.635 144.649 111.415 143.999 111.177C143.352 110.939 142.748 110.686 142.306 110.491C142.085 110.394 141.905 110.312 141.78 110.254C141.718 110.226 141.669 110.203 141.637 110.187C141.62 110.18 141.608 110.174 141.6 110.17C141.596 110.168 141.593 110.166 141.591 110.165C141.59 110.165 141.589 110.165 141.588 110.164C141.588 110.164 141.588 110.164 141.588 110.164C141.588 110.164 141.588 110.164 141.588 110.164C141.588 110.164 141.588 110.164 141.425 110.502C141.263 110.84 141.263 110.84 141.263 110.84C141.263 110.84 141.263 110.84 141.263 110.84C141.263 110.84 141.263 110.84 141.264 110.841C141.264 110.841 141.265 110.841 141.266 110.842C141.269 110.843 141.272 110.845 141.277 110.847C141.286 110.851 141.299 110.857 141.316 110.865C141.351 110.882 141.401 110.905 141.465 110.935C141.593 110.994 141.778 111.079 142.004 111.178C142.456 111.376 143.074 111.636 143.741 111.881C144.405 112.125 145.126 112.358 145.781 112.497C146.414 112.633 147.06 112.699 147.531 112.54L147.29 111.83ZM193.807 166.019C194.172 165.857 194.589 165.871 194.941 166.057L195.291 165.393C194.735 165.1 194.077 165.079 193.503 165.334L193.807 166.019ZM194.95 166.061C195.04 166.106 195.126 166.191 195.219 166.343C195.315 166.5 195.395 166.687 195.497 166.917C195.685 167.34 195.947 167.919 196.532 168.21L196.866 167.539C196.555 167.384 196.383 167.064 196.182 166.613C196.09 166.405 195.987 166.161 195.859 165.951C195.728 165.737 195.549 165.521 195.282 165.389L194.95 166.061ZM196.567 168.225C197.065 168.412 197.609 168.425 198.116 168.259L197.884 167.546C197.538 167.659 197.169 167.65 196.831 167.523L196.567 168.225Z" fill="black"/>
<path fill-rule="evenodd" clip-rule="evenodd" d="M129.445 121.409C130.025 122.453 144.571 143.088 148.821 147.638C155.215 154.463 167.056 167.191 173.603 172.565C178.956 176.952 186.417 179.609 191.592 173.08C196.567 166.801 193.244 158.949 186.99 153.915C186.99 153.915 178.53 148.033 161.215 135.535C147.451 125.597 130.216 114.36 129.238 115.028C126.442 116.884 129.223 121.014 129.445 121.409Z" fill="#F8C1D9"/>
<path fill-rule="evenodd" clip-rule="evenodd" d="M132.673 126C130.693 126 127.866 123.093 127.866 123.093C127.866 123.093 122.01 117.764 121.136 114.373C120.562 112.163 121.952 108.56 122.578 109.044C125.044 110.919 127.688 113.351 128.828 114.373C130.27 115.662 137 123.578 137 123.578C137 123.578 135.077 126 132.673 126Z" fill="#F8C1D9"/>
<path fill-rule="evenodd" clip-rule="evenodd" d="M200.551 124.692C206.472 126.812 209.475 133.132 207.284 138.861L195.086 170.789C192.895 176.521 186.366 179.427 180.448 177.307C174.529 175.187 171.526 168.869 173.716 163.138L185.917 131.21C188.105 125.479 194.634 122.574 200.551 124.692Z" fill="#F8C1D9"/>
<path fill-rule="evenodd" clip-rule="evenodd" d="M184 137.801L188.867 123.411C190.994 116.933 197.798 113.463 204.067 115.659C207.06 116.769 209.503 119.064 210.858 122.039C212.213 125.011 212.368 128.421 211.292 131.512L205.03 150" fill="#F7F8FB"/>
<path fill-rule="evenodd" clip-rule="evenodd" d="M51.1518 179L69 192.851L55.8482 210L38 196.148L51.1518 179Z" fill="#F8C1D9"/>
<path fill-rule="evenodd" clip-rule="evenodd" d="M39.1075 230L1 198.135L4.34649 193.754C6.80647 191.303 8.30798 190.526 11.6927 191.272L35.9943 195.998L38.9105 192.497L57 206.571L39.1075 230Z" fill="#F7F8FB"/>
<path d="M58 206.571L39.7777 230L1 198.135L4.40535 193.754C6.90858 191.303 8.4365 190.526 11.8808 191.272L36.6097 195.998L39.5772 192.497" stroke="black" stroke-width="0.75"/>
<path d="M4.58672 192.573C4.4277 192.44 4.19123 192.461 4.05854 192.62C3.92586 192.779 3.94721 193.016 4.10624 193.149L4.58672 192.573ZM41.9216 224.7C42.0807 224.833 42.3171 224.812 42.4498 224.653C42.5825 224.494 42.5611 224.257 42.4021 224.124L41.9216 224.7ZM20.3696 194.74C20.2011 194.86 20.1622 195.095 20.2827 195.263C20.4032 195.432 20.6374 195.471 20.8059 195.35L20.3696 194.74ZM27.3751 190.191L27.7421 190.268L27.9402 189.326L27.1569 189.886L27.3751 190.191ZM25.4358 199.414L25.0689 199.337L24.8653 200.305L25.6595 199.715L25.4358 199.414ZM33.1741 194.133C33.3403 194.009 33.375 193.774 33.2515 193.608C33.128 193.442 32.8931 193.407 32.7268 193.53L33.1741 194.133ZM37.8691 220.746C38.0002 220.586 37.9765 220.35 37.8162 220.219C37.6558 220.088 37.4196 220.111 37.2885 220.272L37.8691 220.746ZM32.7985 225.763C32.6674 225.923 32.6911 226.159 32.8514 226.29C33.0117 226.421 33.248 226.398 33.3791 226.237L32.7985 225.763ZM32.0513 215.892C32.1824 215.732 32.1587 215.496 31.9984 215.365C31.8381 215.234 31.6018 215.257 31.4707 215.418L32.0513 215.892ZM26.9807 220.909C26.8496 221.069 26.8733 221.305 27.0336 221.436C27.194 221.567 27.4302 221.544 27.5613 221.383L26.9807 220.909ZM26.2336 211.038C26.3647 210.878 26.341 210.642 26.1807 210.511C26.0203 210.379 25.7841 210.403 25.653 210.563L26.2336 211.038ZM21.163 216.054C21.0319 216.215 21.0555 216.451 21.2159 216.582C21.3762 216.713 21.6125 216.689 21.7436 216.529L21.163 216.054ZM20.4158 206.184C20.5469 206.024 20.5232 205.788 20.3629 205.656C20.2026 205.525 19.9663 205.549 19.8352 205.709L20.4158 206.184ZM15.3452 211.2C15.2141 211.361 15.2378 211.597 15.3981 211.728C15.5585 211.859 15.7947 211.835 15.9258 211.675L15.3452 211.2ZM14.5981 201.33C14.7292 201.17 14.7055 200.933 14.5451 200.802C14.3848 200.671 14.1486 200.695 14.0175 200.855L14.5981 201.33ZM9.52745 206.346C9.39635 206.507 9.42004 206.743 9.58037 206.874C9.7407 207.005 9.97695 206.981 10.1081 206.821L9.52745 206.346ZM8.78031 196.476C8.91142 196.316 8.88772 196.079 8.7274 195.948C8.56707 195.817 8.33081 195.841 8.19971 196.001L8.78031 196.476ZM3.7097 201.492C3.5786 201.652 3.60229 201.889 3.76262 202.02C3.92295 202.151 4.1592 202.127 4.2903 201.967L3.7097 201.492ZM183.353 130.127C183.423 129.932 183.322 129.717 183.127 129.647C182.932 129.577 182.717 129.678 182.647 129.873L183.353 130.127ZM176.102 148.076C176.032 148.271 176.133 148.486 176.328 148.556C176.523 148.626 176.738 148.525 176.808 148.33L176.102 148.076ZM153.58 131.318C153.413 131.196 153.178 131.232 153.055 131.399C152.933 131.566 152.969 131.801 153.136 131.923L153.58 131.318ZM180.65 152.088C180.817 152.21 181.051 152.174 181.174 152.007C181.296 151.84 181.26 151.605 181.093 151.483L180.65 152.088ZM4.10624 193.149L41.9216 224.7L42.4021 224.124L4.58672 192.573L4.10624 193.149ZM20.8059 195.35L27.5932 190.496L27.1569 189.886L20.3696 194.74L20.8059 195.35ZM27.0081 190.114L25.0689 199.337L25.8028 199.491L27.7421 190.268L27.0081 190.114ZM25.6595 199.715L33.1741 194.133L32.7268 193.53L25.2122 199.113L25.6595 199.715ZM37.2885 220.272L32.7985 225.763L33.3791 226.237L37.8691 220.746L37.2885 220.272ZM31.4707 215.418L26.9807 220.909L27.5613 221.383L32.0513 215.892L31.4707 215.418ZM25.653 210.563L21.163 216.054L21.7436 216.529L26.2336 211.038L25.653 210.563ZM19.8352 205.709L15.3452 211.2L15.9258 211.675L20.4158 206.184L19.8352 205.709ZM14.0175 200.855L9.52745 206.346L10.1081 206.821L14.5981 201.33L14.0175 200.855ZM8.19971 196.001L3.7097 201.492L4.2903 201.967L8.78031 196.476L8.19971 196.001ZM182.647 129.873L176.102 148.076L176.808 148.33L183.353 130.127L182.647 129.873ZM153.136 131.923L180.65 152.088L181.093 151.483L153.58 131.318L153.136 131.923Z" fill="black"/>
<path fill-rule="evenodd" clip-rule="evenodd" d="M136.128 119.853C138.248 124.532 139.459 128.617 138.837 128.975C138.213 129.331 135.992 125.828 133.872 121.148C131.754 116.467 130.541 112.384 131.163 112.025C131.786 111.667 134.01 115.172 136.128 119.853Z" fill="#F8C1D9"/>
<path fill-rule="evenodd" clip-rule="evenodd" d="M76.2416 212L43 188.291L88.2481 129.056C92.9479 122.738 102.902 122.277 110.493 128.035C118.072 133.793 120.107 138.049 115.707 149.906C115.707 149.906 113.195 160.243 108.984 168.037C103.534 178.067 92.973 179.502 88.3061 187.289C84.1047 194.279 85.0319 198.98 81.8557 204.786C79.4707 209.111 77.2462 211.529 76.2416 212Z" fill="black"/>
<path d="M191 169.05C189.511 171.112 186.171 174.853 184.593 176.608C176.31 185.844 171.381 188.786 156.949 181.183C147.773 176.322 119.239 158.133 107.641 152.672C104.323 151.112 99.8733 152.338 96.9248 155.624L61 202" stroke="#9757FF" stroke-width="0.75"/>
<path d="M194.661 126.184L194.322 126.023L193.984 126.735L194.75 126.549L194.661 126.184ZM195.821 125.261L195.901 125.627L195.908 125.625L195.916 125.623L195.821 125.261ZM198.395 125.846L198.489 126.209L198.505 126.204L198.52 126.199L198.395 125.846ZM199.404 125.027L199.724 125.222L200.198 124.447L199.315 124.663L199.404 125.027ZM199.939 114.663L199.583 114.78L199.832 115.536L200.256 114.863L199.939 114.663ZM200.135 113.197L200.448 113.404L200.452 113.398L200.456 113.391L200.135 113.197ZM202.395 111.823L202.715 112.02L202.724 112.005L202.731 111.989L202.395 111.823ZM202.55 110.528L202.916 110.448L202.72 109.556L202.233 110.328L202.55 110.528ZM186.868 115.629L186.729 115.281L185.995 115.574L186.687 115.957L186.868 115.629ZM188.329 115.731L188.144 116.057L188.152 116.061L188.329 115.731ZM189.834 117.909L189.658 118.24L189.672 118.247L189.687 118.254L189.834 117.909ZM191.13 117.987L191.235 118.348L192.101 118.096L191.312 117.659L191.13 117.987ZM179.538 129.746L179.552 129.371L178.772 129.341L179.236 129.969L179.538 129.746ZM180.839 130.458L180.532 130.673L180.537 130.68L180.542 130.686L180.839 130.458ZM181.296 133.065L180.997 133.292L181.007 133.306L181.019 133.318L181.296 133.065ZM182.445 133.676L182.389 134.047L183.285 134.182L182.746 133.453L182.445 133.676ZM168.629 139.67L168.262 139.59L168.092 140.368L168.8 140.003L168.629 139.67ZM169.544 138.502L169.708 138.84L169.715 138.836L169.721 138.833L169.544 138.502ZM172.184 138.469L172.36 138.8L172.375 138.792L172.39 138.783L172.184 138.469ZM172.973 137.434L173.33 137.549L173.609 136.685L172.802 137.1L172.973 137.434ZM202.408 137.009L202.424 136.634L201.638 136.6L202.106 137.232L202.408 137.009ZM203.709 137.721L203.403 137.939L203.411 137.949L203.709 137.721ZM204.171 140.329L203.872 140.556L203.882 140.569L203.893 140.581L204.171 140.329ZM205.317 140.939L205.264 141.311L206.153 141.438L205.619 140.716L205.317 140.939ZM149.513 20L149.843 19.8233L149.142 20.0581L149.513 20ZM158.025 35.9384L157.771 36.2141L158.356 35.7617L158.025 35.9384ZM198.687 68.8449L198.488 68.5266L198.769 69.2108L198.687 68.8449ZM214 59.2999L214.292 59.5349L213.802 58.9817L214 59.2999ZM195 126.345C195.173 125.978 195.504 125.714 195.901 125.627L195.74 124.894C195.116 125.031 194.595 125.448 194.322 126.023L195 126.345ZM195.916 125.623C196.012 125.598 196.13 125.606 196.297 125.659C196.469 125.715 196.648 125.803 196.874 125.91C197.287 126.106 197.858 126.372 198.489 126.209L198.301 125.483C197.968 125.569 197.636 125.441 197.195 125.232C196.993 125.137 196.758 125.02 196.526 124.945C196.288 124.869 196.013 124.823 195.725 124.898L195.916 125.623ZM198.52 126.199C199.022 126.021 199.446 125.678 199.724 125.222L199.084 124.831C198.896 125.139 198.61 125.371 198.269 125.492L198.52 126.199ZM199.315 124.663L194.572 125.82L194.75 126.549L199.493 125.391L199.315 124.663ZM200.296 114.546C200.169 114.16 200.225 113.741 200.448 113.404L199.822 112.99C199.472 113.519 199.385 114.178 199.583 114.78L200.296 114.546ZM200.456 113.391C200.508 113.305 200.599 113.227 200.756 113.149C200.918 113.069 201.108 113.007 201.344 112.927C201.778 112.781 202.373 112.575 202.715 112.02L202.076 111.627C201.895 111.921 201.566 112.06 201.104 112.217C200.892 112.289 200.641 112.369 200.422 112.477C200.198 112.589 199.968 112.748 199.814 113.003L200.456 113.391ZM202.731 111.989C202.967 111.512 203.03 110.967 202.916 110.448L202.184 110.609C202.262 110.965 202.218 111.336 202.059 111.657L202.731 111.989ZM202.233 110.328L199.622 114.462L200.256 114.863L202.867 110.729L202.233 110.328ZM187.008 115.977C187.378 115.829 187.796 115.859 188.144 116.057L188.515 115.405C187.97 115.095 187.313 115.047 186.729 115.281L187.008 115.977ZM188.152 116.061C188.24 116.109 188.323 116.195 188.41 116.349C188.499 116.507 188.572 116.695 188.666 116.926C188.839 117.352 189.081 117.934 189.658 118.24L190.01 117.577C189.704 117.415 189.544 117.096 189.361 116.644C189.277 116.437 189.182 116.191 189.062 115.979C188.939 115.762 188.769 115.541 188.507 115.4L188.152 116.061ZM189.687 118.254C190.177 118.463 190.723 118.496 191.235 118.348L191.026 117.627C190.68 117.727 190.313 117.705 189.981 117.564L189.687 118.254ZM191.312 117.659L187.05 115.301L186.687 115.957L190.949 118.316L191.312 117.659ZM179.523 130.121C179.925 130.136 180.299 130.341 180.532 130.673L181.146 130.243C180.78 129.72 180.191 129.396 179.552 129.371L179.523 130.121ZM180.542 130.686C180.603 130.766 180.642 130.879 180.657 131.053C180.673 131.234 180.661 131.434 180.649 131.683C180.628 132.141 180.602 132.772 180.997 133.292L181.594 132.839C181.386 132.564 181.375 132.207 181.398 131.718C181.409 131.495 181.426 131.232 181.405 130.988C181.383 130.739 181.319 130.466 181.136 130.229L180.542 130.686ZM181.019 133.318C181.38 133.714 181.864 133.968 182.389 134.047L182.501 133.306C182.143 133.252 181.816 133.079 181.573 132.813L181.019 133.318ZM182.746 133.453L179.839 129.523L179.236 129.969L182.143 133.899L182.746 133.453ZM168.995 139.75C169.082 139.352 169.346 139.015 169.708 138.84L169.38 138.165C168.809 138.442 168.397 138.97 168.262 139.59L168.995 139.75ZM169.721 138.833C169.81 138.785 169.927 138.765 170.101 138.778C170.281 138.792 170.476 138.836 170.72 138.887C171.167 138.981 171.783 139.106 172.36 138.8L172.009 138.138C171.703 138.3 171.35 138.253 170.874 138.153C170.656 138.107 170.4 138.048 170.157 138.03C169.908 138.012 169.63 138.031 169.367 138.172L169.721 138.833ZM172.39 138.783C172.834 138.492 173.167 138.055 173.33 137.549L172.616 137.319C172.506 137.662 172.28 137.958 171.979 138.155L172.39 138.783ZM172.802 137.1L168.457 139.337L168.8 140.003L173.145 137.767L172.802 137.1ZM202.391 137.384C202.794 137.401 203.167 137.606 203.403 137.938L204.015 137.504C203.647 136.986 203.062 136.662 202.424 136.634L202.391 137.384ZM203.411 137.949C203.473 138.03 203.513 138.144 203.528 138.318C203.544 138.499 203.532 138.699 203.521 138.948C203.501 139.406 203.477 140.035 203.872 140.556L204.469 140.102C204.26 139.826 204.249 139.469 204.271 138.981C204.281 138.758 204.297 138.495 204.275 138.252C204.253 138.002 204.188 137.73 204.007 137.493L203.411 137.949ZM203.893 140.581C204.25 140.976 204.736 141.235 205.264 141.311L205.371 140.568C205.016 140.517 204.689 140.344 204.449 140.077L203.893 140.581ZM205.619 140.716L202.709 136.786L202.106 137.232L205.016 141.162L205.619 140.716ZM47.3914 208.785C47.3914 211.007 45.5946 212.807 43.3832 212.807V213.557C46.0108 213.557 48.1414 211.419 48.1414 208.785H47.3914ZM43.3832 212.807C41.1687 212.807 39.375 211.007 39.375 208.785H38.625C38.625 211.419 40.7521 213.557 43.3832 213.557V212.807ZM39.375 208.785C39.375 206.564 41.1687 204.764 43.3832 204.764V204.014C40.7521 204.014 38.625 206.152 38.625 208.785H39.375ZM43.3832 204.764C45.5946 204.764 47.3914 206.564 47.3914 208.785H48.1414C48.1414 206.152 46.0108 204.014 43.3832 204.014V204.764ZM113.626 237.604C113.626 239.825 111.829 241.625 109.618 241.625V242.375C112.246 242.375 114.376 240.237 114.376 237.604H113.626ZM109.618 241.625C107.403 241.625 105.61 239.825 105.61 237.604H104.86C104.86 240.237 106.987 242.375 109.618 242.375V241.625ZM105.61 237.604C105.61 235.383 107.403 233.583 109.618 233.583V232.833C106.987 232.833 104.86 234.971 104.86 237.604H105.61ZM109.618 233.583C111.829 233.583 113.626 235.383 113.626 237.604H114.376C114.376 234.971 112.246 232.833 109.618 232.833V233.583ZM149.142 20.0581C150.116 26.2648 153.159 31.9612 157.771 36.2141L158.279 35.6627C153.792 31.5247 150.831 25.9816 149.883 19.9419L149.142 20.0581ZM158.356 35.7617L149.843 19.8233L149.182 20.1767L157.694 36.1151L158.356 35.7617ZM198.769 69.2108C204.886 67.8389 210.358 64.4295 214.292 59.5349L213.708 59.065C209.88 63.8273 204.556 67.1443 198.605 68.479L198.769 69.2108ZM213.802 58.9817L198.488 68.5266L198.885 69.1631L214.198 59.6182L213.802 58.9817Z" fill="black"/>
<path d="M208.432 220.711V221.086H208.704L208.788 220.828L208.432 220.711ZM114.527 220.711L114.17 220.826L114.253 221.086H114.527V220.711ZM94 156.685L94.0007 156.31L93.4857 156.309L93.6429 156.799L94 156.685ZM229.2 156.926L229.557 157.042L229.716 156.552L229.201 156.551L229.2 156.926ZM229.2 156.926L228.843 156.811L228.409 158.158L229.453 157.203L229.2 156.926ZM239.17 126V125.625H238.897L238.813 125.885L239.17 126ZM263 126L263.253 126.277L263.965 125.625H263V126ZM208.531 220.228L208.887 220.346L209.131 219.608L208.402 219.876L208.531 220.228ZM198.318 251.154V251.529H198.589L198.674 251.272L198.318 251.154ZM124.396 251.154L124.266 250.802L124.396 251.529V251.154ZM208.432 220.336H114.527V221.086H208.432V220.336ZM114.884 220.597L94.3571 156.57L93.6429 156.799L114.17 220.826L114.884 220.597ZM93.9993 157.06L229.199 157.301L229.201 156.551L94.0007 156.31L93.9993 157.06ZM228.843 156.81L208.075 220.595L208.788 220.828L229.557 157.042L228.843 156.81ZM229.557 157.041L239.527 126.115L238.813 125.885L228.843 156.811L229.557 157.041ZM239.17 126.375H263V125.625H239.17V126.375ZM262.747 125.723L228.947 156.65L229.453 157.203L263.253 126.277L262.747 125.723ZM186.273 220.827L206.942 157.042L206.229 156.811L185.56 220.596L186.273 220.827ZM206.229 156.811L185.56 220.596L186.273 220.827L206.942 157.042L206.229 156.811ZM136.911 220.596L116.242 156.811L115.528 157.042L136.197 220.827L136.911 220.596ZM115.528 157.042L136.197 220.827L136.911 220.596L116.242 156.811L115.528 157.042ZM161.489 220.954L161.732 157.169L160.982 157.166L160.739 220.952L161.489 220.954ZM160.982 157.166L160.739 220.952L161.489 220.954L161.732 157.169L160.982 157.166ZM208.175 220.111L197.962 251.037L198.674 251.272L208.887 220.346L208.175 220.111ZM198.318 250.779H124.396V251.529H198.318V250.779ZM124.525 251.506L208.66 220.58L208.402 219.876L124.266 250.802L124.525 251.506ZM146.149 265.893C146.149 267.951 144.467 269.625 142.39 269.625V270.375C144.877 270.375 146.899 268.37 146.899 265.893H146.149ZM142.39 269.625C140.31 269.625 138.631 267.951 138.631 265.893H137.881C137.881 268.37 139.9 270.375 142.39 270.375V269.625ZM138.631 265.893C138.631 263.834 140.31 262.16 142.39 262.16V261.41C139.9 261.41 137.881 263.415 137.881 265.893H138.631ZM142.39 262.16C144.467 262.16 146.149 263.834 146.149 265.893H146.899C146.899 263.415 144.877 261.41 142.39 261.41V262.16ZM171.438 265.893C171.438 267.951 169.756 269.625 167.679 269.625V270.375C170.166 270.375 172.188 268.37 172.188 265.893H171.438ZM167.679 269.625C165.599 269.625 163.92 267.951 163.92 265.893H163.17C163.17 268.37 165.189 270.375 167.679 270.375V269.625ZM163.92 265.893C163.92 263.834 165.599 262.16 167.679 262.16V261.41C165.189 261.41 163.17 263.415 163.17 265.893H163.92ZM167.679 262.16C169.756 262.16 171.438 263.834 171.438 265.893H172.188C172.188 263.415 170.166 261.41 167.679 261.41V262.16Z" fill="black"/>
<path d="M107.47 197.317C107.263 197.317 107.095 197.485 107.095 197.692C107.095 197.899 107.263 198.067 107.47 198.067V197.317ZM215.391 198.067C215.598 198.067 215.766 197.899 215.766 197.692C215.766 197.485 215.598 197.317 215.391 197.317V198.067ZM101 177.933C100.793 177.933 100.625 178.101 100.625 178.308C100.625 178.515 100.793 178.683 101 178.683V177.933ZM222 178.683C222.207 178.683 222.375 178.515 222.375 178.308C222.375 178.101 222.207 177.933 222 177.933V178.683ZM107.47 198.067H215.391V197.317H107.47V198.067ZM101 178.683H222V177.933H101V178.683Z" fill="black"/>
</svg>
