<svg xmlns="http://www.w3.org/2000/svg" fill="none" viewBox="0 0 30 30" height="30" width="30">
<path fill="#FECE2F" d="M15 30C23.2843 30 30 23.2843 30 15C30 6.71573 23.2843 0 15 0C6.71573 0 0 6.71573 0 15C0 23.2843 6.71573 30 15 30Z" clip-rule="evenodd" fill-rule="evenodd"></path>
<path fill="white" d="M20.4375 21.9375H9.5625V15C9.5625 14.6893 9.31066 14.4375 9 14.4375C8.68934 14.4375 8.4375 14.6893 8.4375 15V22.5C8.4375 22.8107 8.68934 23.0625 9 23.0625H21C21.3107 23.0625 21.5625 22.8107 21.5625 22.5V15C21.5625 14.6893 21.3107 14.4375 21 14.4375C20.6893 14.4375 20.4375 14.6893 20.4375 15V21.9375Z"></path>
<path fill="white" d="M7.5 10.6875C7.18934 10.6875 6.9375 10.9393 6.9375 11.25V15C6.9375 15.3107 7.18934 15.5625 7.5 15.5625H22.5C22.8107 15.5625 23.0625 15.3107 23.0625 15V11.25C23.0625 10.9393 22.8107 10.6875 22.5 10.6875H7.5ZM8.06251 14.4375V11.8125H21.9375V14.4375H8.06251Z" clip-rule="evenodd" fill-rule="evenodd"></path>
<path fill="white" d="M15.6875 22.5V11.25C15.6875 10.9393 15.4077 10.6875 15.0625 10.6875C14.7173 10.6875 14.4375 10.9393 14.4375 11.25V22.5C14.4375 22.8107 14.7173 23.0625 15.0625 23.0625C15.4077 23.0625 15.6875 22.8107 15.6875 22.5Z"></path>
<path fill="white" d="M15 11.8125C15.355 11.8125 15.6212 11.4878 15.5516 11.1397L15.5145 10.9751C15.4988 10.9111 15.4797 10.8383 15.457 10.7578L15.3781 10.4942C15.2285 10.022 15.0347 9.54927 14.7897 9.10392C14.0564 7.77053 13.0151 6.9375 11.625 6.9375C10.2788 6.9375 9.1875 8.02881 9.1875 9.375C9.1875 10.7212 10.2788 11.8125 11.625 11.8125H15ZM13.804 9.64608C13.9401 9.89354 14.0589 10.1546 14.161 10.4204L14.2575 10.6875H11.625C10.9001 10.6875 10.3125 10.0999 10.3125 9.375C10.3125 8.65012 10.9001 8.0625 11.625 8.0625C12.5318 8.0625 13.2483 8.63571 13.804 9.64608Z" clip-rule="evenodd" fill-rule="evenodd"></path>
<path fill="white" d="M18.3752 11.8125H15.0002C14.6452 11.8125 14.379 11.4878 14.4486 11.1397C14.4577 11.0943 14.47 11.0391 14.4857 10.9751L14.5431 10.7578L14.6221 10.4942C14.7717 10.022 14.9655 9.54927 15.2104 9.10392C15.9438 7.77053 16.9851 6.9375 18.3752 6.9375C19.7214 6.9375 20.8127 8.02881 20.8127 9.375C20.8127 10.7212 19.7214 11.8125 18.3752 11.8125ZM18.3752 8.0625C17.4684 8.0625 16.7519 8.63571 16.1962 9.64608C16.0147 9.97603 15.864 10.3302 15.7427 10.6875H18.3752C19.1001 10.6875 19.6877 10.0999 19.6877 9.375C19.6877 8.65012 19.1001 8.0625 18.3752 8.0625Z" clip-rule="evenodd" fill-rule="evenodd"></path>
</svg>
