<svg width="374" height="74" viewBox="0 0 374 74" fill="none" xmlns="http://www.w3.org/2000/svg">
<rect y="17" width="375" height="56" fill="#965EFF"/>
<path opacity="0.363444" d="M305.158 63.9907L311.544 61" stroke="white" stroke-width="1.5" stroke-linecap="round"/>
<path opacity="0.363444" d="M285.548 30.7358L280.713 23.2451" stroke="white" stroke-width="1.5" stroke-linecap="round"/>
<path opacity="0.363444" d="M155.534 57.7358L159.563 50.4998" stroke="white" stroke-width="1.5" stroke-linecap="round"/>
<path d="M222.22 72.5454L231.487 68.4367" stroke="white" stroke-width="1.5" stroke-linecap="round"/>
<path opacity="0.363444" d="M22.5645 71.9907L20.9528 67.5" stroke="white" stroke-width="1.5" stroke-linecap="round"/>
<path d="M146.938 29.7358L145.326 25.2451" stroke="white" stroke-width="1.5" stroke-linecap="round"/>
<path opacity="0.363444" d="M28.7432 29.2456L33.5784 31.7549" stroke="white" stroke-width="1.5" stroke-linecap="round"/>
<path d="M3.22363 66.9907L8.05888 69.5" stroke="white" stroke-width="1.5" stroke-linecap="round"/>
<path fill-rule="evenodd" clip-rule="evenodd" d="M79.3545 48.2856C75.8656 48.6055 68.8634 48.9636 65.9653 48.9636C61.9505 48.9636 58.928 48.9636 55.1211 48.7944C52.1641 48.6645 49.0791 46.7434 49.8295 43.0885C50.5513 39.5576 52.5115 38.3806 57.1201 39.6913C57.1201 39.6913 56.6988 39.4766 65.5004 41.9765C72.5883 43.9921 78.8319 45.272 79.6878 45.4816C80.6596 45.717 81.282 45.717 81.282 47.0167C81.2772 48.5308 80.418 48.1887 79.3545 48.2856Z" fill="#F8C1D9"/>
<path fill-rule="evenodd" clip-rule="evenodd" d="M78.8583 45.9003C78.8583 45.9003 77.7234 47.2917 79.0735 47.9164C80.2945 48.4912 82.7183 47.2955 82.7183 47.2955L85.5796 47.8875C85.8387 47.9442 86.1151 47.8676 86.2765 47.6959C86.5542 47.3755 87.0347 46.8236 87.0209 46.5081C86.9822 45.7416 84.2221 44.6169 83.4175 44.5191C82.4204 44.3944 78.8583 45.9003 78.8583 45.9003Z" fill="#F8C1D9"/>
<path d="M90.9949 44.2851C92.9085 43.4051 95.1481 43.7598 96.0511 45.74C96.964 47.7418 95.8601 49.6975 94.0245 50.5455C93.9724 50.5696 93.9496 50.6314 93.9737 50.6835C93.9977 50.7357 94.0594 50.7585 94.1115 50.7344C96.0404 49.8434 97.2077 47.7753 96.2401 45.6536C95.2802 43.5485 92.9138 43.1737 90.9082 44.096C90.8561 44.12 90.8332 44.1818 90.8572 44.234C90.8811 44.2862 90.9428 44.3091 90.9949 44.2851Z" fill="black"/>
<path fill-rule="evenodd" clip-rule="evenodd" d="M87.7636 38.3761C89.0407 39.784 89.3153 41.2809 88.3769 41.7195C87.4389 42.1589 85.6425 41.3736 84.3654 39.9659C83.0886 38.558 82.8137 37.0611 83.752 36.6217C84.6904 36.1829 86.4868 36.9684 87.7636 38.3761Z" fill="black"/>
<path d="M87.021 42.1712L88.4969 44.5125L88.9341 44.1831L87.4582 41.8418L87.021 42.1712Z" fill="black"/>
<path fill-rule="evenodd" clip-rule="evenodd" d="M80.3305 49.2309C81.1373 48.4278 82.1238 47.7988 83.2209 47.3873C85.0276 46.7169 87.3735 43.8648 88.0981 43.6958C88.6123 43.5767 90.052 43.6284 90.8299 43.668C91.1479 43.6844 91.4305 43.8627 91.563 44.1312L94.6166 50.3616C94.7649 50.6673 94.6143 51.027 94.2817 51.1576L91.3487 52.9826V54.8305L86.6347 56.9757V55.2284L85.5736 55.7755C85.0836 56.0294 84.4654 55.8874 84.1574 55.4513C82.9463 53.7443 80.1887 49.7647 80.3305 49.2309Z" fill="black"/>
<path fill-rule="evenodd" clip-rule="evenodd" d="M86.8351 48.2201C86.8351 48.2201 89.2991 48.3756 88.8881 49.0022C88.4758 49.6289 86.8351 50.4071 85.6037 50.5636C84.371 50.7191 82.9367 50.8766 82.1138 50.5636C81.2908 50.2499 80.4727 50.5636 79.6523 50.5636C78.8316 50.5636 78.0113 50.2519 78.6274 49.4695C79.2439 48.6873 81.4999 48.0732 82.3202 48.0732C83.1409 48.0732 86.8351 48.2201 86.8351 48.2201Z" fill="#C7A9FF"/>
<path fill-rule="evenodd" clip-rule="evenodd" d="M87.1962 57.0541C86.9626 57.7088 86.9626 58.4157 87.1962 59.0704C87.5892 60.1701 89.5468 64.3843 89.9377 66.4026C90.2209 67.8555 90.3299 72.9998 90.3299 72.9998H112.848C112.667 71.7844 112.125 70.6418 111.282 69.7018C110.548 68.9169 107.261 64.7195 103.818 60.9877C102.55 59.6094 100.884 57.9025 99.3792 56.3905C97.1927 54.1867 93.6801 53.6657 90.8744 55.1324L87.1962 57.0541Z" fill="black"/>
<mask id="mask0" mask-type="alpha" maskUnits="userSpaceOnUse" x="26" y="53" width="87" height="20">
<path fill-rule="evenodd" clip-rule="evenodd" d="M26.8433 53.5244H112.686V72.9828H26.8433V53.5244Z" fill="white"/>
</mask>
<g mask="url(#mask0)">
<path fill-rule="evenodd" clip-rule="evenodd" d="M93.3267 57.6889C94.1012 59.5103 96.2339 62.7866 97.5896 64.4268C101.364 68.9902 101.726 72.801 101.726 72.801H112.686C112.508 71.5936 111.97 70.4585 111.137 69.5248C110.412 68.7451 107.16 64.5754 103.754 60.8683C102.018 58.976 99.525 56.4536 97.7596 54.6906C96.521 53.453 94.5452 53.1661 92.9664 53.9953C92.9664 53.9953 92.5896 55.9585 93.3267 57.6889Z" fill="#C7A9FF"/>
<path fill-rule="evenodd" clip-rule="evenodd" d="M32.1576 65.9929C32.1576 65.9929 28.0886 65.7239 27.2243 67.5929C26.7075 68.7121 26.535 71.9647 27.8971 72.5117C29.2602 73.0584 37.5801 72.5117 39.324 72.5117C41.0688 72.5117 51.1371 73.6053 53.4625 74.6978C55.7878 75.7911 66.2824 79.6661 67.6656 78.6097C73.8697 73.8573 73.8697 70.4011 73.8697 70.4011L52.7299 66.7288L32.1576 65.9929Z" fill="#9757FF"/>
</g>
<path fill-rule="evenodd" clip-rule="evenodd" d="M51.6004 47.3297C47.8846 45.8632 48.5283 42.8373 49.5556 40.6217C50.3317 38.9562 52.9339 35.0941 55.155 31.5994C56.9726 28.7272 61.3428 23.0802 62.1555 22.2171C63.3591 20.9392 64.3164 19.8308 66.2951 20.9154C68.4699 22.0938 69.2488 24.3989 68.6535 26.0609C68.0428 27.7657 65.6038 33.4605 63.4751 37.7607C61.4303 41.8825 59.3855 45.4791 59.3855 45.4791C57.5276 48.1555 55.1741 48.7398 51.6004 47.3297Z" fill="#F8C1D9"/>
<path fill-rule="evenodd" clip-rule="evenodd" d="M54.498 34.3284C56.3344 31.7044 60.7459 25.1207 63.0438 22.9711C64.5193 21.5913 67.0167 20.7827 69.4545 21.8734C72.0067 23.0171 72.0416 24.5327 71.2908 26.3657C70.7742 27.6455 67.1015 35.1662 65.405 38.2808" fill="white"/>
<path fill-rule="evenodd" clip-rule="evenodd" d="M47.4409 36.8525L21.0342 35.6122C19.7109 35.5498 18.5936 36.5228 18.5289 37.7939L17.1949 64.0083C17.1298 65.2796 18.1424 66.3526 19.4662 66.415L45.8725 67.6553C47.1958 67.7178 48.3134 66.7443 48.3779 65.4739L49.7122 39.2584C49.7769 37.9879 48.764 36.9146 47.4409 36.8525Z" fill="white"/>
<mask id="mask1" mask-type="alpha" maskUnits="userSpaceOnUse" x="73" y="62" width="15" height="11">
<path fill-rule="evenodd" clip-rule="evenodd" d="M73.8574 62.4297H87.7402V72.9822H73.8574V62.4297Z" fill="white"/>
</mask>
<g mask="url(#mask1)">
<path fill-rule="evenodd" clip-rule="evenodd" d="M82.3495 85.1215L73.8574 83.8358L76.1006 66.4965C76.4928 64.3726 78.2528 61.7325 83.0357 62.5987C86.5842 63.2483 88.1026 65.7848 87.6677 68.142L82.3495 85.1215Z" fill="black"/>
</g>
<path fill-rule="evenodd" clip-rule="evenodd" d="M43.9756 65.7479L46.4354 65.8755C46.9764 65.9037 47.5057 65.7014 47.9072 65.3128C48.3089 64.9243 48.5493 64.3811 48.5757 63.8025L49.7125 38.8964C49.7392 38.318 49.5498 37.7519 49.1862 37.3236C48.8229 36.8941 48.315 36.6371 47.7739 36.6089L45.6709 36.5L43.9756 65.7479ZM46.522 65.6703L46.4448 65.668L44.1817 65.5506L45.853 36.7176L47.7645 36.8165C48.2539 36.8421 48.7135 37.0746 49.0422 37.4632C49.3712 37.8507 49.5425 38.363 49.5184 38.8863L48.3816 63.7925C48.3577 64.3159 48.1403 64.8073 47.7768 65.1588C47.4326 65.4919 46.9845 65.6738 46.522 65.6703Z" fill="black"/>
<path fill-rule="evenodd" clip-rule="evenodd" d="M73.612 14.5137C73.612 14.5531 73.612 14.5933 73.5955 14.6327L72.3144 22.6583V22.7448L71.8932 25.2983C71.7591 26.3273 71.1758 27.2519 70.2901 27.8418C69.4033 28.4316 68.2984 28.6292 67.2517 28.3865L66.5796 28.3157C64.2695 27.7811 62.3922 25.0803 63.3734 22.9864L68.3823 13.0645C68.8516 12.1376 69.8352 11.5558 70.9051 11.5736C71.0882 11.5736 71.2713 11.5941 71.45 11.632C71.4837 11.6378 71.5175 11.6444 71.5503 11.6536C71.5784 11.6591 71.605 11.6671 71.6307 11.6772C72.9235 12.0286 73.7613 13.2296 73.612 14.5137Z" fill="#F8C1D9"/>
<path fill-rule="evenodd" clip-rule="evenodd" d="M80.2697 70.3297L55.9113 66.6828C48.4877 65.6511 47.0813 61.8474 48.0915 57.4411C48.3114 56.475 48.9675 53.415 48.9675 53.415L70.0574 56.2938L86.0644 63.0066L80.2697 70.3297Z" fill="black"/>
<mask id="mask2" mask-type="alpha" maskUnits="userSpaceOnUse" x="53" y="54" width="28" height="19">
<path fill-rule="evenodd" clip-rule="evenodd" d="M53.7944 54.4209H80.0649V72.9822H53.7944V54.4209Z" fill="white"/>
</mask>
<g mask="url(#mask2)">
<path d="M53.821 56.9518L53.4473 56.9206L53.447 56.9239L53.821 56.9518ZM60.1451 63.0691L60.2318 62.7043L60.2318 62.7043L60.1451 63.0691ZM78.2082 67.5113L78.308 67.1498L78.3077 67.1497L78.2082 67.5113ZM80.0581 69.9942L80.4296 70.0456L80.4311 70.0345L80.432 70.0233L80.0581 69.9942ZM53.7413 54.3412C53.5944 55.0169 53.4963 56.3328 53.4473 56.9206L54.1947 56.9829C54.2465 56.3613 54.3407 55.1143 54.4742 54.5006L53.7413 54.3412ZM53.447 56.9239C53.3246 58.5669 53.5907 59.9084 54.6451 60.9914C55.674 62.0481 57.4043 62.8038 60.0585 63.434L60.2318 62.7043C57.6042 62.0804 56.0543 61.3636 55.1825 60.4682C54.3362 59.5991 54.081 58.509 54.195 56.9796L53.447 56.9239ZM60.0585 63.434C63.4204 64.2325 74.0303 66.7499 78.1086 67.8728L78.3077 67.1497C74.2129 66.0223 63.5854 63.5008 60.2318 62.7043L60.0585 63.434ZM78.1083 67.8727C79.1215 68.1527 79.7565 69.035 79.6843 69.9652L80.432 70.0233C80.5349 68.699 79.6311 67.5154 78.308 67.1498L78.1083 67.8727ZM79.6867 69.9428L77.7088 84.2311L78.4517 84.334L80.4296 70.0456L79.6867 69.9428ZM59.1739 56.2399C58.8064 56.1655 58.8064 56.1652 58.8065 56.165C58.8065 56.1649 58.8065 56.1646 58.8066 56.1645C58.8066 56.1642 58.8067 56.1639 58.8067 56.1637C58.8068 56.1632 58.8069 56.1629 58.8069 56.1628C58.807 56.1624 58.807 56.1627 58.8068 56.1636C58.8064 56.1653 58.8054 56.1693 58.8038 56.1755C58.8006 56.1879 58.7948 56.2092 58.7856 56.2382C58.7671 56.2964 58.735 56.3859 58.6828 56.4993C58.5786 56.7258 58.3938 57.0487 58.0763 57.4087C57.4442 58.1253 56.267 59.0101 54.098 59.5608L54.2825 60.2877C56.5813 59.7041 57.896 58.7468 58.6387 57.9048C59.0086 57.4855 59.2321 57.0999 59.3642 56.8128C59.4302 56.6694 59.4733 56.5508 59.5005 56.4651C59.5141 56.4222 59.5237 56.3876 59.5302 56.3621C59.5335 56.3493 59.536 56.3389 59.5379 56.3309C59.5388 56.3269 59.5395 56.3235 59.5401 56.3207C59.5404 56.3193 59.5407 56.3181 59.5409 56.317C59.541 56.3164 59.5411 56.3159 59.5412 56.3155C59.5413 56.3153 59.5413 56.3149 59.5414 56.3148C59.5414 56.3145 59.5415 56.3142 59.1739 56.2399Z" fill="#C7A9FF"/>
</g>
<path fill-rule="evenodd" clip-rule="evenodd" d="M65.6993 21.3662C66.6374 21.6744 67.525 22.1006 68.3373 22.6314C69.4886 23.4091 72.2075 26.2804 72.2075 26.2804L72.6723 36.3223C72.6953 37.2858 69.8831 56.8335 69.8831 56.8335L47.8018 58.7565L51.5207 40.3818L59.656 22.8006C59.656 22.8006 62.6618 21.601 65.6993 21.3662Z" fill="#FF2D87"/>
<path fill-rule="evenodd" clip-rule="evenodd" d="M65.7015 20.6252C65.7638 20.6356 65.8052 20.6915 65.794 20.7499C65.7828 20.8083 65.7232 20.8471 65.6609 20.8366C63.5154 20.4755 61.9017 20.8056 60.745 21.5738C60.4562 21.7655 60.22 21.9706 60.0327 22.1753C59.9839 22.2286 59.9412 22.279 59.9043 22.3256L59.8695 22.371L59.8269 22.4288L51.8111 40.0858L48.029 58.6688C48.0171 58.727 47.9571 58.7653 47.8949 58.7542C47.8405 58.7444 47.8025 58.7001 47.8018 58.6502L47.8038 58.6285L51.5931 40.0237L59.6223 22.3328L59.6614 22.2754L59.7198 22.1982C59.7599 22.1474 59.8061 22.0929 59.8587 22.0354C60.0578 21.8178 60.3078 21.6008 60.6124 21.3985C61.8196 20.5968 63.4957 20.2539 65.7015 20.6252ZM72.5554 35.8699C72.6187 35.8686 72.6711 35.9157 72.6725 35.975L72.6721 36.0221C72.6603 36.3904 72.4763 37.9168 72.1515 40.3886L71.7526 43.3777L71.0203 48.7329L70.3507 53.5515L69.9209 56.6152C69.9126 56.6741 69.855 56.7154 69.7922 56.7076C69.7373 56.7008 69.6967 56.6587 69.6929 56.6088L69.6936 56.5871L70.5089 50.757L71.069 46.7002L71.7722 41.5088C72.1751 38.483 72.4137 36.5595 72.4409 36.0684L72.4428 36.0254L72.4433 35.9797C72.442 35.9204 72.4921 35.8712 72.5554 35.8699ZM72.4448 31.8761C72.4319 31.8276 72.3841 31.7926 72.3288 31.7948C72.2655 31.7973 72.2164 31.8473 72.2191 31.9066L72.3288 34.3706L72.3321 34.3921C72.3449 34.4406 72.3927 34.4756 72.4481 34.4734C72.5113 34.4709 72.5604 34.4209 72.5578 34.3616L72.4481 31.8976L72.4448 31.8761Z" fill="black"/>
<path fill-rule="evenodd" clip-rule="evenodd" d="M72.6613 14.6395C72.6613 14.6806 72.6613 14.7226 72.6503 14.7637L71.9731 21.3659C71.0828 19.3119 70.7598 15.872 70.7598 15.872L70.8497 11.5732C70.9724 11.5732 71.0954 11.5945 71.2149 11.6341C71.2378 11.6401 71.2604 11.647 71.2822 11.6566C71.301 11.6623 71.3191 11.6707 71.3363 11.6812C72.2014 12.0501 72.7615 13.3015 72.6613 14.6395Z" fill="black"/>
<path fill-rule="evenodd" clip-rule="evenodd" d="M74.0287 19.4751C71.6587 18.9313 68.921 16.0606 68.921 16.0606L65.9766 7.09747C66.7712 3.70827 68.8727 1.1397 72.6357 0.908653C76.1182 0.695246 79.2645 2.38344 79.3685 5.60362C79.3539 7.88651 79.1992 10.1663 78.9041 12.4327C78.4931 15.269 78.1847 16.9142 77.7251 17.7954C77.0747 19.0415 75.886 19.9019 74.0287 19.4751Z" fill="#F8C1D9"/>
<path d="M75.6724 11.5689L77.3727 10.9958C77.43 10.9764 77.4659 10.8916 77.453 10.8062C77.44 10.7208 77.383 10.6672 77.3257 10.6866L75.6254 11.2597C75.5681 11.279 75.5322 11.3639 75.5451 11.4493C75.5581 11.5347 75.6151 11.5882 75.6724 11.5689Z" fill="black"/>
<path fill-rule="evenodd" clip-rule="evenodd" d="M76.0055 2.06867C76.0055 2.06867 70.0945 0.355192 66.457 5.28144C65.0656 7.16655 67.139 15.1339 67.139 15.1339L69.1851 11.0644C76.6875 11.4928 78.0516 6.99492 78.0516 6.99492C78.0516 7.06831 80.325 6.13818 80.325 6.13818C80.325 6.13818 80.1474 1.70056 76.0055 2.06867Z" fill="black"/>
<path fill-rule="evenodd" clip-rule="evenodd" d="M78.4121 12.0175C78.4121 12.2634 78.1971 12.4635 77.9329 12.4635C77.6686 12.4635 77.4556 12.2634 77.4556 12.0175C77.4556 11.7715 77.6686 11.5732 77.9329 11.5732C78.1971 11.5732 78.4121 11.7715 78.4121 12.0175Z" fill="black"/>
<path fill-rule="evenodd" clip-rule="evenodd" d="M76.5542 14.2438C76.5542 14.2729 76.529 14.2954 76.4987 14.2954C76.4676 14.2954 76.4435 14.2729 76.4435 14.2438C76.4435 14.2156 76.4676 14.192 76.4987 14.192C76.529 14.192 76.5542 14.2156 76.5542 14.2438Z" fill="black"/>
<path fill-rule="evenodd" clip-rule="evenodd" d="M78.4673 14.2435C78.4673 14.2718 78.4433 14.2954 78.4118 14.2954C78.3819 14.2954 78.3566 14.2718 78.3566 14.2435C78.3566 14.2144 78.3819 14.192 78.4118 14.192C78.4433 14.192 78.4673 14.2144 78.4673 14.2435Z" fill="black"/>
<path fill-rule="evenodd" clip-rule="evenodd" d="M76.5549 15.1342C76.5549 15.1624 76.5296 15.186 76.4981 15.186C76.4682 15.186 76.4429 15.1624 76.4429 15.1342C76.4429 15.1051 76.4682 15.0826 76.4981 15.0826C76.5296 15.0826 76.5549 15.1051 76.5549 15.1342Z" fill="black"/>
<path fill-rule="evenodd" clip-rule="evenodd" d="M77.5108 14.2438C77.5108 14.2729 77.4867 14.2954 77.4553 14.2954C77.4254 14.2954 77.4001 14.2729 77.4001 14.2438C77.4001 14.2156 77.4254 14.192 77.4553 14.192C77.4867 14.192 77.5108 14.2156 77.5108 14.2438Z" fill="black"/>
<path fill-rule="evenodd" clip-rule="evenodd" d="M71.7159 12.4631C71.7159 13.4471 70.8591 14.2436 69.8028 14.2436C68.7464 14.2436 67.8896 13.4471 67.8896 12.4631C67.8896 11.48 68.7464 10.6826 69.8028 10.6826C70.8591 10.6826 71.7159 11.48 71.7159 12.4631Z" fill="black"/>
<path d="M75.544 15.2625C75.5036 16.1395 76.2881 16.879 77.2955 16.9142C77.3804 16.9171 77.4521 16.8596 77.4555 16.7856C77.4589 16.7116 77.3928 16.6493 77.3078 16.6463C76.4703 16.6171 75.8181 16.0022 75.8517 15.2732C75.8551 15.1992 75.789 15.1369 75.704 15.1339C75.619 15.1309 75.5474 15.1885 75.544 15.2625Z" fill="black"/>
<path fill-rule="evenodd" clip-rule="evenodd" d="M79.2436 12.4639L79.04 14.2631C79.6214 14.2787 80.3491 14.4325 80.3246 14.6733C80.3005 14.9134 79.5374 15.1492 79.2016 15.1339H78.4121" fill="#F8C1D9"/>
<path d="M79.3409 12.5523C79.3497 12.5073 79.2689 12.4678 79.1604 12.4641C79.0519 12.4605 78.9569 12.4941 78.9481 12.5392L78.6032 14.3131L78.8088 14.3163C79.5803 14.3283 79.9631 14.4691 79.929 14.6652C79.8978 14.8457 79.5232 14.9815 79.0893 14.97L78.6091 14.9698C78.5003 14.9698 78.4121 15.0065 78.4121 15.0517C78.4121 15.0969 78.5003 15.1336 78.6091 15.1336H79.0768C79.7141 15.1507 80.2754 14.9471 80.322 14.677C80.3682 14.412 79.9196 14.2157 79.133 14.1647L79.0285 14.1589L79.3409 12.5523Z" fill="black"/>
<path fill-rule="evenodd" clip-rule="evenodd" d="M72.6729 12.4631C72.6729 13.4471 71.8162 14.2436 70.7598 14.2436C69.7035 14.2436 68.8467 13.4471 68.8467 12.4631C68.8467 11.48 69.7035 10.6826 70.7598 10.6826C71.8162 10.6826 72.6729 11.48 72.6729 12.4631Z" fill="#F8C1D9"/>
<path d="M69.9333 11.6019L70.0277 11.5875C70.2748 11.5579 70.5461 11.571 70.8065 11.6587C70.9989 11.7236 71.166 11.8237 71.3026 11.9607C71.3389 11.9788 71.3682 12.0112 71.3842 12.0513C71.5969 12.3136 71.7163 12.6865 71.7163 13.1782C71.7163 13.2752 71.645 13.3537 71.5569 13.3537C71.4689 13.3537 71.3975 13.2752 71.3975 13.1782C71.3975 12.7849 71.3131 12.499 71.158 12.2998L71.1104 12.3052C70.8891 12.3421 70.696 12.4966 70.5981 12.7234C70.5603 12.8109 70.4652 12.8482 70.3857 12.8066C70.3062 12.765 70.2723 12.6603 70.3101 12.5727C70.4163 12.3269 70.5985 12.1389 70.8171 12.0354C70.7838 12.02 70.7491 12.0064 70.7131 11.9943C70.5359 11.9346 70.3462 11.9169 70.1677 11.9271L70.031 11.9405L69.9921 11.9469C69.9055 11.9647 69.8222 11.902 69.806 11.8067C69.7918 11.7234 69.8337 11.6428 69.9023 11.612L69.9333 11.6019L70.0277 11.5875L69.9333 11.6019Z" fill="black"/>
<path fill-rule="evenodd" clip-rule="evenodd" d="M80.3251 6.54674C80.0246 4.52283 78.8873 2.70033 77.1678 1.48668C75.4484 0.27448 73.2923 -0.22715 71.1824 0.0956784C66.7128 0.74771 63.5261 4.6599 64.139 8.78944L65.5022 13.3537C65.5022 13.3537 70.5007 13.3537 72.116 8.0354L80.3251 6.54674Z" fill="white"/>
<path fill-rule="evenodd" clip-rule="evenodd" d="M79.617 8.46295L79.5578 8.49455C80.0019 8.73856 80.5453 8.7813 81.0315 8.59648C81.6225 8.36109 82.0147 7.82206 82.0365 7.21466C82.0384 7.16175 82.0851 7.12032 82.1409 7.12213C82.1966 7.12393 82.2403 7.16828 82.2384 7.22119C82.2139 7.90344 81.7733 8.50892 81.1081 8.77384C80.5183 8.99805 79.8552 8.92422 79.3416 8.59239C78.5415 8.90758 77.4993 8.83535 76.5602 8.4524C76.5089 8.4315 76.4852 8.37513 76.5073 8.32649C76.5293 8.27785 76.5887 8.25536 76.6399 8.27626C77.4886 8.62233 78.4225 8.70084 79.1548 8.45463L79.1383 8.44064C78.8979 8.25603 78.7711 7.96815 78.8019 7.66566C78.8838 7.2707 79.3252 7.04634 79.7166 7.20135C80.107 7.35667 80.2494 7.81187 80.0084 8.14862C79.902 8.28123 79.7672 8.38922 79.617 8.46295ZM79.3662 8.37175L79.444 8.33477L79.5735 8.26632C79.6791 8.20604 79.7716 8.12735 79.8445 8.03658C80.0107 7.80425 79.9113 7.48647 79.6387 7.37804C79.3655 7.26984 79.0574 7.42643 79.0016 7.69306C78.9787 7.92228 79.0778 8.14734 79.2697 8.29487L79.3173 8.33425L79.3662 8.37175Z" fill="black"/>
<path fill-rule="evenodd" clip-rule="evenodd" d="M48.1773 49.0648C43.9314 47.5022 44.6678 44.2805 45.8484 41.9249C46.7348 40.1502 49.7092 36.0408 52.2456 32.3221C54.3336 29.2641 59.3156 23.2528 60.2452 22.3339C61.6197 20.9734 62.712 19.7894 64.9716 20.9412C67.4581 22.1971 68.3493 24.65 67.6692 26.4179C66.969 28.2336 64.1844 34.2958 61.7535 38.8723C59.4198 43.2633 57.0871 47.0869 57.0871 47.0869C54.9479 49.9407 52.2628 50.5624 48.1773 49.0648Z" fill="#F8C1D9"/>
<path fill-rule="evenodd" clip-rule="evenodd" d="M49.7153 35.2763C51.6457 32.1018 56.3094 24.1288 58.7333 21.5268C60.2906 19.8567 62.9275 18.8778 65.4986 20.2007C68.1924 21.5824 68.2307 23.4171 67.4497 25.6374C66.903 27.1874 63.0295 36.2903 61.2359 40.0606" fill="#FF2D87"/>
<path d="M49.9208 35.5638L50.0579 35.3745L50.3171 35.008C50.6644 34.5106 51.0876 33.8814 51.6356 33.0513L54.2088 29.1366L54.8069 28.2394L55.3436 27.4441L55.5594 27.1278C57.0875 24.8939 58.2345 23.3764 59.0876 22.5122C60.8374 20.7409 63.4756 20.13 65.8127 21.2639C65.8681 21.2908 65.9361 21.2701 65.9645 21.2176C65.9929 21.1652 65.971 21.1009 65.9156 21.074C63.4828 19.8937 60.7377 20.5294 58.9228 22.3665L58.8031 22.4899C57.852 23.488 56.5678 25.2291 54.8355 27.7992L54.2631 28.6539L53.5514 29.7299L51.4446 32.9379L51.1279 33.4161C50.5235 34.3255 50.0881 34.9603 49.7354 35.4423C49.6999 35.4907 49.7127 35.5572 49.7639 35.5908C49.8151 35.6243 49.8854 35.6122 49.9208 35.5638Z" fill="black"/>
<path fill-rule="evenodd" clip-rule="evenodd" d="M79.053 49.1835C75.0382 49.4987 66.9753 49.8532 63.6394 49.8532C59.0191 49.8532 55.538 49.8532 51.156 49.6861C47.7506 49.5557 44.199 47.6558 45.0638 44.0393C45.8952 40.5563 47.6848 39.3709 52.9269 40.4405C52.9269 40.4405 53.9397 40.9374 63.8875 43.0076C72.5201 44.8046 78.4595 46.1974 79.4488 46.407C80.5668 46.6443 81.2816 46.6443 81.2816 47.9279C81.2718 49.4254 80.2802 49.0877 79.053 49.1835Z" fill="#F8C1D9"/>
<path d="M77.3679 46.1013L52.7286 40.9541C52.6666 40.9411 52.6038 40.9728 52.5884 41.0249C52.573 41.0769 52.6107 41.1296 52.6727 41.1426L77.312 46.2897C77.374 46.3027 77.4368 46.271 77.4522 46.2189C77.4676 46.1669 77.4299 46.1142 77.3679 46.1013Z" fill="black"/>
<mask id="mask3" mask-type="alpha" maskUnits="userSpaceOnUse" x="20" y="70" width="53" height="3">
<path fill-rule="evenodd" clip-rule="evenodd" d="M20.1401 70.4727H72.4946V72.9853H20.1401V70.4727Z" fill="white"/>
</mask>
<g mask="url(#mask3)">
<path fill-rule="evenodd" clip-rule="evenodd" d="M72.3168 76.5886C72.3168 76.5886 72.7169 78.8925 72.3168 79.5022C71.918 80.113 70.9237 82.1122 70.9237 82.8787C70.9237 83.645 63.556 86.5621 55.3899 84.2604C47.2248 81.9585 21.933 79.8125 20.1401 77.3578C20.1401 77.3578 22.7392 74.1342 26.5196 73.2133C30.3001 72.2914 37.0746 69.376 43.2487 70.9114C49.4225 72.4461 72.3168 76.5886 72.3168 76.5886Z" fill="black"/>
</g>
<path fill-rule="evenodd" clip-rule="evenodd" d="M86.0637 49.1942C86.065 49.2054 86.065 49.2154 86.0637 49.2266C86.0536 49.2915 86.033 49.3555 86.0026 49.416C85.9373 49.5507 85.8557 49.6784 85.7577 49.7972C85.7091 49.8532 85.6607 49.9106 85.6059 49.9689C85.5128 50.0696 85.4158 50.1695 85.3227 50.2637L85.1503 50.423L85.0089 50.5564C84.7983 50.7436 84.4782 50.7964 84.2052 50.6896L81.1858 49.5596C81.1858 49.5596 78.281 50.6359 77.0564 49.7748C75.8932 48.9574 76.865 47.722 77.1609 47.3898C77.2083 47.3362 77.2376 47.3057 77.2376 47.3057C77.2376 47.3057 78.2529 47.1097 79.5056 46.761C80.6117 46.4538 82.1844 46.1935 82.6896 46.3304C83.0469 46.4303 83.6246 46.8651 83.9946 47.1398C84.6069 47.5985 85.4641 48.1063 85.8021 48.5414C85.9654 48.7297 86.0575 48.9574 86.0637 49.1942Z" fill="#F8C1D9"/>
<path fill-rule="evenodd" clip-rule="evenodd" d="M86.0647 48.0735C85.2277 47.6035 83.415 46.6076 82.7955 46.4818C81.7815 46.2716 77.6589 47.221 77.6184 47.2301C77.578 47.24 77.5336 47.235 77.5019 47.2176C77.4832 47.2084 77.4692 47.1949 77.4628 47.1809C77.4401 47.1393 77.4728 47.0942 77.5349 47.08C77.6246 47.0593 78.7486 46.8001 79.9623 46.5842C81.1064 46.3826 82.3288 46.2191 82.8586 46.3275C83.1988 46.3983 83.8296 46.6942 84.5047 47.03C85.0924 47.33 85.6183 47.6809 86.0647 48.0735Z" fill="black"/>
<path fill-rule="evenodd" clip-rule="evenodd" d="M85.108 49.6776L84.9892 49.8537L83.2311 48.2904C83.1441 48.2025 83.2292 48.0153 83.3232 48.0908L85.108 49.6776Z" fill="black"/>
<path fill-rule="evenodd" clip-rule="evenodd" d="M85.108 49.6846C85.0766 49.7397 85.0442 49.7963 85.0095 49.8537L83.2315 48.2712C83.1429 48.1917 83.2315 48.0137 83.3209 48.0932L85.108 49.6846Z" fill="black"/>
<path fill-rule="evenodd" clip-rule="evenodd" d="M85.1074 48.7667C85.1082 48.7766 85.1082 48.7855 85.1074 48.7954C85.1012 48.8528 85.0887 48.9095 85.0703 48.9631L83.2347 47.3622C83.1953 47.3355 83.1828 47.271 83.2076 47.2243C83.2332 47.1767 83.2843 47.1686 83.3184 47.2065L85.1074 48.7667Z" fill="black"/>
<mask id="path-63-inside-1" fill="white">
<path d="M18.378 43.7882L22.2799 42.9681C22.7704 42.8666 23.2421 43.22 23.3331 43.7575L23.6718 45.6895C23.7647 46.227 23.4418 46.745 22.9515 46.8444L18.1484 47.8576L18.1863 48.0729L22.9886 47.0599C23.5873 46.9385 23.9819 46.3055 23.8683 45.6484L23.5297 43.7168C23.4186 43.0606 22.842 42.6286 22.2425 42.7527L18.3403 43.5728L18.378 43.7882Z"/>
</mask>
<path d="M18.378 43.7882L17.393 43.9606L17.5713 44.9796L18.5837 44.7668L18.378 43.7882ZM22.2799 42.9681L22.0772 41.9889L22.0742 41.9895L22.2799 42.9681ZM23.3331 43.7575L22.3471 43.9244L22.3481 43.9302L23.3331 43.7575ZM23.6718 45.6895L24.6572 45.5191L24.6568 45.5168L23.6718 45.6895ZM22.9515 46.8444L22.7527 45.8643L22.7451 45.866L22.9515 46.8444ZM18.1484 47.8576L17.942 46.8791L16.9963 47.0786L17.1635 48.0306L18.1484 47.8576ZM18.1863 48.0729L17.2013 48.2459L17.3803 49.2649L18.3927 49.0514L18.1863 48.0729ZM22.9886 47.0599L22.7899 46.0798L22.7822 46.0814L22.9886 47.0599ZM23.8683 45.6484L24.8537 45.4781L24.8533 45.4757L23.8683 45.6484ZM23.5297 43.7168L22.5437 43.8837L22.5448 43.8895L23.5297 43.7168ZM22.2425 42.7527L22.0397 41.7735L22.0368 41.7741L22.2425 42.7527ZM18.3403 43.5728L18.1347 42.5942L17.1886 42.793L17.3553 43.7452L18.3403 43.5728ZM18.5837 44.7668L22.4856 43.9467L22.0742 41.9895L18.1723 42.8095L18.5837 44.7668ZM22.4826 43.9473C22.4592 43.9522 22.4325 43.9519 22.4073 43.9459C22.3831 43.9402 22.3664 43.9307 22.3566 43.9234C22.3369 43.9086 22.3434 43.9021 22.3471 43.9244L24.3191 43.5906C24.1478 42.5789 23.2028 41.7558 22.0772 41.9889L22.4826 43.9473ZM22.3481 43.9302L22.6868 45.8622L24.6568 45.5168L24.3181 43.5848L22.3481 43.9302ZM22.6864 45.8598C22.6905 45.8836 22.6838 45.8989 22.6818 45.9021C22.6813 45.9029 22.6849 45.8968 22.6967 45.8882C22.7094 45.879 22.7288 45.8692 22.7528 45.8644L23.1502 47.8245C24.246 47.6023 24.8286 46.5109 24.6572 45.5191L22.6864 45.8598ZM22.7451 45.866L17.942 46.8791L18.3548 48.8361L23.1579 47.8229L22.7451 45.866ZM17.1635 48.0306L17.2013 48.2459L19.1712 47.8999L19.1334 47.6846L17.1635 48.0306ZM18.3927 49.0514L23.195 48.0384L22.7822 46.0814L17.9799 47.0944L18.3927 49.0514ZM23.1873 48.04C24.3918 47.7957 25.0458 46.5889 24.8537 45.4781L22.883 45.8187C22.8974 45.9024 22.8779 45.9764 22.8469 46.0261C22.8164 46.075 22.7904 46.0797 22.7899 46.0798L23.1873 48.04ZM24.8533 45.4757L24.5147 43.5442L22.5448 43.8895L22.8834 45.8211L24.8533 45.4757ZM24.5157 43.5499C24.3243 42.419 23.274 41.5179 22.0397 41.7735L22.4452 43.7319C22.4491 43.7311 22.4494 43.7315 22.4497 43.7316C22.4511 43.7319 22.4583 43.7339 22.4698 43.7425C22.4925 43.7595 22.53 43.8024 22.5438 43.8837L24.5157 43.5499ZM22.0368 41.7741L18.1347 42.5942L18.546 44.5514L22.4482 43.7313L22.0368 41.7741ZM17.3553 43.7452L17.393 43.9606L19.363 43.6158L19.3254 43.4004L17.3553 43.7452Z" fill="black" mask="url(#path-63-inside-1)"/>
<path fill-rule="evenodd" clip-rule="evenodd" d="M25.3892 52.6504C25.8818 52.7706 26.2551 53.046 26.7798 53.6044L26.8558 53.6862L27.2432 54.1103C27.8888 54.8039 28.3448 55.1376 28.9954 55.2959C29.6419 55.4521 30.1519 55.3722 31.1622 55.0481C31.2207 55.0294 31.2837 55.0602 31.303 55.1169C31.3223 55.1736 31.2906 55.2348 31.2322 55.2535L31.0073 55.3241C30.1029 55.6009 29.5891 55.6623 28.9413 55.5058C28.2377 55.3345 27.752 54.9794 27.0798 54.2575L26.9948 54.1654L26.6174 53.7527C26.1194 53.2223 25.7744 52.9675 25.3352 52.8603C24.5309 52.6667 23.837 52.7215 23.2686 52.929C23.1577 52.9695 23.0615 53.0128 22.9805 53.0557L22.9128 53.0937L22.8876 53.1096C22.8373 53.1441 22.7678 53.1324 22.7323 53.0836C22.6968 53.0348 22.7088 52.9674 22.7591 52.9329C22.837 52.8795 22.9821 52.8025 23.1902 52.7266C23.7993 52.5041 24.5389 52.4458 25.3892 52.6504ZM25.9341 53.9917C26.1372 54.1449 26.3241 54.3231 26.5728 54.5909L27.0802 55.1455C27.6855 55.7863 28.1253 56.0964 28.7494 56.2459C29.2775 56.3741 29.7678 56.3328 30.4363 56.1435L30.6333 56.0852L31.1564 55.9183C32.2715 55.5653 32.8776 55.4838 33.7052 55.6858C34.4449 55.8666 34.8255 56.1401 35.3147 56.7599L35.374 56.8359L35.4963 56.9983L35.5406 57.0582C36.0995 57.8136 36.4823 58.1272 37.3096 58.3286C38.1311 58.5027 38.9872 58.4105 39.7483 58.0657C39.804 58.0404 39.8704 58.0638 39.8964 58.1179C39.9224 58.1721 39.8983 58.2364 39.8426 58.2617C39.0372 58.6266 38.1312 58.7242 37.2587 58.5392C36.3979 58.3297 35.9759 58.0011 35.4197 57.2649L35.3152 57.1244C34.7584 56.3709 34.4169 56.0828 33.6508 55.8956C32.8752 55.7063 32.3034 55.7829 31.2271 56.1235L30.7779 56.2675L30.5026 56.3501C29.7972 56.5502 29.2695 56.5952 28.6957 56.4559C28.0477 56.3006 27.5893 55.99 26.9954 55.3749L26.9135 55.2892L26.7513 55.1139L26.4083 54.7369C26.1673 54.4772 25.9882 54.3065 25.7973 54.1625C25.7487 54.1258 25.74 54.0578 25.7777 54.0107C25.8155 53.9635 25.8855 53.955 25.9341 53.9917ZM26.2906 55.5049C25.7656 54.9458 25.3921 54.6703 24.8991 54.55C24.0489 54.3454 23.3094 54.4037 22.7002 54.6262C22.4921 54.7021 22.347 54.779 22.269 54.8325C22.2187 54.8669 22.2067 54.9344 22.2422 54.9832C22.2777 55.032 22.3472 55.0437 22.3975 55.0092L22.4227 54.9933L22.4904 54.9553C22.5715 54.9123 22.6677 54.8691 22.7786 54.8286C23.3471 54.6211 24.0409 54.5663 24.8451 54.7599C25.2847 54.8672 25.6298 55.1221 26.1282 55.6532L26.5047 56.0649L26.5897 56.1571C27.2618 56.8791 27.7471 57.2341 28.4504 57.4054C29.0251 57.5457 29.5532 57.5008 30.2595 57.3002L30.5632 57.2086L30.8618 57.1125L31.1009 57.0368C32.1015 56.7274 32.6588 56.6631 33.4047 56.8452C34.1441 57.0258 34.4879 57.3002 35.0105 57.9955L35.1733 58.2145C35.7291 58.9508 36.1506 59.2793 37.0115 59.4888C37.8828 59.6738 38.7885 59.5761 39.5929 59.2114C39.6487 59.1861 39.6728 59.1217 39.6467 59.0676C39.6207 59.0134 39.5543 58.9901 39.4986 59.0154C38.7385 59.36 37.8826 59.4523 37.0624 59.2782C36.2646 59.0841 35.8806 58.7857 35.3535 58.0872L35.1886 57.8655C34.6386 57.1343 34.2587 56.8307 33.459 56.6354C32.6325 56.4336 32.027 56.5152 30.9127 56.8684L30.3527 57.0467L30.1993 57.0919C29.5269 57.2831 29.0349 57.325 28.5047 57.1956C27.8543 57.0372 27.3985 56.7036 26.7531 56.0099L26.3667 55.5867L26.2906 55.5049ZM22.4537 55.5761C23.0637 55.3538 23.8036 55.2954 24.6531 55.5C25.1457 55.6202 25.519 55.8954 26.0433 56.4535L26.1192 56.5351L26.5074 56.9601C27.1524 57.653 27.6087 57.9868 28.2598 58.1456C28.7923 58.2754 29.2851 58.2329 29.9608 58.04L30.2003 57.9681L30.785 57.7813C31.8251 57.4592 32.4165 57.3903 33.214 57.5854C33.9876 57.773 34.3692 58.0629 34.8896 58.7415L35.1798 59.1288C35.4823 59.5223 35.6991 59.7313 36.0345 59.9255C36.0874 59.9561 36.1046 60.0225 36.0731 60.0738C36.0416 60.1251 35.9732 60.1419 35.9203 60.1113C35.5315 59.8861 35.2914 59.6449 34.9398 59.1775L34.7676 58.9456C34.2453 58.2496 33.9008 57.975 33.1598 57.7952C32.4133 57.6126 31.8562 57.6769 30.8558 57.9865L30.6167 58.0623L30.3225 58.1571L30.0212 58.2482C29.3116 58.4506 28.7826 58.4961 28.2055 58.3554C27.5016 58.1837 27.0156 57.8284 26.344 57.1073L26.259 57.0152L25.8809 56.6017C25.3832 56.0717 25.0384 55.8171 24.5991 55.7099C23.7955 55.5163 23.1014 55.5711 22.5321 55.7787C22.421 55.8192 22.3246 55.8624 22.2433 55.9054L22.1941 55.9324L22.1502 55.9593C22.0999 55.9937 22.0304 55.982 21.9949 55.9331C21.9595 55.8843 21.9716 55.8168 22.0219 55.7824C22.1001 55.729 22.2454 55.6521 22.4537 55.5761ZM39.4024 60.0184C39.4279 60.0728 39.4031 60.137 39.347 60.1617C38.8228 60.3929 38.2569 60.5202 37.6814 60.5365C37.6199 60.5382 37.5685 60.4912 37.5667 60.4315C37.5649 60.3718 37.6134 60.322 37.6749 60.3202C38.2208 60.3048 38.7575 60.184 39.2549 59.9647C39.3109 59.94 39.377 59.9641 39.4024 60.0184ZM35.6218 55.8888C35.1022 55.2129 34.7211 54.9239 33.9499 54.7362C33.6008 54.6491 33.2393 54.6172 32.8785 54.6417C32.8171 54.6459 32.7708 54.6976 32.7751 54.7572C32.7794 54.8168 32.8327 54.8617 32.8941 54.8576C33.231 54.8347 33.5685 54.8644 33.8951 54.9458C34.6625 55.1327 35.0042 55.4208 35.5608 56.1745L35.6656 56.3155C36.2213 57.0512 36.6432 57.3799 37.5036 57.5893C38.3753 57.7743 39.2813 57.6767 40.0851 57.3118C40.1409 57.2865 40.1649 57.2221 40.1389 57.168C40.1128 57.1139 40.0465 57.0905 39.9907 57.1158C39.2312 57.4606 38.3751 57.5529 37.5545 57.3787C36.7572 57.1846 36.3728 56.886 35.8458 56.1881L35.742 56.0485L35.6218 55.8888ZM24.4724 53.6011C24.4784 53.5417 24.4337 53.4887 24.3725 53.4828C23.7274 53.4208 23.0791 53.5591 22.5219 53.878C22.4689 53.9084 22.4512 53.9747 22.4825 54.0261C22.5137 54.0776 22.5821 54.0947 22.6351 54.0644C23.1515 53.7688 23.7524 53.6406 24.3505 53.6981C24.4117 53.704 24.4663 53.6606 24.4724 53.6011Z" fill="black"/>
<path fill-rule="evenodd" clip-rule="evenodd" d="M33.4537 43.6217C35.0384 43.6217 36.3234 42.4261 36.3234 40.951C36.3234 39.4765 35.0381 38.2803 33.4537 38.2803C31.8693 38.2803 30.584 39.4765 30.584 40.951C30.584 42.4261 31.869 43.6217 33.4537 43.6217ZM33.4537 38.4856C34.9162 38.4856 36.1026 39.5898 36.1026 40.9509C36.1026 42.3125 34.9165 43.4162 33.4537 43.4162C31.9909 43.4162 30.8047 42.3125 30.8047 40.9509C30.8047 39.5898 31.9912 38.4856 33.4537 38.4856Z" fill="black"/>
<path fill-rule="evenodd" clip-rule="evenodd" d="M35.3668 40.9515C35.3668 41.9345 34.5102 42.7319 33.4537 42.7319C32.3971 42.7319 31.5405 41.9345 31.5405 40.9515C31.5405 39.9683 32.3971 39.1709 33.4537 39.1709C34.5102 39.1709 35.3668 39.9683 35.3668 40.9515Z" fill="#9757FF"/>
<path fill-rule="evenodd" clip-rule="evenodd" d="M33.9319 43.6221C35.2525 43.6221 36.3234 42.6255 36.3234 41.3967C36.3234 40.1676 35.2526 39.1709 33.9319 39.1709C32.6113 39.1709 31.5405 40.1676 31.5405 41.3967C31.5405 42.6255 32.6114 43.6221 33.9319 43.6221ZM33.9319 39.394C35.1202 39.394 36.0837 40.2908 36.0837 41.3967C36.0837 42.5024 35.1201 43.3991 33.9319 43.3991C32.7437 43.3991 31.7802 42.5024 31.7802 41.3967C31.7802 40.2908 32.7437 39.394 33.9319 39.394Z" fill="black"/>
<path fill-rule="evenodd" clip-rule="evenodd" d="M51.9012 32.9548C51.9559 32.9851 51.9733 33.0502 51.9401 33.1001L51.341 33.9978L48.129 38.7751C46.7265 40.8769 46.2559 41.6375 45.8834 42.3646L45.8353 42.4594L45.6832 42.7693L45.5894 42.9698C44.1761 46.0612 44.6237 48.3999 47.933 49.6506C47.9921 49.6729 48.0202 49.7347 47.9958 49.7887C47.9713 49.8427 47.9036 49.8684 47.8445 49.846C44.3149 48.5121 43.9007 45.9696 45.4717 42.6831L45.6477 42.3258C46.0131 41.605 46.4513 40.8876 47.7617 38.9193L48.0008 38.5608L51.3392 33.595L51.7421 32.9904C51.7753 32.9404 51.8465 32.9245 51.9012 32.9548ZM22.5289 45.7623C22.5793 45.7982 22.5884 45.8647 22.5491 45.9107C22.3008 46.2019 21.9631 46.4179 21.5729 46.533C21.2058 46.6211 20.9117 46.58 20.4006 46.4157L20.1463 46.3325L20.0022 46.288C19.7119 46.2023 19.5549 46.1844 19.3775 46.2192L19.2609 46.2437C18.8884 46.3301 18.5668 46.5437 18.3625 46.8427C18.3286 46.8922 18.2572 46.9073 18.2029 46.8764C18.1487 46.8455 18.1322 46.7802 18.166 46.7307C18.403 46.3839 18.7766 46.1365 19.2037 46.0386L19.3298 46.012C19.568 45.9635 19.7622 45.99 20.141 46.1071L20.2193 46.1317L20.4725 46.2146C20.9446 46.3665 21.2029 46.4031 21.5079 46.3301C21.8477 46.2297 22.1466 46.0384 22.3664 45.7807C22.4057 45.7347 22.4784 45.7264 22.5289 45.7623ZM61.1277 39.482C61.0699 39.4569 61.0009 39.4795 60.9735 39.5322C60.3978 40.6419 59.7974 41.7671 59.1946 42.8698C59.166 42.9221 59.1892 42.9856 59.2464 43.0117C59.3036 43.0378 59.3731 43.0166 59.4017 42.9643C60.0053 41.8604 60.6063 40.7339 61.1827 39.6228C61.2101 39.5701 61.1855 39.507 61.1277 39.482Z" fill="black"/>
<path d="M157.905 26.8H166.625V28.512H159.953V31.264H163.265C164.609 31.264 165.627 31.5467 166.321 32.112C167.025 32.6667 167.377 33.472 167.377 34.528C167.377 35.6373 166.993 36.496 166.225 37.104C165.457 37.7013 164.363 38 162.945 38H157.905V26.8ZM162.833 36.4C163.633 36.4 164.241 36.2453 164.657 35.936C165.073 35.6267 165.281 35.1787 165.281 34.592C165.281 33.44 164.465 32.864 162.833 32.864H159.953V36.4H162.833ZM173.59 32.272C174.678 32.272 175.51 32.5173 176.086 33.008C176.662 33.4987 176.95 34.192 176.95 35.088C176.95 36.0267 176.63 36.752 175.99 37.264C175.361 37.776 174.465 38.0267 173.302 38.016L169.43 38V29.456H171.43V32.256L173.59 32.272ZM178.054 29.456H180.054V38H178.054V29.456ZM173.126 36.544C173.713 36.5547 174.161 36.432 174.47 36.176C174.78 35.92 174.934 35.5467 174.934 35.056C174.934 34.576 174.785 34.224 174.486 34C174.188 33.776 173.734 33.6587 173.126 33.648L171.43 33.632V36.528L173.126 36.544ZM186.631 38.112C185.745 38.112 184.951 37.9253 184.247 37.552C183.543 37.1787 182.993 36.6613 182.599 36C182.204 35.328 182.007 34.5707 182.007 33.728C182.007 32.8853 182.204 32.1333 182.599 31.472C182.993 30.8107 183.537 30.2933 184.231 29.92C184.935 29.5467 185.735 29.36 186.631 29.36C187.473 29.36 188.209 29.5307 188.839 29.872C189.479 30.2133 189.959 30.704 190.279 31.344L188.743 32.24C188.497 31.8453 188.188 31.552 187.815 31.36C187.452 31.1573 187.052 31.056 186.615 31.056C185.868 31.056 185.249 31.3013 184.759 31.792C184.268 32.272 184.023 32.9173 184.023 33.728C184.023 34.5387 184.263 35.1893 184.743 35.68C185.233 36.16 185.857 36.4 186.615 36.4C187.052 36.4 187.452 36.304 187.815 36.112C188.188 35.9093 188.497 35.6107 188.743 35.216L190.279 36.112C189.948 36.752 189.463 37.248 188.823 37.6C188.193 37.9413 187.463 38.112 186.631 38.112ZM198.73 31.152H195.738V38H193.738V31.152H190.73V29.456H198.73V31.152ZM204.916 29.36C205.748 29.36 206.49 29.5413 207.14 29.904C207.802 30.2667 208.319 30.7787 208.692 31.44C209.066 32.1013 209.252 32.864 209.252 33.728C209.252 34.592 209.066 35.36 208.692 36.032C208.319 36.6933 207.802 37.2053 207.14 37.568C206.49 37.9307 205.748 38.112 204.916 38.112C203.764 38.112 202.852 37.728 202.18 36.96V41.104H200.18V29.456H202.084V30.576C202.415 30.1707 202.82 29.8667 203.3 29.664C203.791 29.4613 204.33 29.36 204.916 29.36ZM204.692 36.4C205.428 36.4 206.031 36.1547 206.5 35.664C206.98 35.1733 207.22 34.528 207.22 33.728C207.22 32.928 206.98 32.2827 206.5 31.792C206.031 31.3013 205.428 31.056 204.692 31.056C204.212 31.056 203.78 31.168 203.396 31.392C203.012 31.6053 202.708 31.9147 202.484 32.32C202.26 32.7253 202.148 33.1947 202.148 33.728C202.148 34.2613 202.26 34.7307 202.484 35.136C202.708 35.5413 203.012 35.856 203.396 36.08C203.78 36.2933 204.212 36.4 204.692 36.4ZM214.317 29.36C215.576 29.36 216.536 29.664 217.197 30.272C217.869 30.8693 218.205 31.776 218.205 32.992V38H216.317V36.96C216.072 37.3333 215.72 37.6213 215.261 37.824C214.813 38.016 214.269 38.112 213.629 38.112C212.989 38.112 212.429 38.0053 211.949 37.792C211.469 37.568 211.096 37.264 210.829 36.88C210.573 36.4853 210.445 36.0427 210.445 35.552C210.445 34.784 210.728 34.1707 211.293 33.712C211.869 33.2427 212.771 33.008 213.997 33.008H216.205V32.88C216.205 32.2827 216.024 31.824 215.661 31.504C215.309 31.184 214.781 31.024 214.077 31.024C213.597 31.024 213.123 31.0987 212.653 31.248C212.195 31.3973 211.805 31.6053 211.485 31.872L210.701 30.416C211.149 30.0747 211.688 29.8133 212.317 29.632C212.947 29.4507 213.613 29.36 214.317 29.36ZM214.045 36.656C214.547 36.656 214.989 36.544 215.373 36.32C215.768 36.0853 216.045 35.7547 216.205 35.328V34.336H214.141C212.989 34.336 212.413 34.7147 212.413 35.472C212.413 35.8347 212.557 36.1227 212.845 36.336C213.133 36.5493 213.533 36.656 214.045 36.656ZM227.896 29.456V38H226.104V35.424H223.848L222.104 38H219.96L221.976 35.152C221.358 34.9387 220.883 34.6133 220.552 34.176C220.232 33.728 220.072 33.1787 220.072 32.528C220.072 31.5467 220.419 30.7893 221.112 30.256C221.806 29.7227 222.76 29.456 223.976 29.456H227.896ZM224.04 31.136C222.75 31.136 222.104 31.6213 222.104 32.592C222.104 33.552 222.728 34.032 223.976 34.032H226.104V31.136H224.04ZM244.128 36.304V39.904H242.256V38H235.664V39.904H233.808V36.304H234.208C234.752 36.2827 235.12 35.936 235.312 35.264C235.515 34.5813 235.648 33.6213 235.712 32.384L235.824 29.456H242.864V36.304H244.128ZM237.536 32.528C237.494 33.5093 237.414 34.3093 237.296 34.928C237.179 35.5467 236.966 36.0053 236.656 36.304H240.864V31.152H237.584L237.536 32.528ZM249.723 38.112C248.859 38.112 248.08 37.9253 247.387 37.552C246.693 37.1787 246.149 36.6613 245.755 36C245.371 35.328 245.179 34.5707 245.179 33.728C245.179 32.8853 245.371 32.1333 245.755 31.472C246.149 30.8107 246.693 30.2933 247.387 29.92C248.08 29.5467 248.859 29.36 249.723 29.36C250.597 29.36 251.381 29.5467 252.075 29.92C252.768 30.2933 253.307 30.8107 253.691 31.472C254.085 32.1333 254.283 32.8853 254.283 33.728C254.283 34.5707 254.085 35.328 253.691 36C253.307 36.6613 252.768 37.1787 252.075 37.552C251.381 37.9253 250.597 38.112 249.723 38.112ZM249.723 36.4C250.459 36.4 251.067 36.1547 251.547 35.664C252.027 35.1733 252.267 34.528 252.267 33.728C252.267 32.928 252.027 32.2827 251.547 31.792C251.067 31.3013 250.459 31.056 249.723 31.056C248.987 31.056 248.379 31.3013 247.899 31.792C247.429 32.2827 247.195 32.928 247.195 33.728C247.195 34.528 247.429 35.1733 247.899 35.664C248.379 36.1547 248.987 36.4 249.723 36.4ZM260.146 38.112C259.261 38.112 258.466 37.9253 257.762 37.552C257.058 37.1787 256.509 36.6613 256.114 36C255.72 35.328 255.522 34.5707 255.522 33.728C255.522 32.8853 255.72 32.1333 256.114 31.472C256.509 30.8107 257.053 30.2933 257.746 29.92C258.45 29.5467 259.25 29.36 260.146 29.36C260.989 29.36 261.725 29.5307 262.354 29.872C262.994 30.2133 263.474 30.704 263.794 31.344L262.258 32.24C262.013 31.8453 261.704 31.552 261.33 31.36C260.968 31.1573 260.568 31.056 260.13 31.056C259.384 31.056 258.765 31.3013 258.274 31.792C257.784 32.272 257.538 32.9173 257.538 33.728C257.538 34.5387 257.778 35.1893 258.258 35.68C258.749 36.16 259.373 36.4 260.13 36.4C260.568 36.4 260.968 36.304 261.33 36.112C261.704 35.9093 262.013 35.6107 262.258 35.216L263.794 36.112C263.464 36.752 262.978 37.248 262.338 37.6C261.709 37.9413 260.978 38.112 260.146 38.112ZM272.245 31.152H269.253V38H267.253V31.152H264.245V29.456H272.245V31.152ZM276.88 29.36C278.139 29.36 279.099 29.664 279.76 30.272C280.432 30.8693 280.768 31.776 280.768 32.992V38H278.88V36.96C278.635 37.3333 278.283 37.6213 277.824 37.824C277.376 38.016 276.832 38.112 276.192 38.112C275.552 38.112 274.992 38.0053 274.512 37.792C274.032 37.568 273.659 37.264 273.392 36.88C273.136 36.4853 273.008 36.0427 273.008 35.552C273.008 34.784 273.291 34.1707 273.856 33.712C274.432 33.2427 275.333 33.008 276.56 33.008H278.768V32.88C278.768 32.2827 278.587 31.824 278.224 31.504C277.872 31.184 277.344 31.024 276.64 31.024C276.16 31.024 275.685 31.0987 275.216 31.248C274.757 31.3973 274.368 31.6053 274.048 31.872L273.264 30.416C273.712 30.0747 274.251 29.8133 274.88 29.632C275.509 29.4507 276.176 29.36 276.88 29.36ZM276.608 36.656C277.109 36.656 277.552 36.544 277.936 36.32C278.331 36.0853 278.608 35.7547 278.768 35.328V34.336H276.704C275.552 34.336 274.976 34.7147 274.976 35.472C274.976 35.8347 275.12 36.1227 275.408 36.336C275.696 36.5493 276.096 36.656 276.608 36.656ZM289.435 33.552C290.491 33.872 291.019 34.5547 291.019 35.6C291.019 36.368 290.731 36.96 290.155 37.376C289.579 37.792 288.725 38 287.595 38H283.243V29.456H287.419C288.464 29.456 289.28 29.648 289.867 30.032C290.453 30.416 290.747 30.96 290.747 31.664C290.747 32.1013 290.629 32.48 290.395 32.8C290.171 33.12 289.851 33.3707 289.435 33.552ZM285.147 33.024H287.243C288.277 33.024 288.795 32.6667 288.795 31.952C288.795 31.2587 288.277 30.912 287.243 30.912H285.147V33.024ZM287.435 36.544C288.533 36.544 289.083 36.1867 289.083 35.472C289.083 35.0987 288.955 34.8213 288.699 34.64C288.443 34.448 288.043 34.352 287.499 34.352H285.147V36.544H287.435ZM296.701 34.576H295.149V38H293.149V29.456H295.149V32.912H296.749L299.277 29.456H301.421L298.317 33.568L301.629 38H299.277L296.701 34.576ZM306.067 29.36C307.326 29.36 308.286 29.664 308.947 30.272C309.619 30.8693 309.955 31.776 309.955 32.992V38H308.067V36.96C307.822 37.3333 307.47 37.6213 307.011 37.824C306.563 38.016 306.019 38.112 305.379 38.112C304.739 38.112 304.179 38.0053 303.699 37.792C303.219 37.568 302.846 37.264 302.579 36.88C302.323 36.4853 302.195 36.0427 302.195 35.552C302.195 34.784 302.478 34.1707 303.043 33.712C303.619 33.2427 304.521 33.008 305.747 33.008H307.955V32.88C307.955 32.2827 307.774 31.824 307.411 31.504C307.059 31.184 306.531 31.024 305.827 31.024C305.347 31.024 304.873 31.0987 304.403 31.248C303.945 31.3973 303.555 31.6053 303.235 31.872L302.451 30.416C302.899 30.0747 303.438 29.8133 304.067 29.632C304.697 29.4507 305.363 29.36 306.067 29.36ZM305.795 36.656C306.297 36.656 306.739 36.544 307.123 36.32C307.518 36.0853 307.795 35.7547 307.955 35.328V34.336H305.891C304.739 34.336 304.163 34.7147 304.163 35.472C304.163 35.8347 304.307 36.1227 304.595 36.336C304.883 36.5493 305.283 36.656 305.795 36.656ZM209.089 58.552C209.622 58.7013 210.033 58.9467 210.321 59.288C210.62 59.6187 210.769 60.0187 210.769 60.488C210.769 61.0107 210.593 61.4747 210.241 61.88C209.889 62.2747 209.404 62.584 208.785 62.808C208.166 63.032 207.462 63.144 206.673 63.144C206.012 63.144 205.366 63.0693 204.737 62.92C204.108 62.76 203.537 62.536 203.025 62.248L203.601 60.76C204.017 60.9947 204.486 61.176 205.009 61.304C205.532 61.432 206.054 61.496 206.577 61.496C207.249 61.496 207.772 61.3947 208.145 61.192C208.529 60.9787 208.721 60.6907 208.721 60.328C208.721 59.9973 208.572 59.7413 208.273 59.56C207.985 59.3787 207.574 59.288 207.041 59.288H205.377V57.944H206.881C207.382 57.944 207.772 57.8587 208.049 57.688C208.337 57.5173 208.481 57.2773 208.481 56.968C208.481 56.6587 208.31 56.4133 207.969 56.232C207.628 56.0507 207.158 55.96 206.561 55.96C205.708 55.96 204.806 56.168 203.857 56.584L203.345 55.112C204.465 54.5893 205.596 54.328 206.737 54.328C207.462 54.328 208.113 54.4293 208.689 54.632C209.265 54.824 209.713 55.1013 210.033 55.464C210.364 55.816 210.529 56.2213 210.529 56.68C210.529 57.096 210.401 57.4693 210.145 57.8C209.889 58.12 209.537 58.3707 209.089 58.552ZM216.028 54.36C217.287 54.36 218.247 54.664 218.908 55.272C219.58 55.8693 219.916 56.776 219.916 57.992V63H218.028V61.96C217.783 62.3333 217.431 62.6213 216.972 62.824C216.524 63.016 215.98 63.112 215.34 63.112C214.7 63.112 214.14 63.0053 213.66 62.792C213.18 62.568 212.807 62.264 212.54 61.88C212.284 61.4853 212.156 61.0427 212.156 60.552C212.156 59.784 212.439 59.1707 213.004 58.712C213.58 58.2427 214.482 58.008 215.708 58.008H217.916V57.88C217.916 57.2827 217.735 56.824 217.372 56.504C217.02 56.184 216.492 56.024 215.788 56.024C215.308 56.024 214.834 56.0987 214.364 56.248C213.906 56.3973 213.516 56.6053 213.196 56.872L212.412 55.416C212.86 55.0747 213.399 54.8133 214.028 54.632C214.658 54.4507 215.324 54.36 216.028 54.36ZM215.756 61.656C216.258 61.656 216.7 61.544 217.084 61.32C217.479 61.0853 217.756 60.7547 217.916 60.328V59.336H215.852C214.7 59.336 214.124 59.7147 214.124 60.472C214.124 60.8347 214.268 61.1227 214.556 61.336C214.844 61.5493 215.244 61.656 215.756 61.656ZM230.045 51.8V63H227.965V53.544H225.597V51.8H230.045ZM244.577 54.456V63H242.577V59.688C241.755 60.0827 240.897 60.28 240.001 60.28C238.902 60.28 238.059 60.0293 237.473 59.528C236.886 59.016 236.593 58.2373 236.593 57.192V54.456H238.593V57.064C238.593 57.608 238.753 58.0133 239.073 58.28C239.393 58.5467 239.846 58.68 240.433 58.68C241.179 58.68 241.894 58.52 242.577 58.2V54.456H244.577ZM250.45 54.36C251.709 54.36 252.669 54.664 253.33 55.272C254.002 55.8693 254.338 56.776 254.338 57.992V63H252.45V61.96C252.205 62.3333 251.853 62.6213 251.394 62.824C250.946 63.016 250.402 63.112 249.762 63.112C249.122 63.112 248.562 63.0053 248.082 62.792C247.602 62.568 247.229 62.264 246.962 61.88C246.706 61.4853 246.578 61.0427 246.578 60.552C246.578 59.784 246.861 59.1707 247.426 58.712C248.002 58.2427 248.904 58.008 250.13 58.008H252.338V57.88C252.338 57.2827 252.157 56.824 251.794 56.504C251.442 56.184 250.914 56.024 250.21 56.024C249.73 56.024 249.256 56.0987 248.786 56.248C248.328 56.3973 247.938 56.6053 247.618 56.872L246.834 55.416C247.282 55.0747 247.821 54.8133 248.45 54.632C249.08 54.4507 249.746 54.36 250.45 54.36ZM250.178 61.656C250.68 61.656 251.122 61.544 251.506 61.32C251.901 61.0853 252.178 60.7547 252.338 60.328V59.336H250.274C249.122 59.336 248.546 59.7147 248.546 60.472C248.546 60.8347 248.69 61.1227 248.978 61.336C249.266 61.5493 249.666 61.656 250.178 61.656ZM260.701 63.112C259.816 63.112 259.021 62.9253 258.317 62.552C257.613 62.1787 257.064 61.6613 256.669 61C256.274 60.328 256.077 59.5707 256.077 58.728C256.077 57.8853 256.274 57.1333 256.669 56.472C257.064 55.8107 257.608 55.2933 258.301 54.92C259.005 54.5467 259.805 54.36 260.701 54.36C261.544 54.36 262.28 54.5307 262.909 54.872C263.549 55.2133 264.029 55.704 264.349 56.344L262.813 57.24C262.568 56.8453 262.258 56.552 261.885 56.36C261.522 56.1573 261.122 56.056 260.685 56.056C259.938 56.056 259.32 56.3013 258.829 56.792C258.338 57.272 258.093 57.9173 258.093 58.728C258.093 59.5387 258.333 60.1893 258.813 60.68C259.304 61.16 259.928 61.4 260.685 61.4C261.122 61.4 261.522 61.304 261.885 61.112C262.258 60.9093 262.568 60.6107 262.813 60.216L264.349 61.112C264.018 61.752 263.533 62.248 262.893 62.6C262.264 62.9413 261.533 63.112 260.701 63.112Z" fill="white"/>
</svg>
